<?xml version="1.0" encoding="utf-8"?>
<!-- Generator: Adobe Illustrator 16.0.0, SVG Export Plug-In . SVG Version: 6.00 Build 0)  -->
<!DOCTYPE svg PUBLIC "-//W3C//DTD SVG 1.1 Tiny//EN" "http://www.w3.org/Graphics/SVG/1.1/DTD/svg11-tiny.dtd">
<svg version="1.1" baseProfile="tiny" id="Logo" xmlns="http://www.w3.org/2000/svg" xmlns:xlink="http://www.w3.org/1999/xlink"
	 x="0px" y="0px" width="272.254px" height="271.045px" viewBox="0 0 272.254 271.045" xml:space="preserve">
<g>
	<g>
		<path d="M270.922,128.305c-0.101-2.176-0.07-4.366-0.292-6.53c-0.603-5.896-1.619-11.731-3.046-17.486
			c-2.795-11.284-6.871-22.079-12.435-32.301c-3.196-5.878-6.806-11.494-10.817-16.845c-4.771-6.365-10.095-12.236-15.92-17.665
			c-3.876-3.615-7.933-7.001-12.204-10.134c-7.648-5.608-15.761-10.435-24.423-14.3c-9.914-4.424-20.2-7.689-30.891-9.646
			c-3.396-0.622-6.805-1.216-10.244-1.474c-3.452-0.259-6.918-0.363-10.385-0.34c-0.269,0.001-0.552,0.084-0.811-0.071h-6.352
			c-1.595,0.185-3.198,0.052-4.797,0.122c-2.191,0.095-4.394,0.083-6.571,0.298c-4.563,0.453-9.085,1.21-13.575,2.162
			c-10.13,2.148-19.877,5.44-29.256,9.802c-8.414,3.914-16.296,8.74-23.722,14.298c-6.389,4.781-12.272,10.127-17.718,15.965
			c-3.564,3.82-6.908,7.813-9.997,12.022C22.023,63.6,17.305,71.45,13.484,79.826C8.849,89.983,5.466,100.54,3.422,111.522
			c-0.641,3.445-1.233,6.901-1.496,10.392c-0.262,3.475-0.369,6.964-0.342,10.455c0.002,0.244,0.08,0.502-0.071,0.734v6.353
			c0.186,1.595,0.046,3.198,0.126,4.798c0.132,2.638,0.108,5.288,0.428,7.913c0.79,6.486,1.988,12.896,3.708,19.207
			c2.963,10.873,7.099,21.268,12.669,31.075c6.919,12.183,15.432,23.11,25.72,32.651c3.775,3.5,7.702,6.806,11.841,9.862
			c7.732,5.709,15.946,10.611,24.722,14.534c9.911,4.43,20.197,7.695,30.886,9.657c3.396,0.623,6.804,1.22,10.244,1.479
			c3.469,0.262,6.953,0.371,10.437,0.344c0.269-0.001,0.552-0.084,0.811,0.071h6.352c1.596-0.185,3.198-0.05,4.798-0.123
			c2.182-0.099,4.376-0.073,6.546-0.294c5.821-0.591,11.581-1.595,17.266-2.992c12.061-2.966,23.559-7.381,34.37-13.517
			c12.185-6.914,23.111-15.429,32.653-25.718c3.519-3.793,6.842-7.738,9.908-11.899c5.705-7.736,10.605-15.949,14.522-24.729
			c4.394-9.843,7.643-20.055,9.602-30.668c0.641-3.47,1.25-6.951,1.513-10.467c0.26-3.473,0.366-6.96,0.34-10.447
			c0-0.244-0.08-0.504,0.07-0.736v-6.353C270.86,131.508,270.996,129.904,270.922,128.305z M258.598,141.197
			c-0.438,11.375-2.435,22.487-6.029,33.295c-4.065,12.222-9.87,23.548-17.507,33.932c-4.192,5.701-8.813,11.027-13.926,15.914
			c-9.772,9.342-20.757,16.93-33.031,22.638c-10.562,4.911-21.588,8.271-33.104,10.03c-0.348,0.054-0.69,0.14-1.038,0.201
			c-1.306,0.232-2.069-0.357-2.089-1.683c-0.029-2.041-0.012-4.082-0.013-6.125c-0.002-0.781,0-1.563,0-2.345
			c0-2.621,0.016-5.243-0.008-7.863c-0.009-1.058,0.303-1.947,0.96-2.787c1.478-1.894,2.533-3.994,2.888-6.406
			c0.207-1.421-0.045-2.76-0.629-4.051c-0.644-1.427-1.752-2.3-3.239-2.735c-1.507-0.44-3.038-0.727-4.601-0.851
			c-3.4-0.269-6.798-0.089-10.195,0.084c-1.51,0.077-3.025,0.066-4.52,0.331c-1.627,0.289-3.166,0.821-4.6,1.654
			c-1.119,0.648-2.003,0.586-2.504-0.144c-0.517-0.753-0.233-1.615,0.794-2.445c1.49-1.204,2.988-2.399,4.459-3.625
			c0.763-0.637,1.569-0.917,2.579-0.754c2.586,0.42,5.183,0.788,7.778,1.155c1.303,0.184,2.562-0.053,3.774-0.533
			c0.55-0.217,1.02-0.557,1.372-1.035c0.654-0.885,0.496-1.876-0.407-2.495c-0.654-0.447-1.399-0.703-2.173-0.836
			c-3.576-0.619-7.157-1.219-10.734-1.828c-0.481-0.083-0.951-0.036-1.422,0.078c-2.62,0.638-5.248,1.251-7.862,1.911
			c-2.912,0.734-4.58,2.954-4.555,5.946c0.03,3.737,0.693,7.318,2.549,10.615c1.044,1.857,2.434,3.405,4.229,4.552
			c0.879,0.563,1.261,1.296,1.258,2.323c-0.016,6.101-0.004,12.201-0.014,18.302c-0.002,1.428-0.5,1.973-1.922,2.088
			c-1.928,0.157-3.819-0.237-5.712-0.503c-13.966-1.955-27.187-6.244-39.676-12.781c-8.956-4.688-17.182-10.435-24.708-17.184
			c-12.204-10.941-21.862-23.8-28.901-38.604c-5.63-11.841-9.259-24.274-10.88-37.294c-0.824-6.624-1.073-13.267-0.833-19.921
			c0.385-10.684,2.173-21.143,5.354-31.358c4.868-15.63,12.541-29.73,23.051-42.276C52.816,45.841,64.67,36.143,78.371,28.722
			c12.832-6.95,26.478-11.442,40.926-13.513c7.383-1.059,14.808-1.383,22.247-1.097c11.35,0.438,22.437,2.437,33.221,6.019
			c12.149,4.036,23.415,9.798,33.754,17.362c5.793,4.238,11.196,8.923,16.15,14.11c9.338,9.778,16.924,20.765,22.626,33.042
			c5.09,10.961,8.502,22.413,10.206,34.377C258.553,126.383,258.884,133.782,258.598,141.197z"/>
		<path fill="#FFFFFF" d="M247.295,84.646c-5.702-12.277-13.288-23.264-22.626-33.042c-4.954-5.188-10.357-9.872-16.15-14.11
			c-10.339-7.564-21.604-13.326-33.754-17.362c-10.784-3.582-21.871-5.581-33.221-6.019c-7.439-0.287-14.863,0.038-22.247,1.097
			c-14.448,2.071-28.095,6.563-40.926,13.513C64.67,36.143,52.816,45.841,42.812,57.784C32.302,70.33,24.628,84.43,19.761,100.06
			c-3.182,10.215-4.97,20.675-5.354,31.358c-0.239,6.654,0.009,13.298,0.833,19.921c1.621,13.021,5.25,25.453,10.88,37.294
			c7.039,14.804,16.697,27.662,28.901,38.604c7.526,6.749,15.752,12.496,24.708,17.184c12.489,6.537,25.71,10.826,39.676,12.781
			c1.893,0.266,3.784,0.66,5.712,0.503c1.423-0.115,1.92-0.66,1.922-2.088c0.01-6.101-0.001-12.201,0.014-18.302
			c0.003-1.027-0.378-1.761-1.258-2.323c-1.795-1.146-3.186-2.694-4.229-4.552c-1.855-3.297-2.519-6.878-2.549-10.615
			c-0.024-2.992,1.643-5.212,4.555-5.946c2.614-0.66,5.242-1.273,7.862-1.911c0.471-0.114,0.941-0.161,1.422-0.078
			c3.578,0.609,7.158,1.209,10.734,1.828c0.773,0.133,1.519,0.389,2.173,0.836c0.903,0.619,1.062,1.61,0.407,2.495
			c-0.353,0.479-0.822,0.818-1.372,1.035c-1.213,0.48-2.472,0.717-3.774,0.533c-2.595-0.367-5.191-0.735-7.778-1.155
			c-1.01-0.163-1.816,0.117-2.579,0.754c-1.471,1.226-2.97,2.421-4.459,3.625c-1.028,0.83-1.312,1.692-0.794,2.445
			c0.501,0.729,1.385,0.792,2.504,0.144c1.434-0.833,2.973-1.365,4.6-1.654c1.495-0.265,3.01-0.254,4.52-0.331
			c3.397-0.173,6.795-0.353,10.195-0.084c1.563,0.124,3.094,0.41,4.601,0.851c1.487,0.436,2.596,1.309,3.239,2.735
			c0.584,1.291,0.836,2.63,0.629,4.051c-0.354,2.412-1.41,4.513-2.888,6.406c-0.657,0.84-0.969,1.729-0.96,2.787
			c0.023,2.62,0.008,5.242,0.008,7.863c0,0.782-0.002,1.563,0,2.345c0.001,2.043-0.017,4.084,0.013,6.125
			c0.02,1.325,0.783,1.915,2.089,1.683c0.348-0.062,0.69-0.147,1.038-0.201c11.516-1.759,22.542-5.119,33.104-10.03
			c12.274-5.708,23.259-13.296,33.031-22.638c5.113-4.887,9.733-10.213,13.926-15.914c7.637-10.384,13.441-21.71,17.507-33.932
			c3.595-10.808,5.592-21.92,6.029-33.295c0.286-7.415-0.045-14.814-1.097-22.173C255.797,107.06,252.385,95.607,247.295,84.646z
			 M255.883,141.393c-0.89,19.592-6.181,37.921-16.071,54.893c-4.641,7.963-10.124,15.291-16.463,21.98
			c-13.241,13.98-28.943,24.185-47.073,30.658c-6.474,2.312-13.114,3.981-19.89,5.129c-1.483,0.251-1.512,0.226-1.512-1.239
			c-0.001-4.311,0.012-8.62-0.012-12.931c-0.003-0.818,0.202-1.49,0.682-2.171c1.837-2.621,3.163-5.433,3.147-8.743
			c-0.009-1.95-0.498-3.729-1.529-5.375c-0.434-0.694-0.373-0.813,0.443-0.95c1.046-0.173,2.102-0.309,3.101-0.667
			c0.661-0.238,1.009-0.025,1.323,0.568c2.268,4.274,4.563,8.536,6.844,12.804c1.467,2.745,3.589,4.787,6.621,5.598
			c3.591,0.96,6.854,0.16,9.572-2.435c1.355-1.293,1.917-2.978,2.05-4.829c0.129-1.815-0.282-3.559-0.628-5.313
			c-2.077-10.56-4.049-21.142-6.511-31.623c-0.521-2.216-1.312-4.295-3.074-5.864c-0.018-0.016-0.034-0.036-0.055-0.052
			c-1.14-0.846-2.206-1.687-2.862-3.07c-0.548-1.152-1.847-1.536-3.109-1.544c-4.31-0.027-8.631-0.173-12.928,0.071
			c-1.633,0.093-2.605-0.138-3.708-1.386c-1.671-1.891-4.532-2.087-6.749-0.768c-0.678,0.402-1.037,0.332-1.562-0.253
			c-1.819-2.029-4.743-2.446-7.174-1.042c-0.615,0.355-0.954,0.34-1.454-0.207c-2.647-2.9-7.089-2.501-9.203,0.822
			c-0.401,0.631-0.731,0.7-1.396,0.415c-2.98-1.276-6.091-0.155-7.586,2.706c-0.268,0.511-0.512,0.678-1.044,0.354
			c-0.884-0.538-1.874-0.729-2.898-0.731c-4.286-0.003-8.571-0.015-12.855,0.005c-1.94,0.009-3.423,0.771-4.092,2.718
			c-0.133,0.389-0.407,0.623-0.747,0.811c-2.219,1.227-3.601,3.129-4.315,5.513c-1.159,3.867-1.948,7.825-2.77,11.772
			c-1.638,7.873-3.221,15.756-4.834,23.633c-0.449,2.192-0.381,4.333,0.743,6.314c1.541,2.715,4.088,3.902,7.038,4.251
			c4.692,0.555,8.139-1.558,10.452-5.473c2.552-4.315,4.895-8.756,7.321-13.146c0.559-1.011,0.546-1.011,1.712-0.786
			c0.694,0.135,1.389,0.257,2.086,0.36c1.167,0.175,1.213,0.197,1.368,1.399c0.292,2.264,0.857,4.453,1.777,6.545
			c1.2,2.729,2.917,5.061,5.344,6.822c0.489,0.356,0.646,0.783,0.643,1.354c-0.013,2.596-0.005,5.192-0.006,7.789
			c0,2.597,0.004,5.191-0.003,7.788c-0.002,1.083-0.122,1.172-1.193,1.049c-13.708-1.562-26.762-5.361-39.13-11.477
			c-9.335-4.616-17.932-10.344-25.779-17.202c-9.53-8.331-17.557-17.913-24.046-28.773c-8.751-14.646-14.098-30.45-16.085-47.401
			c-0.745-6.353-0.954-12.725-0.673-19.097c0.721-16.372,4.575-31.982,11.75-46.747c4.946-10.179,11.182-19.483,18.752-27.896
			c9.888-10.989,21.419-19.835,34.567-26.587c12.952-6.65,26.683-10.675,41.133-12.319c6.1-0.693,12.227-0.87,18.346-0.595
			c18.848,0.848,36.565,5.783,53.056,15.015c8.688,4.863,16.651,10.706,23.874,17.559c13.933,13.215,24.121,28.869,30.582,46.948
			c3.265,9.137,5.271,18.558,6.251,28.205C256.013,130.155,256.137,135.78,255.883,141.393z"/>
		<path d="M249.191,96.347c-6.461-18.079-16.649-33.733-30.582-46.948c-7.223-6.853-15.187-12.696-23.874-17.559
			c-16.49-9.232-34.208-14.167-53.056-15.015c-6.12-0.274-12.247-0.098-18.346,0.595c-14.45,1.644-28.181,5.668-41.133,12.319
			c-13.148,6.752-24.679,15.598-34.567,26.587c-7.57,8.413-13.807,17.717-18.752,27.896c-7.175,14.765-11.029,30.375-11.75,46.747
			c-0.28,6.372-0.071,12.744,0.673,19.097c1.987,16.951,7.334,32.755,16.085,47.401c6.489,10.86,14.516,20.442,24.046,28.773
			c7.847,6.858,16.444,12.586,25.779,17.202c12.369,6.115,25.422,9.915,39.13,11.477c1.071,0.123,1.191,0.034,1.193-1.049
			c0.007-2.597,0.002-5.191,0.003-7.788c0.001-2.597-0.007-5.193,0.006-7.789c0.003-0.571-0.153-0.998-0.643-1.354
			c-2.427-1.762-4.144-4.093-5.344-6.822c-0.92-2.092-1.485-4.281-1.777-6.545c-0.155-1.202-0.201-1.225-1.368-1.399
			c-0.698-0.104-1.393-0.226-2.086-0.36c-1.167-0.225-1.153-0.225-1.712,0.786c-2.427,4.39-4.77,8.83-7.321,13.146
			c-2.313,3.915-5.759,6.027-10.452,5.473c-2.95-0.349-5.497-1.536-7.038-4.251c-1.124-1.981-1.192-4.122-0.743-6.314
			c1.614-7.877,3.196-15.76,4.834-23.633c0.821-3.947,1.61-7.905,2.77-11.772c0.715-2.384,2.096-4.286,4.315-5.513
			c0.34-0.188,0.614-0.422,0.747-0.811c0.668-1.947,2.151-2.709,4.092-2.718c4.285-0.02,8.57-0.008,12.855-0.005
			c1.024,0.002,2.014,0.193,2.898,0.731c0.532,0.323,0.776,0.156,1.044-0.354c1.495-2.861,4.606-3.982,7.586-2.706
			c0.666,0.285,0.995,0.216,1.396-0.415c2.114-3.324,6.556-3.722,9.203-0.822c0.5,0.547,0.838,0.563,1.454,0.207
			c2.431-1.404,5.354-0.987,7.174,1.042c0.524,0.585,0.884,0.655,1.562,0.253c2.217-1.319,5.078-1.123,6.749,0.768
			c1.103,1.248,2.075,1.479,3.708,1.386c4.297-0.244,8.618-0.099,12.928-0.071c1.263,0.008,2.562,0.392,3.109,1.544
			c0.656,1.384,1.723,2.225,2.862,3.07c0.021,0.016,0.037,0.036,0.055,0.052c1.763,1.569,2.553,3.648,3.074,5.864
			c2.462,10.481,4.434,21.063,6.511,31.623c0.346,1.755,0.757,3.498,0.628,5.313c-0.133,1.852-0.694,3.536-2.05,4.829
			c-2.719,2.595-5.981,3.395-9.572,2.435c-3.032-0.811-5.154-2.853-6.621-5.598c-2.281-4.268-4.576-8.529-6.844-12.804
			c-0.314-0.594-0.662-0.807-1.323-0.568c-0.999,0.358-2.055,0.494-3.101,0.667c-0.816,0.137-0.877,0.256-0.443,0.95
			c1.031,1.646,1.521,3.425,1.529,5.375c0.016,3.311-1.311,6.122-3.147,8.743c-0.479,0.681-0.685,1.353-0.682,2.171
			c0.023,4.311,0.011,8.62,0.012,12.931c0,1.465,0.028,1.49,1.512,1.239c6.775-1.147,13.416-2.817,19.89-5.129
			c18.13-6.474,33.832-16.678,47.073-30.658c6.339-6.689,11.822-14.018,16.463-21.98c9.891-16.972,15.182-35.301,16.071-54.893
			c0.254-5.613,0.13-11.238-0.44-16.842C254.462,114.905,252.456,105.484,249.191,96.347z"/>
	</g>
	<g>
		<path d="M181.042,216.171c-1.304-6.474-2.558-12.958-4.134-19.374c-0.542-2.207-1.671-3.918-3.792-4.885
			c-0.66-0.302-1.047-0.833-1.225-1.542c-0.261-1.045-0.409-1.167-1.508-1.17c-4.032-0.009-8.066-0.012-12.099,0.003
			c-1.427,0.006-1.939,0.514-2.034,1.961c-0.046,0.703,0.003,1.412-0.041,2.115c-0.281,4.458-4.33,6.969-8.371,5.181
			c-0.559-0.247-0.843-0.148-1.161,0.361c-1.66,2.663-4.627,3.567-7.496,2.266c-0.604-0.272-0.865-0.145-1.194,0.394
			c-2.249,3.681-7.426,3.801-9.802,0.219c-0.444-0.67-0.803-0.832-1.583-0.507c-3.66,1.53-7.529-0.743-8.048-4.666
			c-0.173-1.306-0.101-2.619-0.09-3.928c0.006-0.749-0.055-1.393-0.846-1.753c-0.209-0.095-0.403-0.333-0.498-0.552
			c-0.4-0.912-1.144-1.109-2.041-1.102c-2.067,0.017-4.135,0.005-6.202,0.005v0.003c-2.167,0-4.336-0.014-6.504,0.004
			c-0.98,0.009-1.195,0.193-1.368,1.141c-0.151,0.824-0.596,1.35-1.374,1.652c-1.76,0.686-2.88,1.996-3.494,3.746
			c-0.283,0.807-0.505,1.639-0.706,2.472c-1.241,5.146-2.325,10.327-3.393,15.512c-1.216,5.899-2.431,11.801-3.589,17.712
			c-0.425,2.173-0.153,4.229,1.862,5.594c1.504,1.017,3.22,1.476,5.034,1.263c2.868-0.335,4.802-2.004,6.16-4.473
			c2.588-4.704,5.201-9.396,7.81-14.087c0.689-1.24,1.376-1.52,2.763-1.147c0.976,0.26,1.964,0.446,2.961,0.605
			c0.624,0.101,0.912-0.072,1.003-0.746c0.497-3.664,3.177-6.598,6.784-7.476c2.596-0.632,5.196-1.248,7.79-1.891
			c0.998-0.248,1.992-0.277,2.999-0.106c3.281,0.556,6.561,1.109,9.84,1.668c1.072,0.182,2.126,0.438,3.107,0.919
			c1.138,0.556,2.114,1.304,2.636,2.493c0.721,1.646,0.419,3.199-0.529,4.671c-0.398,0.615-0.338,0.745,0.383,0.862
			c0.473,0.077,0.948,0.133,1.421,0.208c3.588,0.564,7.083,0.126,10.49-1.052c1.574-0.543,2.171-0.386,2.96,1.081
			c2.567,4.772,5.126,9.55,7.68,14.33c1.505,2.817,4.467,4.521,7.228,4.133c4.22-0.593,5.972-3.027,5.156-7.206
			C183.018,226.11,182.044,221.138,181.042,216.171z M107.389,216.589c-6.372,0.002-11.633-5.22-11.606-11.521
			c0.027-6.42,5.223-11.622,11.602-11.619c6.382,0.005,11.509,5.159,11.511,11.573C118.897,211.442,113.778,216.586,107.389,216.589
			z M160.646,213.17c-2.655,0.018-4.706-2.009-4.712-4.657c-0.004-2.653,2.025-4.681,4.688-4.68
			c2.572,0.003,4.667,2.089,4.675,4.659C165.304,211.063,163.226,213.153,160.646,213.17z M161.531,198.717
			c0.002-2.677,2.009-4.683,4.677-4.672c2.573,0.009,4.684,2.099,4.683,4.635c-0.003,2.58-2.13,4.704-4.718,4.715
			C163.643,203.404,161.53,201.274,161.531,198.717z M171.715,212.92c-2.524-0.026-4.709-2.226-4.678-4.709
			c0.032-2.614,2.127-4.654,4.767-4.638c2.649,0.017,4.59,2.006,4.574,4.691C176.361,210.847,174.258,212.949,171.715,212.92z"/>
		<path d="M135.807,186.444c-0.028-1.376-0.957-2.43-2.233-2.683c-1.258-0.248-2.531,0.361-3.096,1.513
			c-0.353,0.721-0.38,1.51-0.347,2.291c0.141,3.297,0.15,6.593-0.004,9.888c-0.02,0.424,0.016,0.856,0.074,1.277
			c0.227,1.647,1.42,2.671,2.983,2.579c1.549-0.088,2.617-1.249,2.638-2.932c0.024-1.939,0.006-3.877,0.006-5.815h-0.009
			C135.818,190.522,135.85,188.483,135.807,186.444z"/>
		<path d="M140.447,185.317c-1.081,0.542-1.546,1.479-1.566,2.645c-0.023,1.281-0.006,2.565-0.006,3.849c0.016,0,0.033,0,0.05,0
			c0,1.483-0.087,2.974,0.025,4.447c0.107,1.409,1.26,2.376,2.637,2.446c1.327,0.069,2.524-0.859,2.862-2.216
			c0.136-0.543,0.164-1.097,0.132-1.649c-0.134-2.262-0.123-4.52-0.034-6.786C144.634,185.786,142.4,184.335,140.447,185.317z"/>
		<path d="M121.471,195.658c0.021,1.068,0.402,1.981,1.323,2.584c1.706,1.115,4.057,0.122,4.272-1.916
			c0.267-2.53,0.191-5.083,0.017-7.623c-0.033-0.487-0.246-0.922-0.557-1.303c-0.762-0.934-1.915-1.287-3.06-0.936
			c-1.088,0.334-1.89,1.334-1.96,2.616c-0.063,1.132-0.014,2.268-0.014,3.401h-0.026C121.466,193.542,121.45,194.6,121.471,195.658z
			"/>
		<path d="M153.198,188.983c-0.111-1.586-1.346-2.673-2.928-2.635c-1.538,0.035-2.629,1.164-2.654,2.783
			c-0.021,1.357-0.021,2.715-0.002,4.072c0.024,1.664,1.121,2.8,2.693,2.822c1.608,0.022,2.819-1.109,2.9-2.746
			c0.034-0.678,0.006-1.357,0.006-2.035h-0.007C153.207,190.49,153.251,189.734,153.198,188.983z"/>
		<path fill="#FFFFFF" d="M107.384,193.45c-6.378-0.003-11.574,5.199-11.602,11.619c-0.026,6.301,5.235,11.522,11.606,11.521
			c6.39-0.003,11.508-5.147,11.506-11.566C118.893,198.609,113.766,193.455,107.384,193.45z M107.292,213.583
			c-4.721-0.015-8.535-3.859-8.522-8.589c0.014-4.77,3.884-8.538,8.75-8.519c4.651,0.019,8.508,3.934,8.464,8.591
			C115.938,209.824,112.085,213.599,107.292,213.583z"/>
		<path fill="#FFFFFF" d="M170.891,198.68c0.001-2.536-2.109-4.626-4.683-4.635c-2.668-0.011-4.675,1.995-4.677,4.672
			c-0.001,2.557,2.111,4.687,4.642,4.678C168.761,203.384,170.888,201.26,170.891,198.68z M166.199,200.389
			c-0.908,0.015-1.65-0.752-1.65-1.703c0-0.938,0.685-1.652,1.598-1.666c0.905-0.014,1.721,0.771,1.725,1.659
			C167.877,199.594,167.113,200.375,166.199,200.389z"/>
		<path fill="#FFFFFF" d="M160.622,203.833c-2.662-0.001-4.691,2.026-4.688,4.68c0.006,2.648,2.057,4.675,4.712,4.657
			c2.579-0.018,4.657-2.107,4.65-4.678C165.289,205.922,163.194,203.836,160.622,203.833z M160.57,210.175
			c-0.944-0.022-1.726-0.849-1.686-1.78c0.038-0.877,0.892-1.641,1.787-1.597c0.913,0.044,1.643,0.854,1.597,1.771
			C162.228,209.43,161.418,210.196,160.57,210.175z"/>
		<path fill="#FFFFFF" d="M171.804,203.574c-2.64-0.017-4.734,2.023-4.767,4.638c-0.031,2.483,2.153,4.683,4.678,4.709
			c2.543,0.028,4.646-2.073,4.663-4.655C176.394,205.58,174.453,203.59,171.804,203.574z M171.73,209.893
			c-0.894-0.011-1.685-0.818-1.673-1.709c0.012-0.893,0.821-1.686,1.709-1.676c0.889,0.011,1.687,0.823,1.676,1.711
			C173.433,209.102,172.615,209.903,171.73,209.893z"/>
		<path d="M107.519,196.475c-4.865-0.02-8.736,3.749-8.75,8.519c-0.013,4.729,3.801,8.574,8.522,8.589
			c4.794,0.017,8.647-3.759,8.692-8.517C116.027,200.409,112.17,196.494,107.519,196.475z M112.031,206.458
			c-0.78,0.032-1.562,0.027-2.343,0.019c-0.629-0.007-0.929,0.271-0.92,0.91c0.011,0.807,0.016,1.613-0.009,2.418
			c-0.03,0.991-0.594,1.602-1.439,1.605c-0.824,0.006-1.474-0.62-1.518-1.567c-0.035-0.752,0.051-1.51,0.049-2.264
			c-0.003-0.959-0.141-1.083-1.101-1.103c-0.352-0.006-0.705,0-1.058,0v-0.021c-0.479,0-0.96,0.035-1.435-0.01
			c-0.789-0.073-1.313-0.655-1.318-1.396c-0.005-0.762,0.549-1.397,1.354-1.444c0.879-0.052,1.763-0.04,2.645-0.029
			c0.637,0.007,0.924-0.282,0.916-0.913c-0.009-0.706-0.006-1.412,0.011-2.117c0.027-1.196,0.538-1.854,1.426-1.863
			c0.886-0.008,1.448,0.721,1.47,1.915c0.01,0.63-0.003,1.26,0.009,1.89c0.017,0.945,0.148,1.072,1.119,1.087
			c0.705,0.011,1.411-0.011,2.116,0.018c0.974,0.04,1.641,0.631,1.65,1.421C113.662,205.802,112.996,206.417,112.031,206.458z"/>
		<path d="M166.146,197.02c-0.913,0.014-1.598,0.729-1.598,1.666c0,0.951,0.742,1.718,1.65,1.703
			c0.914-0.014,1.678-0.795,1.672-1.71C167.867,197.791,167.052,197.006,166.146,197.02z"/>
		<path d="M160.672,206.798c-0.896-0.044-1.749,0.72-1.787,1.597c-0.04,0.932,0.741,1.758,1.686,1.78
			c0.848,0.021,1.657-0.745,1.698-1.606C162.314,207.652,161.585,206.842,160.672,206.798z"/>
		<path d="M171.767,206.508c-0.888-0.01-1.697,0.783-1.709,1.676c-0.012,0.891,0.779,1.698,1.673,1.709
			c0.885,0.01,1.702-0.791,1.712-1.674C173.453,207.332,172.655,206.519,171.767,206.508z"/>
		<path fill="#FFFFFF" d="M112.003,203.591c-0.705-0.028-1.411-0.007-2.116-0.018c-0.971-0.015-1.102-0.142-1.119-1.087
			c-0.012-0.63,0.001-1.26-0.009-1.89c-0.021-1.194-0.584-1.923-1.47-1.915c-0.888,0.009-1.398,0.667-1.426,1.863
			c-0.017,0.705-0.02,1.411-0.011,2.117c0.008,0.631-0.278,0.92-0.916,0.913c-0.881-0.011-1.765-0.022-2.645,0.029
			c-0.805,0.047-1.36,0.683-1.354,1.444c0.005,0.74,0.529,1.322,1.318,1.396c0.475,0.045,0.956,0.01,1.435,0.01v0.021
			c0.353,0,0.706-0.006,1.058,0c0.959,0.02,1.098,0.144,1.101,1.103c0.002,0.754-0.084,1.512-0.049,2.264
			c0.044,0.947,0.694,1.573,1.518,1.567c0.846-0.004,1.409-0.614,1.439-1.605c0.024-0.805,0.02-1.611,0.009-2.418
			c-0.009-0.639,0.291-0.917,0.92-0.91c0.781,0.009,1.563,0.014,2.343-0.019c0.965-0.04,1.631-0.655,1.623-1.445
			C113.645,204.222,112.978,203.631,112.003,203.591z"/>
	</g>
	<path fill="#FFFFFF" d="M251.247,120.938c-1.571-11.861-4.856-23.23-9.99-34.037c-6.827-14.365-16.189-26.856-28.08-37.428
		c-7.213-6.414-15.13-11.816-23.691-16.265c-15.794-8.207-32.638-12.378-50.396-12.915c-6.282-0.19-12.546,0.206-18.77,1.086
		c-13.582,1.92-26.461,6.02-38.562,12.523C68.96,40.782,57.801,49.706,48.32,60.707c-7.136,8.28-12.983,17.407-17.545,27.341
		c-6.634,14.445-10.037,29.649-10.482,45.516c-0.182,6.486,0.249,12.947,1.191,19.368c2.163,14.737,6.912,28.571,14.42,41.453
		c5.972,10.245,13.316,19.386,22.044,27.409c3.137,2.883,6.417,5.6,9.88,8.09c0.747,0.536,0.847,0.517,1.336-0.281
		c0.75-1.225,1.493-2.454,2.238-3.682c2.838-4.677,5.676-9.354,8.508-14.032c0.136-0.225,0.431-0.463,0.251-0.737
		c-0.166-0.256-0.513-0.145-0.78-0.132c-0.729,0.034-1.457,0.13-2.186,0.135c-1.546,0.012-2.269-0.593-2.518-2.133
		c-0.161-0.994-0.213-2.005-0.354-3.003c-0.165-1.178-0.495-1.467-1.674-1.504c-0.958-0.029-1.917,0.011-2.873-0.046
		c-1.752-0.104-2.497-0.859-2.596-2.605c-0.041-0.704-0.009-1.412-0.025-2.118c-0.024-1.066-0.295-1.381-1.359-1.537
		c-0.772-0.114-1.557-0.151-2.325-0.287c-1.417-0.25-2.072-1.014-2.051-2.449c0.014-0.954,0.143-1.908,0.225-2.86
		c0.081-0.945-0.186-1.357-1.11-1.591c-0.855-0.218-1.727-0.367-2.582-0.585c-1.823-0.466-2.378-1.351-2.059-3.225
		c0.123-0.721,0.264-1.438,0.368-2.161c0.108-0.76-0.208-1.258-0.962-1.48c-0.653-0.193-1.299-0.407-1.941-0.632
		c-1.736-0.608-2.253-1.524-1.832-3.32c0.207-0.882,0.504-1.743,0.744-2.619c0.294-1.072,0.121-1.464-0.884-1.923
		c-0.848-0.387-1.726-0.709-2.567-1.109c-1.585-0.755-2.009-1.823-1.405-3.47c0.252-0.686,0.559-1.352,0.806-2.039
		c0.312-0.869,0.153-1.309-0.632-1.778c-0.671-0.4-1.375-0.745-2.041-1.152c-1.37-0.839-1.67-1.824-0.992-3.271
		c0.396-0.845,0.853-1.66,1.259-2.499c0.42-0.866,0.324-1.241-0.456-1.804c-0.796-0.576-1.635-1.096-2.41-1.699
		c-1.131-0.88-1.328-1.875-0.637-3.13c0.364-0.66,0.81-1.276,1.211-1.916c0.676-1.079,0.604-1.523-0.359-2.33
		c-0.483-0.405-0.98-0.794-1.442-1.222c-1.291-1.193-1.4-2.239-0.354-3.651c0.585-0.789,1.253-1.515,1.836-2.306
		c0.644-0.872,0.606-1.27-0.122-2.058c-0.684-0.741-1.395-1.456-2.078-2.198c-1.117-1.214-1.146-2.235-0.078-3.48
		c0.508-0.592,1.07-1.137,1.606-1.706c0.69-0.732,0.731-1.18,0.125-1.997c-0.436-0.585-0.935-1.125-1.364-1.715
		c-0.976-1.341-0.828-2.523,0.428-3.592c0.634-0.539,1.283-1.059,1.913-1.603c0.772-0.663,0.853-1.17,0.313-2.047
		c-0.462-0.75-0.981-1.468-1.422-2.23c-0.84-1.459-0.596-2.536,0.776-3.533c0.591-0.428,1.219-0.806,1.812-1.235
		c0.745-0.539,0.873-0.995,0.488-1.826c-0.307-0.662-0.68-1.294-1-1.951c-0.754-1.555-0.488-2.538,0.988-3.458
		c0.79-0.492,1.636-0.894,2.45-1.35c0.987-0.552,1.165-0.988,0.786-2.048c-0.332-0.925-0.736-1.824-1.063-2.75
		c-0.536-1.517-0.116-2.531,1.329-3.229c0.658-0.318,1.346-0.57,2.017-0.863c0.979-0.426,1.179-0.816,0.92-1.836
		c-0.185-0.733-0.429-1.452-0.595-2.188c-0.345-1.533,0.166-2.484,1.637-3.026c0.85-0.313,1.73-0.546,2.588-0.839
		c0.906-0.311,1.153-0.719,1.002-1.667c-0.134-0.847-0.327-1.683-0.464-2.529c-0.287-1.766,0.307-2.663,2.051-3.104
		c0.635-0.161,1.284-0.268,1.921-0.418c1.208-0.285,1.44-0.601,1.372-1.85c-0.042-0.754-0.135-1.507-0.137-2.262
		c-0.002-1.417,0.61-2.169,1.999-2.406c1.017-0.173,2.053-0.228,3.076-0.369c1.255-0.173,1.535-0.499,1.567-1.775
		c0.025-0.957-0.015-1.918,0.051-2.872c0.117-1.671,0.861-2.394,2.536-2.503c0.703-0.046,1.411-0.014,2.117-0.028
		c1.144-0.021,1.461-0.304,1.614-1.448c0.104-0.774,0.146-1.558,0.292-2.323c0.257-1.353,0.99-1.975,2.362-1.963
		c0.954,0.009,1.908,0.131,2.861,0.214c1.027,0.089,1.438-0.183,1.684-1.189c0.198-0.808,0.34-1.629,0.543-2.435
		c0.475-1.88,1.351-2.438,3.257-2.115c0.769,0.13,1.523,0.348,2.311,0.379c0.64,0.026,1.063-0.235,1.263-0.849
		c0.219-0.671,0.432-1.344,0.664-2.011c0.628-1.814,1.555-2.328,3.43-1.868c0.856,0.209,1.693,0.5,2.546,0.724
		c1.086,0.285,1.455,0.111,1.917-0.903c0.407-0.894,0.74-1.824,1.181-2.701c0.708-1.406,1.699-1.807,3.194-1.317
		c0.717,0.235,1.402,0.567,2.109,0.831c1.015,0.378,1.446,0.213,1.99-0.739c0.313-0.547,0.602-1.108,0.918-1.653
		c0.98-1.686,1.95-1.971,3.709-1.095c0.677,0.337,1.342,0.698,2.019,1.035c1.097,0.545,1.423,0.455,2.136-0.569
		c0.489-0.704,0.954-1.426,1.47-2.109c0.935-1.238,1.951-1.455,3.298-0.692c0.723,0.409,1.395,0.908,2.111,1.329
		c0.786,0.462,1.256,0.376,1.865-0.308c0.402-0.452,0.771-0.933,1.163-1.393c1.383-1.62,2.477-1.735,4.157-0.428
		c0.735,0.572,1.447,1.176,2.184,1.747c0.635,0.493,1.245,0.439,1.828-0.126c0.815-0.789,1.625-1.584,2.476-2.332
		c1.05-0.922,2.065-0.937,3.132-0.048c0.656,0.547,1.255,1.166,1.879,1.751c0.714,0.667,1.152,0.715,1.937,0.141
		c0.65-0.476,1.244-1.031,1.904-1.491c1.225-0.852,2.381-0.694,3.363,0.426c0.548,0.625,1.066,1.277,1.604,1.911
		c0.759,0.897,1.196,0.973,2.212,0.352c0.752-0.459,1.472-0.977,2.238-1.409c1.364-0.768,2.424-0.534,3.367,0.723
		c0.439,0.583,0.815,1.213,1.236,1.81c0.622,0.881,1.083,0.999,2.063,0.519c0.588-0.288,1.155-0.619,1.744-0.907
		c1.636-0.802,2.602-0.528,3.554,1.043c0.47,0.775,0.863,1.596,1.308,2.388c0.548,0.979,0.986,1.15,2.055,0.766
		c0.901-0.324,1.778-0.715,2.68-1.039c1.586-0.569,2.608-0.138,3.326,1.394c0.32,0.685,0.577,1.399,0.897,2.083
		c0.389,0.829,0.82,1.024,1.709,0.795c0.757-0.195,1.498-0.452,2.261-0.623c1.524-0.342,2.47,0.18,3.013,1.658
		c0.287,0.78,0.51,1.583,0.764,2.375c0.362,1.127,0.755,1.372,1.905,1.169c0.818-0.144,1.633-0.323,2.454-0.451
		c1.643-0.255,2.543,0.33,2.975,1.94c0.202,0.754,0.32,1.53,0.514,2.286c0.236,0.917,0.553,1.158,1.507,1.134
		c0.88-0.023,1.761-0.137,2.64-0.135c1.344,0.004,2.062,0.6,2.297,1.93c0.171,0.966,0.231,1.95,0.349,2.926
		c0.177,1.482,0.485,1.759,1.971,1.788c0.957,0.019,1.92-0.021,2.869,0.066c1.535,0.142,2.203,0.839,2.331,2.37
		c0.061,0.727,0.028,1.461,0.04,2.191c0.02,1.231,0.302,1.543,1.529,1.699c0.774,0.098,1.561,0.146,2.322,0.297
		c1.256,0.25,1.888,1.003,1.882,2.279c0,0.93-0.106,1.86-0.198,2.787c-0.118,1.213,0.127,1.583,1.327,1.861
		c0.785,0.182,1.58,0.324,2.36,0.525c1.793,0.462,2.33,1.32,2.056,3.166c-0.121,0.797-0.366,1.571-0.398,2.384
		c-0.024,0.642,0.242,1.061,0.854,1.261c0.671,0.219,1.344,0.433,2.012,0.664c1.811,0.627,2.325,1.555,1.864,3.432
		c-0.21,0.856-0.499,1.692-0.724,2.545c-0.284,1.087-0.112,1.451,0.906,1.915c0.893,0.407,1.823,0.741,2.7,1.182
		c1.403,0.707,1.802,1.699,1.314,3.195c-0.218,0.669-0.525,1.31-0.779,1.968c-0.455,1.175-0.299,1.585,0.821,2.205
		c0.508,0.279,1.021,0.551,1.521,0.844c1.684,0.98,1.967,1.95,1.09,3.71c-0.337,0.676-0.697,1.341-1.034,2.019
		c-0.544,1.096-0.452,1.424,0.573,2.134c0.703,0.489,1.427,0.953,2.109,1.47c1.237,0.937,1.453,1.948,0.688,3.3
		c-0.396,0.7-0.878,1.352-1.291,2.044c-0.512,0.852-0.423,1.325,0.331,1.98c0.437,0.381,0.895,0.737,1.335,1.114
		c1.619,1.384,1.734,2.479,0.425,4.157c-0.572,0.734-1.199,1.431-1.742,2.188c-0.529,0.738-0.479,1.147,0.133,1.817
		c0.765,0.836,1.577,1.63,2.325,2.483c0.918,1.047,0.933,2.065,0.044,3.131c-0.547,0.656-1.167,1.254-1.752,1.879
		c-0.665,0.71-0.712,1.152-0.139,1.937c0.479,0.65,1.034,1.244,1.492,1.904c0.851,1.225,0.69,2.381-0.429,3.363
		c-0.626,0.548-1.279,1.066-1.911,1.604c-0.896,0.756-0.97,1.198-0.349,2.213c0.446,0.731,0.948,1.43,1.373,2.173
		c0.818,1.428,0.582,2.498-0.75,3.479c-0.567,0.418-1.173,0.784-1.752,1.192c-0.88,0.62-0.995,1.08-0.514,2.061
		c0.277,0.565,0.594,1.112,0.874,1.676c0.848,1.712,0.576,2.668-1.078,3.662c-0.735,0.44-1.51,0.814-2.257,1.229
		c-1.061,0.585-1.229,1.018-0.807,2.166c0.322,0.876,0.7,1.729,1.017,2.607c0.566,1.583,0.133,2.612-1.397,3.327
		c-0.686,0.319-1.397,0.577-2.086,0.889c-0.801,0.363-1.004,0.775-0.795,1.637c0.189,0.784,0.452,1.551,0.627,2.336
		c0.343,1.524-0.181,2.471-1.654,3.016c-0.757,0.278-1.536,0.498-2.305,0.739c-1.22,0.384-1.453,0.761-1.229,2.001
		c0.142,0.794,0.313,1.584,0.437,2.38c0.255,1.643-0.33,2.547-1.938,2.977c-0.78,0.208-1.571,0.352-2.36,0.53
		c-0.747,0.171-1.114,0.635-1.066,1.413c0.053,0.879,0.139,1.76,0.142,2.64c0.006,1.429-0.588,2.146-2.003,2.391
		c-1.017,0.174-2.051,0.237-3.074,0.381c-1.266,0.177-1.529,0.485-1.563,1.771c-0.025,0.982,0.018,1.97-0.063,2.947
		c-0.132,1.612-0.917,2.343-2.532,2.427c-0.678,0.035-1.36,0.009-2.041,0.02c-1.228,0.016-1.557,0.303-1.691,1.531
		c-0.09,0.826-0.125,1.66-0.33,2.47c-0.278,1.093-0.981,1.68-2.101,1.732c-0.501,0.023-1.006-0.025-1.509-0.059
		c-0.502-0.034-1.004-0.092-1.505-0.142c-0.404-0.04-0.525,0.107-0.32,0.476c0.11,0.196,0.229,0.391,0.346,0.585
		c3.53,5.819,7.062,11.638,10.592,17.456c0.59,0.97,0.624,0.976,1.535,0.313c6.693-4.867,12.729-10.457,18.227-16.63
		c6.387-7.17,11.76-15.051,16.186-23.564c8.674-16.688,12.854-34.481,12.995-53.256c-0.003-3.457-0.183-6.902-0.484-10.341
		C251.67,124.29,251.469,122.612,251.247,120.938z"/>
	<g>
		<g>
			<path fill="#FFFFFF" d="M88.461,69.722h3.785l8.744,11.489V69.722h4.052v18.66h-3.492L92.513,76.52v11.863h-4.052V69.722z"/>
			<path fill="#FFFFFF" d="M119.144,88.702c-1.439,0-2.764-0.253-3.972-0.76c-1.209-0.506-2.253-1.19-3.132-2.053
				c-0.88-0.862-1.564-1.875-2.053-3.039c-0.489-1.164-0.733-2.413-0.733-3.746v-0.053c0-1.333,0.249-2.581,0.746-3.746
				c0.498-1.164,1.187-2.186,2.066-3.065c0.88-0.88,1.928-1.573,3.146-2.08c1.217-0.506,2.546-0.759,3.985-0.759
				s2.763,0.253,3.972,0.759c1.208,0.507,2.252,1.191,3.132,2.053c0.879,0.862,1.563,1.875,2.053,3.039
				c0.488,1.164,0.733,2.413,0.733,3.746v0.053c0,1.333-0.249,2.582-0.747,3.745c-0.498,1.165-1.186,2.186-2.066,3.066
				c-0.879,0.879-1.928,1.573-3.146,2.079S120.583,88.702,119.144,88.702z M119.197,84.917c0.817,0,1.573-0.151,2.266-0.453
				c0.693-0.302,1.284-0.72,1.772-1.253s0.871-1.15,1.146-1.853c0.275-0.702,0.413-1.453,0.413-2.252v-0.053
				c0-0.8-0.138-1.555-0.413-2.266c-0.276-0.71-0.667-1.333-1.173-1.866s-1.106-0.955-1.799-1.267
				c-0.693-0.311-1.449-0.466-2.266-0.466c-0.835,0-1.595,0.151-2.279,0.453c-0.684,0.302-1.271,0.72-1.759,1.253
				s-0.871,1.151-1.146,1.853c-0.275,0.703-0.413,1.453-0.413,2.253v0.053c0,0.8,0.138,1.555,0.413,2.266
				c0.275,0.711,0.667,1.333,1.173,1.866c0.506,0.533,1.102,0.956,1.786,1.266C117.602,84.761,118.361,84.917,119.197,84.917z"/>
			<path fill="#FFFFFF" d="M137.644,73.507h-5.678v-3.785h15.462v3.785h-5.679v14.875h-4.105V73.507z"/>
			<path fill="#FFFFFF" d="M151.133,69.722h8.53c2.363,0,4.176,0.631,5.438,1.893c1.066,1.066,1.6,2.488,1.6,4.265v0.053
				c0,1.511-0.369,2.742-1.106,3.692c-0.738,0.951-1.702,1.648-2.893,2.092l4.559,6.665h-4.799l-3.998-5.971h-0.054h-3.172v5.971
				h-4.105V69.722z M159.396,78.786c1.013,0,1.79-0.24,2.333-0.72c0.542-0.48,0.813-1.12,0.813-1.919v-0.053
				c0-0.889-0.284-1.555-0.853-2c-0.569-0.444-1.359-0.667-2.373-0.667h-4.078v5.358H159.396z"/>
			<path fill="#FFFFFF" d="M170.966,69.722h14.049v3.652h-9.997v3.786h8.797v3.652h-8.797v3.919h10.13v3.652h-14.182V69.722z"/>
		</g>
		<g>
			<path fill="#FFFFFF" d="M79.251,101.743h-5.678v-3.785h15.461v3.785h-5.678v14.875h-4.105V101.743z"/>
			<path fill="#FFFFFF" d="M92.74,97.958h8.53c2.363,0,4.176,0.631,5.438,1.893c1.066,1.066,1.599,2.488,1.599,4.265v0.053
				c0,1.511-0.369,2.742-1.106,3.692c-0.738,0.951-1.702,1.648-2.893,2.092l4.559,6.665h-4.798l-3.999-5.971h-0.054h-3.172v5.971
				H92.74V97.958z M101.003,107.021c1.013,0,1.791-0.24,2.333-0.72s0.813-1.12,0.813-1.919v-0.053c0-0.889-0.285-1.555-0.854-2
				c-0.569-0.444-1.359-0.667-2.372-0.667h-4.079v5.358H101.003z"/>
			<path fill="#FFFFFF" d="M118.971,97.825h3.785l7.998,18.793h-4.292l-1.706-4.185h-7.891l-1.706,4.185h-4.186L118.971,97.825z
				 M123.29,108.808l-2.479-6.051l-2.479,6.051H123.29z"/>
			<path fill="#FFFFFF" d="M132.593,97.958h4.532l4.879,13.142l4.877-13.142h4.426l-7.545,18.793h-3.625L132.593,97.958z"/>
			<path fill="#FFFFFF" d="M161.143,97.825h3.787l7.996,18.793h-4.291l-1.707-4.185h-7.891l-1.705,4.185h-4.186L161.143,97.825z
				 M165.463,108.808l-2.48-6.051l-2.479,6.051H165.463z"/>
			<path fill="#FFFFFF" d="M176.551,97.958h4.105v18.66h-4.105V97.958z"/>
			<path fill="#FFFFFF" d="M185.881,97.958h4.105v14.955h9.305v3.706h-13.41V97.958z"/>
		</g>
		<g>
			<path fill="#FFFFFF" d="M78.132,146.269c-1.369,0-2.639-0.249-3.812-0.747c-1.173-0.497-2.186-1.177-3.039-2.039
				c-0.853-0.862-1.52-1.879-1.999-3.052c-0.48-1.173-0.72-2.426-0.72-3.759v-0.053c0-1.333,0.24-2.581,0.72-3.746
				c0.479-1.164,1.146-2.186,1.999-3.065c0.853-0.88,1.875-1.573,3.066-2.08c1.19-0.506,2.505-0.759,3.945-0.759
				c0.87,0,1.666,0.071,2.386,0.213c0.72,0.143,1.373,0.338,1.959,0.586c0.586,0.249,1.128,0.551,1.626,0.907
				c0.497,0.355,0.959,0.746,1.386,1.173l-2.613,3.012c-0.729-0.657-1.471-1.173-2.226-1.546c-0.756-0.373-1.604-0.56-2.546-0.56
				c-0.782,0-1.506,0.151-2.172,0.453c-0.667,0.302-1.24,0.72-1.72,1.253s-0.853,1.151-1.12,1.853c-0.267,0.703-0.4,1.453-0.4,2.253
				v0.053c0,0.8,0.133,1.555,0.4,2.266c0.267,0.711,0.635,1.333,1.106,1.866c0.471,0.533,1.04,0.956,1.706,1.266
				c0.667,0.311,1.399,0.467,2.199,0.467c1.066,0,1.968-0.195,2.706-0.586s1.471-0.924,2.199-1.6l2.613,2.639
				c-0.48,0.516-0.978,0.978-1.493,1.386s-1.08,0.76-1.692,1.053c-0.613,0.293-1.284,0.516-2.013,0.667
				C79.855,146.193,79.038,146.269,78.132,146.269z"/>
			<path fill="#FFFFFF" d="M89.621,127.289h8.53c2.363,0,4.176,0.631,5.438,1.893c1.066,1.066,1.599,2.488,1.599,4.265v0.053
				c0,1.511-0.369,2.742-1.106,3.692c-0.738,0.951-1.702,1.648-2.893,2.092l4.559,6.665h-4.798l-3.999-5.971h-0.054h-3.172v5.971
				h-4.105V127.289z M97.884,136.353c1.013,0,1.791-0.24,2.333-0.72s0.813-1.12,0.813-1.919v-0.053c0-0.889-0.285-1.555-0.854-2
				c-0.569-0.444-1.359-0.667-2.372-0.667h-4.079v5.358H97.884z"/>
			<path fill="#FFFFFF" d="M109.454,127.289h14.048v3.652h-9.997v3.786h8.797v3.652h-8.797v3.919h10.13v3.652h-14.182V127.289z
				 M117.265,121.104l3.492,1.52l-3.412,3.199h-3.092L117.265,121.104z"/>
			<path fill="#FFFFFF" d="M127.874,127.289h14.048v3.652h-9.996v3.786h8.797v3.652h-8.797v3.919h10.13v3.652h-14.182V127.289z"/>
			<path fill="#FFFFFF" d="M154.852,127.289h4.105v14.955h9.303v3.706h-13.408V127.289z"/>
			<path fill="#FFFFFF" d="M171.912,127.289h14.049v3.652h-9.997v3.786h8.798v3.652h-8.798v3.919h10.13v3.652h-14.182V127.289z"/>
			<path fill="#FFFFFF" d="M196.996,146.216c-1.422,0-2.816-0.245-4.186-0.733c-1.368-0.489-2.611-1.24-3.731-2.253l2.426-2.905
				c0.853,0.693,1.728,1.244,2.626,1.652c0.896,0.409,1.879,0.613,2.945,0.613c0.854,0,1.516-0.155,1.986-0.466
				s0.707-0.742,0.707-1.293v-0.053c0-0.267-0.05-0.502-0.148-0.707c-0.098-0.204-0.285-0.396-0.561-0.573
				c-0.276-0.177-0.66-0.355-1.149-0.533c-0.49-0.177-1.127-0.364-1.911-0.56c-0.945-0.231-1.8-0.489-2.566-0.773
				c-0.766-0.284-1.416-0.635-1.951-1.053c-0.534-0.417-0.948-0.937-1.242-1.56c-0.295-0.622-0.441-1.395-0.441-2.319v-0.053
				c0-0.853,0.158-1.622,0.477-2.306s0.764-1.275,1.338-1.773c0.574-0.497,1.259-0.879,2.056-1.146c0.796-0.267,1.675-0.4,2.634-0.4
				c1.369,0,2.627,0.205,3.772,0.613c1.146,0.409,2.199,0.996,3.159,1.76l-2.133,3.092c-0.836-0.569-1.652-1.017-2.452-1.346
				c-0.8-0.329-1.6-0.493-2.399-0.493s-1.399,0.156-1.799,0.466c-0.4,0.311-0.601,0.698-0.601,1.16v0.053
				c0,0.302,0.058,0.564,0.174,0.787s0.325,0.422,0.628,0.6c0.303,0.178,0.718,0.347,1.243,0.506c0.526,0.16,1.188,0.347,1.991,0.56
				c0.944,0.249,1.786,0.529,2.525,0.84c0.74,0.311,1.363,0.684,1.871,1.12s0.891,0.946,1.15,1.533
				c0.258,0.586,0.387,1.289,0.387,2.106v0.053c0,0.924-0.168,1.746-0.502,2.466c-0.336,0.72-0.805,1.324-1.404,1.813
				c-0.601,0.489-1.317,0.862-2.149,1.12C198.932,146.087,198.01,146.216,196.996,146.216z"/>
		</g>
		<g>
			<path fill="#FFFFFF" d="M105.509,173.36c-1.458,0-2.679-0.275-3.666-0.826s-1.799-1.208-2.439-1.973l2.586-2.879
				c0.533,0.586,1.07,1.044,1.613,1.373c0.542,0.329,1.142,0.493,1.799,0.493c0.782,0,1.395-0.244,1.839-0.733
				s0.667-1.275,0.667-2.359v-12.022h4.212v12.209c0,1.12-0.151,2.088-0.453,2.906c-0.302,0.817-0.738,1.511-1.306,2.079
				c-0.569,0.569-1.266,1-2.093,1.293C107.441,173.213,106.521,173.36,105.509,173.36z"/>
			<path fill="#FFFFFF" d="M116.864,154.433h14.048v3.652h-9.997v3.786h8.797v3.652h-8.797v3.919h10.13v3.652h-14.182V154.433z"/>
			<path fill="#FFFFFF" d="M143.068,173.387c-2.506,0-4.479-0.693-5.917-2.08c-1.44-1.386-2.16-3.456-2.16-6.211v-10.663h4.105
				v10.556c0,1.529,0.355,2.679,1.066,3.452c0.71,0.773,1.696,1.16,2.959,1.16c1.262,0,2.248-0.373,2.959-1.12
				c0.71-0.747,1.066-1.866,1.066-3.359v-10.689h4.104v10.53c0,1.422-0.19,2.657-0.572,3.705c-0.383,1.049-0.93,1.924-1.64,2.626
				c-0.711,0.702-1.573,1.226-2.586,1.573S144.313,173.387,143.068,173.387z"/>
			<path fill="#FFFFFF" d="M161.089,163.603l-6.238-9.17h4.798l3.92,6.051l3.945-6.051h4.664l-6.237,9.117l6.505,9.543h-4.799
				l-4.186-6.398l-4.211,6.398h-4.666L161.089,163.603z"/>
		</g>
	</g>
	<g>
		<path d="M69.349,210.161c1.313,1.18,2.226,2.828,2.432,4.691l-2.338,0.338c-0.202-1.345-0.652-2.488-1.644-3.378
			c-0.78-0.701-1.528-0.813-1.984-0.306l-0.022,0.024c-0.434,0.483-0.359,0.998,0.756,2.671c1.346,2.015,2.039,3.51,0.492,5.23
			l-0.022,0.025c-1.413,1.572-3.611,1.478-5.382-0.113c-1.263-1.135-1.985-2.499-2.23-3.995l2.282-0.546
			c0.289,1.222,0.756,2.223,1.486,2.88c0.73,0.655,1.416,0.666,1.793,0.245l0.022-0.024c0.512-0.57,0.307-1.09-0.847-2.819
			c-1.347-2.038-1.771-3.56-0.414-5.07l0.022-0.025C65.299,208.268,67.479,208.481,69.349,210.161z"/>
	</g>
	<g>
		<path d="M55.725,203.083l3.531-3.017l1.665,1.949L57.428,205l-2.457,7.99l-1.947-2.278l1.75-5.152l-5.395,0.888l-1.893-2.215
			L55.725,203.083z"/>
	</g>
	<g>
		<path d="M49.727,186.429l-3.295,8.709l6.284-3.922l1.341,2.146l-9.885,6.17l-1.253-2.006l3.195-8.43l-6.086,3.799l-1.341-2.146
			l9.885-6.17L49.727,186.429z"/>
	</g>
	<g>
		<path d="M44.396,175.772l1.782,4.182l-10.72,4.569l-1.782-4.181c-1.436-3.369-0.114-6.682,2.902-7.968l0.03-0.013
			C39.626,171.075,42.961,172.403,44.396,175.772z M37.659,174.826c-1.898,0.809-2.677,2.679-1.854,4.609l0.777,1.823l6.463-2.755
			l-0.777-1.823c-0.822-1.93-2.679-2.676-4.578-1.867L37.659,174.826z"/>
	</g>
	<g>
		<path d="M40.543,165.375l-11.187,3.264l-0.718-2.461l11.188-3.264L40.543,165.375z"/>
	</g>
	<g>
		<path d="M37.731,152.223c0.575,3.38-1.606,6.336-4.905,6.897l-0.033,0.006c-3.266,0.556-6.36-1.451-6.96-4.979
			c-0.369-2.166,0.133-3.584,1.001-4.832l2.128,1.293c-0.653,1.023-0.992,2.009-0.796,3.157c0.33,1.938,2.175,3.059,4.144,2.723
			l0.033-0.005c1.969-0.335,3.379-1.977,3.044-3.947c-0.224-1.312-0.886-2.027-1.86-2.79l1.351-1.885
			C36.343,148.829,37.354,150.007,37.731,152.223z"/>
	</g>
	<g>
		<path d="M36.135,134.461l-2.594,1.112l0.087,4.927l2.632,1.019l0.046,2.612l-11.823-4.785l-0.042-2.363l11.646-5.203
			L36.135,134.461z M27.542,138.143l3.807,1.481l-0.055-3.096L27.542,138.143z"/>
	</g>
	<g>
		<path d="M36.552,127.551l-11.566-1.42l0.312-2.544l9.253,1.136l0.708-5.767l2.313,0.284L36.552,127.551z"/>
	</g>
	<g>
		<path d="M38.451,114.722l-11.354-2.625l0.578-2.498l11.354,2.626L38.451,114.722z"/>
	</g>
	<g>
		<path d="M42.011,103.116c-0.579,1.666-1.746,3.146-3.385,4.057l-1.216-2.027c1.163-0.706,2.042-1.563,2.479-2.821
			c0.345-0.99,0.16-1.725-0.486-1.949l-0.031-0.011c-0.613-0.213-1.059,0.055-2.17,1.73c-1.337,2.02-2.448,3.237-4.633,2.478
			l-0.031-0.011c-1.997-0.694-2.76-2.758-1.979-5.006c0.558-1.604,1.536-2.797,2.821-3.602l1.386,1.892
			c-1.015,0.74-1.757,1.557-2.079,2.484c-0.323,0.928-0.068,1.563,0.467,1.75l0.031,0.011c0.724,0.251,1.123-0.138,2.272-1.872
			c1.358-2.03,2.597-3.009,4.515-2.342l0.032,0.011C42.19,98.648,42.837,100.742,42.011,103.116z"/>
	</g>
	<g>
		<path d="M47.807,89.779c-1.673,3.183-5.246,4.22-8.178,2.679l-0.03-0.016c-2.933-1.541-4.118-5.117-2.446-8.3
			c1.673-3.183,5.245-4.22,8.178-2.679l0.029,0.015C48.292,83.02,49.479,86.596,47.807,89.779z M44.113,83.851
			c-1.769-0.929-3.924-0.407-4.884,1.42c-0.96,1.828-0.182,3.854,1.586,4.783l0.029,0.015c1.769,0.929,3.924,0.407,4.884-1.421
			c0.96-1.827,0.182-3.853-1.585-4.782L44.113,83.851z"/>
	</g>
	<g>
		<path d="M58.025,73.806l-9.313,0.063l5.923,4.45l-1.52,2.023l-9.317-6.999l1.419-1.89l9.016-0.057l-5.736-4.31l1.52-2.023
			l9.317,6.999L58.025,73.806z"/>
	</g>
	<g>
		<path d="M65.882,65.391c-1.25,1.246-2.946,2.068-4.818,2.17l-0.208-2.354c1.354-0.127,2.52-0.514,3.463-1.454
			c0.743-0.74,0.897-1.482,0.415-1.965l-0.023-0.023c-0.458-0.46-0.977-0.414-2.708,0.608c-2.085,1.233-3.617,1.842-5.25,0.204
			l-0.023-0.023c-1.493-1.498-1.278-3.687,0.408-5.367c1.203-1.199,2.604-1.844,4.111-2.006l0.42,2.307
			c-1.236,0.222-2.261,0.632-2.957,1.326s-0.744,1.376-0.344,1.777l0.023,0.024c0.541,0.542,1.07,0.367,2.861-0.69
			c2.109-1.233,3.651-1.572,5.085-0.134l0.023,0.024C67.996,61.451,67.663,63.616,65.882,65.391z"/>
	</g>
	<g>
		<path d="M72.512,54.809c-1.074,0.842-2.64,0.652-3.481-0.422s-0.652-2.64,0.422-3.482c1.075-0.842,2.641-0.652,3.482,0.422
			S73.586,53.967,72.512,54.809z"/>
	</g>
	<g>
		<path d="M81.024,52.704l-6.059-9.954l2.19-1.333l4.847,7.963l4.963-3.021l1.212,1.991L81.024,52.704z"/>
	</g>
	<g>
		<path d="M88.392,38.263l-0.929,0.451l-1.164-2.396l2.426-1.179l0.982,2.022c0.96,1.977,0.357,3.25-1.41,4.146l-0.653-0.849
			C88.626,39.852,88.881,39.081,88.392,38.263z"/>
	</g>
	<g>
		<path d="M98.511,43.525l-4.257-10.849l2.387-0.937l4.257,10.849L98.511,43.525z"/>
	</g>
	<g>
		<path d="M113.814,38.684l-7.325-5.75l1.863,7.17l-2.449,0.636l-2.931-11.279l2.288-0.594l7.09,5.571l-1.805-6.944l2.449-0.637
			l2.931,11.279L113.814,38.684z"/>
	</g>
	<g>
		<path d="M125.628,36.729l-4.522,0.448l-1.149-11.597l4.522-0.448c3.645-0.361,6.411,1.891,6.734,5.154l0.003,0.034
			C131.54,33.583,129.272,36.368,125.628,36.729z M128.549,30.584c-0.204-2.055-1.755-3.356-3.842-3.15l-1.971,0.195l0.692,6.99
			l1.972-0.195c2.087-0.207,3.356-1.754,3.152-3.808L128.549,30.584z"/>
	</g>
	<g>
		<path d="M141.294,36.567c-3.125-0.162-4.948-2.007-4.771-5.431l0.344-6.65l2.562,0.132l-0.341,6.584
			c-0.098,1.895,0.799,2.925,2.361,3.006s2.56-0.818,2.655-2.663l0.345-6.667l2.56,0.132l-0.34,6.567
			C146.487,35.101,144.419,36.728,141.294,36.567z"/>
	</g>
	<g>
		<path d="M155.455,38.299c-1.732-0.336-3.363-1.28-4.499-2.773l1.833-1.493c0.864,1.05,1.839,1.798,3.146,2.052
			c1.029,0.2,1.729-0.088,1.859-0.758l0.006-0.033c0.124-0.638-0.204-1.041-2.021-1.902c-2.19-1.035-3.553-1.961-3.112-4.233
			l0.007-0.033c0.402-2.075,2.336-3.125,4.672-2.671c1.667,0.324,2.987,1.123,3.968,2.28l-1.676,1.642
			c-0.877-0.899-1.792-1.518-2.756-1.705c-0.964-0.188-1.556,0.156-1.664,0.711l-0.006,0.033c-0.146,0.751,0.296,1.092,2.176,1.982
			c2.203,1.055,3.349,2.142,2.962,4.136l-0.007,0.033C159.902,37.839,157.922,38.778,155.455,38.299z"/>
	</g>
	<g>
		<path d="M172.001,32.923l-2.94,8.812l-2.432-0.811l2.94-8.812l-3.363-1.123l0.748-2.243l9.159,3.056l-0.748,2.243L172.001,32.923z
			"/>
	</g>
	<g>
		<path d="M182.73,47.651l-0.575-4.451l-1.804-0.896l-1.66,3.338l-2.297-1.142l5.19-10.434l4.771,2.373
			c2.459,1.223,3.289,3.254,2.222,5.4l-0.015,0.029c-0.838,1.685-2.273,2.29-3.846,2.122l0.695,4.995L182.73,47.651z
			 M186.192,40.802c0.489-0.984,0.056-1.832-1.062-2.388l-2.281-1.134l-1.489,2.996l2.325,1.156
			c1.118,0.556,2.055,0.278,2.492-0.601L186.192,40.802z"/>
	</g>
	<g>
		<path d="M189.291,51.502l6.339-9.778l2.151,1.394l-6.339,9.778L189.291,51.502z"/>
	</g>
	<g>
		<path d="M195.988,55.951l7.362-9.033l6.813,5.554l-1.441,1.768l-4.839-3.944l-1.493,1.832l4.259,3.471l-1.441,1.768l-4.259-3.471
			l-1.546,1.897l4.903,3.996l-1.44,1.768L195.988,55.951z"/>
	</g>
	<g>
		<path d="M210.665,64.572c-0.946-0.985-0.914-2.562,0.07-3.507s2.562-0.915,3.508,0.071c0.945,0.984,0.913,2.561-0.071,3.506
			S211.61,65.556,210.665,64.572z"/>
	</g>
	<g>
		<path d="M216.259,76.525l-2.694-3.661l9.385-6.908l2.694,3.661c2.171,2.949,1.646,6.477-0.995,8.42l-0.026,0.02
			C221.98,80.001,218.43,79.474,216.259,76.525z M223.033,75.9c1.663-1.224,1.99-3.222,0.747-4.912l-1.175-1.597l-5.658,4.165
			l1.175,1.597c1.243,1.689,3.222,1.99,4.885,0.767L223.033,75.9z"/>
	</g>
	<g>
		<path d="M224.509,89.832c-1.452-2.772-0.793-5.28,2.245-6.871l5.898-3.09l1.189,2.271l-5.84,3.06
			c-1.681,0.88-2.11,2.176-1.384,3.563c0.726,1.386,2.007,1.787,3.644,0.929l5.913-3.098l1.189,2.271l-5.825,3.052
			C228.413,93.555,225.961,92.604,224.509,89.832z"/>
	</g>
	<g>
		<path d="M233.074,100.49c-0.472-1.281,0.189-2.713,1.471-3.185s2.713,0.19,3.185,1.472s-0.19,2.712-1.472,3.184
			C234.978,102.432,233.546,101.771,233.074,100.49z"/>
	</g>
	<g>
		<path d="M232.957,111.924c-0.428-1.763,0.066-3.116,0.8-4.116l2.128,1.146c-0.555,0.82-0.822,1.553-0.63,2.345
			c0.228,0.938,0.936,1.384,2.245,1.066l7.297-1.771l0.62,2.556l-7.409,1.798C235.258,115.615,233.537,114.319,232.957,111.924z"/>
	</g>
	<g>
		<path d="M234.983,120.874l11.583-1.279l0.965,8.737l-2.268,0.25l-0.685-6.206l-2.35,0.259l0.603,5.461l-2.267,0.25l-0.603-5.461
			l-2.433,0.269l0.694,6.288l-2.268,0.25L234.983,120.874z"/>
	</g>
	<g>
		<path d="M235.785,139.301c0.104-3.128,1.916-4.983,5.344-4.868l6.656,0.223l-0.086,2.562l-6.59-0.221
			c-1.896-0.063-2.909,0.852-2.962,2.416s0.865,2.544,2.711,2.606l6.673,0.224l-0.086,2.562l-6.573-0.22
			C237.345,144.467,235.681,142.429,235.785,139.301z"/>
	</g>
	<g>
		<path d="M238.133,152.67c0.217-1.348,1.495-2.271,2.843-2.054s2.271,1.496,2.054,2.844c-0.218,1.348-1.496,2.271-2.844,2.054
			S237.915,154.018,238.133,152.67z"/>
	</g>
	<g>
		<path d="M231.535,165.783l0.646-2.17l12.593-1.166l-0.808,2.713l-8.735,0.577l6.996,5.263l-0.788,2.648L231.535,165.783z"/>
	</g>
	<g>
		<path d="M228.453,174.354l10.707,4.601l-1.014,2.355l-10.707-4.601L228.453,174.354z"/>
	</g>
	<g>
		<path d="M222.907,185.591l2.275-3.934l10.087,5.836l-2.275,3.934c-1.834,3.17-5.277,4.102-8.116,2.459l-0.029-0.018
			C222.01,192.227,221.073,188.761,222.907,185.591z M226.19,191.549c1.787,1.034,3.75,0.534,4.801-1.281l0.991-1.715l-6.08-3.518
			l-0.992,1.715c-1.051,1.815-0.534,3.749,1.252,4.782L226.19,191.549z"/>
	</g>
	<g>
		<path d="M217.133,194.855l9.137,7.232l-5.455,6.893l-1.789-1.416l3.875-4.895l-1.854-1.467l-3.408,4.309l-1.789-1.416l3.408-4.309
			l-1.918-1.52l-3.926,4.961l-1.789-1.414L217.133,194.855z M225.127,205.005l1.145,3.303l-2.098,1.121l-0.244-2.91L225.127,205.005
			z"/>
	</g>
	<g>
		<path d="M204.164,208.952c2.627-2.455,6.343-2.258,8.604,0.162l0.023,0.024c2.262,2.421,2.204,6.188-0.424,8.643
			c-2.627,2.455-6.342,2.259-8.604-0.162l-0.022-0.024C201.479,215.174,201.536,211.407,204.164,208.952z M205.699,215.764
			c1.363,1.46,3.571,1.677,5.079,0.268c1.509-1.409,1.441-3.579,0.077-5.039l-0.022-0.024c-1.363-1.459-3.571-1.676-5.079-0.267
			c-1.509,1.409-1.441,3.579-0.078,5.038L205.699,215.764z"/>
	</g>
</g>
<g>
</g>
<g>
</g>
<g>
</g>
<g>
</g>
<g>
</g>
<g>
</g>
</svg>
