<?xml version="1.0" standalone="no"?>
<!DOCTYPE svg PUBLIC "-//W3C//DTD SVG 20010904//EN"
 "http://www.w3.org/TR/2001/REC-SVG-20010904/DTD/svg10.dtd">
<svg version="1.0" xmlns="http://www.w3.org/2000/svg"
 width="700.000000pt" height="700.000000pt" viewBox="0 0 700.000000 700.000000"
 preserveAspectRatio="xMidYMid meet">
<metadata>
Created by potrace 1.11, written by Peter Selinger 2001-2013
</metadata>
<g transform="translate(0.000000,700.000000) scale(0.100000,-0.100000)"
fill="#000000" stroke="none">
<path d="M3300 6959 c-1030 -58 -1971 -569 -2592 -1406 -365 -492 -594 -1090
-659 -1723 -27 -264 -10 -665 41 -945 87 -480 281 -951 558 -1350 168 -243
454 -551 677 -729 513 -409 1092 -655 1750 -743 187 -25 668 -24 850 1 991
137 1822 633 2393 1428 332 464 536 986 618 1583 25 182 26 665 1 849 -90 667
-332 1237 -746 1756 -164 205 -450 476 -667 632 -647 464 -1433 693 -2224 647z
m570 -334 c1299 -152 2372 -1099 2685 -2368 212 -862 51 -1770 -444 -2506
-166 -246 -416 -519 -636 -695 -260 -208 -571 -385 -874 -497 -241 -90 -654
-186 -686 -159 -13 11 -15 50 -15 257 l0 244 31 45 c45 65 59 107 59 171 0
147 -73 174 -425 163 -195 -6 -202 -7 -258 -35 -45 -23 -61 -27 -75 -19 -37
24 -26 50 49 114 39 34 81 66 94 72 16 7 55 6 139 -7 129 -18 198 -13 228 17
49 49 -3 78 -201 111 l-144 24 -126 -29 c-139 -32 -163 -44 -191 -91 -36 -59
-20 -230 31 -330 32 -62 57 -92 105 -127 l44 -31 0 -273 c0 -198 -3 -275 -12
-284 -18 -18 -102 -14 -261 12 -328 56 -592 142 -889 291 -1239 620 -1922
1966 -1692 3335 205 1221 1122 2215 2324 2520 188 48 377 77 605 94 93 7 410
-4 535 -19z"/>
<path d="M3245 6564 c-603 -61 -1121 -260 -1580 -604 -459 -345 -798 -786
-1010 -1315 -166 -413 -234 -828 -213 -1302 39 -901 489 -1744 1225 -2297 441
-331 919 -521 1481 -589 l32 -4 0 220 0 220 -55 58 c-66 69 -119 173 -136 268
-12 68 -12 69 -48 75 -79 13 -72 21 -182 -181 -118 -217 -165 -272 -250 -297
-65 -20 -102 -20 -163 -2 -98 30 -155 103 -156 199 0 50 104 576 167 842 39
168 65 223 124 262 21 14 39 31 39 38 0 6 12 22 26 36 25 24 29 24 235 27 164
2 216 0 238 -11 26 -13 28 -12 44 14 32 57 125 86 191 60 14 -5 28 2 55 32 56
60 137 64 200 11 31 -26 31 -26 76 -9 56 22 104 14 148 -25 26 -23 36 -26 51
-18 63 35 132 24 188 -28 l26 -26 222 -1 222 -2 17 -24 c9 -14 34 -43 57 -65
93 -93 86 -70 230 -782 63 -315 67 -343 56 -382 -50 -165 -278 -215 -404 -88
-28 28 -76 105 -142 227 -54 101 -102 188 -106 192 -7 8 -120 -11 -120 -20 0
-2 8 -20 19 -41 44 -87 32 -194 -35 -306 l-34 -58 2 -197 3 -198 124 23 c521
95 1048 362 1456 737 586 539 924 1220 996 2007 16 182 7 534 -20 705 -81 529
-268 978 -585 1403 -138 186 -406 456 -584 590 -432 328 -886 519 -1427 604
-101 15 -190 21 -395 23 -146 2 -283 1 -305 -1z m599 -100 c345 -38 660 -132
976 -290 311 -156 532 -315 776 -558 183 -183 256 -272 390 -471 244 -366 401
-781 471 -1250 25 -171 25 -619 0 -790 -83 -555 -281 -1020 -620 -1454 -98
-125 -309 -341 -427 -437 -92 -75 -172 -135 -176 -131 -6 7 -304 500 -304 503
0 2 24 2 53 -2 69 -8 85 6 100 81 l12 60 62 5 c34 3 68 11 74 17 7 7 15 45 18
85 7 80 12 85 92 87 59 2 78 25 81 100 l3 64 60 16 60 16 0 75 c0 41 3 80 7
86 4 6 28 17 54 24 60 17 79 45 65 97 -20 71 -16 81 43 107 32 14 56 32 58 43
2 10 -4 42 -14 72 -10 30 -18 61 -18 70 0 9 23 30 52 46 28 17 56 38 62 47 11
18 10 19 -27 111 -11 26 -10 30 18 50 82 59 87 76 39 147 -13 19 -24 42 -24
51 0 8 20 34 45 56 54 48 57 75 15 123 -16 19 -29 41 -30 49 0 7 16 31 35 52
46 52 46 84 -1 130 -58 56 -59 61 -14 120 22 30 40 63 40 74 0 12 -18 39 -40
60 -22 21 -40 45 -40 52 0 7 12 35 27 61 15 28 24 55 20 65 -3 9 -29 33 -57
53 -27 20 -50 40 -50 45 0 5 12 33 26 61 32 64 27 91 -24 117 -61 31 -64 40
-43 100 10 30 16 61 14 71 -3 10 -33 32 -69 49 -71 34 -72 36 -48 117 19 67 9
89 -49 105 -65 17 -69 24 -62 94 8 73 -3 90 -67 100 -76 13 -80 18 -73 89 8
76 -3 92 -73 102 -64 9 -72 18 -72 77 0 71 -17 87 -94 87 -34 0 -66 4 -72 8
-7 4 -17 38 -22 76 -6 38 -17 73 -24 78 -7 4 -41 8 -75 8 -50 0 -63 3 -67 18
-3 9 -10 36 -16 59 -14 56 -35 67 -107 53 -68 -12 -73 -8 -98 68 -19 60 -42
72 -105 53 -58 -17 -64 -15 -93 44 -15 31 -34 58 -43 62 -9 3 -45 -4 -80 -16
-34 -13 -67 -20 -73 -17 -5 3 -23 31 -40 61 -27 48 -35 55 -61 55 -17 0 -50
-10 -72 -21 l-42 -21 -46 51 c-25 28 -53 51 -62 51 -10 0 -40 -13 -66 -30 -27
-16 -52 -30 -55 -30 -3 0 -28 23 -55 50 -27 28 -54 50 -60 50 -5 0 -33 -16
-61 -35 -28 -19 -53 -35 -55 -35 -3 0 -26 18 -51 40 -25 22 -52 40 -60 40 -7
0 -37 -20 -66 -45 -29 -25 -58 -45 -64 -45 -7 0 -33 16 -60 36 -63 49 -88 47
-136 -7 l-38 -44 -50 28 c-73 39 -90 36 -134 -23 -21 -27 -44 -50 -53 -50 -8
0 -32 9 -54 20 -69 35 -97 25 -134 -47 -19 -38 -30 -39 -95 -16 -26 9 -55 13
-65 10 -9 -4 -28 -31 -42 -61 -35 -76 -39 -78 -112 -58 -76 20 -90 14 -115
-54 -10 -27 -22 -52 -26 -57 -4 -4 -31 -3 -60 3 -67 13 -87 2 -101 -53 -22
-87 -22 -87 -99 -87 -43 0 -72 -5 -79 -13 -6 -7 -14 -36 -18 -65 -8 -62 -21
-72 -93 -72 -61 0 -71 -13 -71 -98 0 -36 -5 -64 -12 -69 -7 -6 -37 -13 -67
-17 -86 -11 -91 -17 -91 -91 0 -71 -5 -78 -72 -90 -20 -4 -44 -15 -54 -26 -15
-16 -15 -26 -6 -74 6 -30 9 -62 6 -70 -3 -7 -29 -21 -57 -31 -79 -25 -83 -32
-69 -104 7 -33 10 -65 7 -70 -3 -5 -25 -18 -48 -28 -71 -31 -75 -42 -47 -125
23 -67 23 -71 6 -81 -95 -57 -106 -66 -106 -91 0 -14 9 -43 20 -65 11 -22 20
-44 20 -49 0 -5 -20 -24 -45 -42 -61 -44 -65 -67 -26 -130 17 -28 31 -54 31
-59 0 -4 -18 -24 -39 -43 -67 -60 -69 -71 -26 -133 l38 -54 -42 -50 c-22 -27
-41 -56 -41 -65 0 -9 20 -38 45 -64 25 -26 45 -54 45 -62 0 -8 -13 -30 -28
-49 -62 -76 -62 -88 2 -149 20 -19 36 -40 36 -46 0 -6 -12 -27 -26 -48 -36
-54 -30 -84 28 -127 53 -39 59 -59 28 -105 -11 -16 -20 -44 -20 -62 0 -27 7
-36 50 -62 55 -34 59 -47 34 -106 -24 -57 -14 -76 61 -113 51 -25 65 -36 61
-50 -36 -126 -33 -144 31 -168 70 -25 75 -32 64 -88 -15 -80 -9 -87 97 -115
l42 -12 0 -68 c0 -80 12 -95 80 -104 54 -7 70 -26 70 -88 0 -59 15 -72 93 -77
34 -2 67 -8 73 -13 6 -5 14 -36 18 -69 9 -76 23 -90 92 -90 30 0 54 -2 54 -5
0 -4 -285 -479 -296 -494 -3 -4 -54 33 -154 114 -505 404 -879 1010 -1024
1658 -151 672 -60 1387 254 2002 391 766 1098 1331 1932 1541 347 87 700 110
1072 68z m368 -1420 c75 -24 132 -74 170 -151 29 -59 33 -77 32 -143 0 -54 -6
-88 -21 -121 -108 -241 -460 -253 -580 -20 -29 55 -33 72 -33 139 0 64 5 87
28 137 71 149 232 212 404 159z m-1365 4 c10 -13 253 -582 253 -593 0 -3 -30
-5 -67 -3 -66 3 -68 4 -85 37 -10 19 -22 48 -27 63 l-10 28 -129 0 -129 0 -24
-62 -25 -63 -67 -3 c-39 -2 -67 1 -67 7 0 8 49 126 237 569 13 31 15 32 72 32
35 0 62 -5 68 -12z m-725 -235 l3 -238 148 -3 147 -3 0 -59 0 -60 -215 0 -215
0 0 300 0 300 65 0 65 0 2 -237z m1457 217 c74 -37 104 -106 82 -180 -6 -22
-23 -48 -38 -60 -14 -11 -24 -22 -22 -23 2 -2 17 -11 32 -21 41 -25 67 -74 67
-124 0 -64 -25 -108 -79 -140 -45 -26 -50 -27 -238 -30 l-193 -4 0 301 0 301
175 0 c155 0 180 -2 214 -20z m1346 1 c70 -32 105 -93 105 -181 0 -77 -33
-133 -106 -176 -17 -10 -12 -20 54 -117 l73 -107 -74 0 c-43 0 -80 5 -89 13
-8 6 -39 49 -68 95 l-52 82 -54 0 -54 0 0 -95 0 -95 -65 0 -65 0 0 300 0 300
178 0 c150 0 183 -3 217 -19z m-2968 -930 c28 -13 61 -33 73 -46 l22 -23 -42
-46 -42 -45 -54 31 c-49 27 -62 30 -116 26 -56 -4 -64 -8 -99 -45 -91 -98 -71
-244 41 -300 60 -31 101 -29 172 9 l59 31 42 -42 42 -42 -40 -35 c-74 -65
-233 -88 -328 -46 -61 27 -123 86 -155 146 -23 44 -27 63 -27 141 0 75 4 98
24 139 41 84 115 144 206 167 53 14 166 4 222 -20z m3375 18 c56 -12 102 -32
130 -56 16 -14 15 -18 -13 -59 -16 -24 -36 -44 -43 -44 -7 0 -35 10 -62 22
-53 23 -126 27 -149 8 -19 -15 -19 -54 -2 -68 7 -6 55 -25 107 -42 123 -40
158 -63 182 -118 40 -90 4 -183 -87 -228 -48 -23 -64 -26 -137 -22 -85 4 -163
30 -216 74 l-23 19 38 45 38 46 63 -33 c100 -52 202 -41 202 22 0 30 -20 41
-152 84 -76 25 -104 40 -127 66 -68 78 -41 213 52 262 68 35 114 40 199 22z
m-2777 -29 c57 -28 90 -72 100 -130 14 -86 -18 -164 -86 -208 l-36 -24 68
-100 c38 -56 66 -105 63 -109 -6 -11 -125 -12 -140 -1 -6 4 -39 49 -73 100
l-62 92 -49 0 -50 0 0 -95 0 -95 -70 0 -70 0 0 293 c0 162 3 297 8 301 4 4 84
6 177 4 158 -3 174 -5 220 -28z m673 -32 l3 -58 -160 0 c-97 0 -161 -4 -163
-10 -1 -5 -1 -32 0 -60 l4 -50 139 0 139 0 0 -60 0 -60 -140 0 -140 0 0 -60 0
-60 160 0 160 0 0 -60 0 -60 -230 0 -230 0 0 300 0 300 228 -2 227 -3 3 -57z
m549 -183 c57 -132 114 -266 128 -297 l24 -58 -70 0 -70 0 -29 65 -29 65 -124
0 -125 0 -22 -57 c-30 -75 -42 -85 -110 -81 -43 2 -54 6 -52 18 2 8 58 145
125 303 l122 288 65 -3 65 -3 102 -240z m613 180 l0 -65 -90 0 -90 0 0 -235 0
-235 -65 0 -65 0 0 235 0 234 -92 3 -93 3 -3 49 c-2 27 -1 55 2 62 4 11 52 14
251 14 l245 0 0 -65z m550 5 l0 -60 -155 0 -155 0 0 -60 0 -60 140 0 140 0 0
-60 0 -60 -140 0 -140 0 0 -60 0 -60 160 0 160 0 0 -60 0 -60 -230 0 -230 0 0
300 0 300 225 0 225 0 0 -60z m-2621 -870 c61 -10 114 -32 155 -63 19 -14 19
-16 -19 -66 -22 -28 -39 -51 -40 -51 0 0 -27 14 -59 30 -69 35 -114 38 -173 9
-112 -54 -135 -210 -44 -300 57 -58 129 -70 214 -37 24 9 27 16 27 54 l0 44
-65 0 -66 0 3 58 3 57 130 0 130 0 3 -119 c3 -143 -1 -151 -95 -198 -62 -30
-75 -33 -163 -33 -84 0 -102 3 -152 28 -98 48 -156 137 -166 253 -12 159 102
308 255 334 26 4 50 8 53 9 3 0 34 -4 69 -9z m648 -12 c10 -13 253 -582 253
-592 0 -4 -31 -6 -69 -6 l-69 0 -22 58 c-13 31 -30 63 -38 70 -17 13 -218 17
-239 4 -6 -4 -22 -34 -35 -67 l-24 -60 -67 -3 c-40 -2 -67 1 -67 7 0 9 201
488 241 574 11 25 17 27 69 27 34 0 62 -5 67 -12z m941 -295 l2 -303 -65 0
-65 0 -2 192 -3 191 -80 -121 c-44 -67 -83 -121 -88 -119 -4 1 -43 56 -87 122
l-80 120 0 -192 0 -193 -65 0 -65 0 0 300 0 300 74 0 73 0 74 -120 c40 -66 76
-120 79 -120 3 0 38 54 79 120 40 65 78 121 85 124 6 3 38 4 71 3 l60 -2 3
-302z m1024 290 c24 -9 58 -25 75 -36 l33 -19 -32 -46 c-17 -26 -33 -49 -34
-51 -2 -2 -30 8 -63 23 -95 42 -171 32 -171 -24 0 -35 12 -42 151 -86 129 -41
178 -104 162 -207 -19 -125 -176 -190 -331 -138 -60 21 -142 67 -142 80 0 3
17 25 38 49 l37 43 55 -30 c69 -37 118 -46 164 -31 25 8 38 19 43 37 9 37 -18
56 -136 92 -109 34 -147 58 -167 107 -41 97 9 206 111 242 48 17 159 14 207
-5z m-432 -53 l0 -60 -160 0 -160 0 0 -55 0 -55 140 0 140 0 0 -65 0 -65 -140
0 -141 0 3 -57 3 -58 163 -3 162 -2 0 -60 0 -60 -230 0 -230 0 0 300 0 300
225 0 225 0 0 -60z"/>
<path d="M3322 6318 c-5 -7 -19 -32 -31 -55 -12 -24 -23 -43 -25 -43 -1 0 -17
20 -35 45 -28 39 -37 45 -68 45 -31 0 -35 -2 -30 -22 3 -13 9 -69 13 -126 l7
-103 26 3 c26 3 26 4 23 78 l-3 75 39 -45 40 -44 28 54 28 55 9 -77 c9 -78 10
-78 39 -78 23 0 28 4 24 18 -2 9 -8 65 -12 125 l-6 107 -28 0 c-15 0 -32 -6
-38 -12z"/>
<path d="M3587 6248 c-4 -46 -7 -102 -7 -124 0 -38 2 -42 31 -48 17 -3 60 -6
95 -6 62 0 64 1 64 25 0 24 -2 25 -65 25 l-65 0 0 29 0 29 60 -5 c60 -6 60 -6
60 21 0 22 -4 26 -29 26 -16 0 -43 3 -60 6 -25 5 -31 11 -29 28 3 19 8 21 71
18 65 -4 67 -3 67 21 0 21 -6 25 -46 31 -26 3 -68 6 -94 6 l-47 0 -6 -82z"/>
<path d="M2792 6233 c-12 -22 -47 -252 -40 -259 12 -11 40 11 53 42 11 26 21
34 52 40 49 10 64 7 81 -17 12 -18 43 -19 61 -3 2 2 -32 51 -75 109 -59 79
-84 105 -101 105 -12 0 -26 -8 -31 -17z m67 -84 c19 -25 21 -33 10 -40 -31
-19 -49 -10 -49 24 0 28 6 47 15 47 1 0 12 -14 24 -31z"/>
<path d="M4231 6121 c-17 -58 -31 -114 -31 -123 0 -14 36 -36 45 -26 4 5 65
223 65 235 0 6 -11 13 -24 15 -22 5 -26 -1 -55 -101z"/>
<path d="M3962 6198 c-7 -7 -12 -24 -12 -38 0 -14 5 -31 12 -38 7 -7 24 -12
38 -12 14 0 31 5 38 12 7 7 12 24 12 38 0 14 -5 31 -12 38 -7 7 -24 12 -38 12
-14 0 -31 -5 -38 -12z"/>
<path d="M4491 6128 c-5 -13 -25 -61 -45 -108 -37 -87 -43 -110 -27 -110 5 0
16 -2 23 -5 10 -4 23 15 43 65 15 38 29 69 31 67 1 -1 12 -40 24 -87 21 -81
53 -132 70 -113 4 4 28 57 54 118 34 81 42 111 33 117 -16 10 -47 10 -47 -1 0
-5 -12 -35 -26 -67 l-27 -59 -23 90 c-27 106 -63 146 -83 93z"/>
<path d="M2393 6110 c-80 -48 -83 -159 -7 -219 47 -37 133 -25 179 25 30 32
31 50 8 101 -10 21 -18 39 -18 40 -1 2 -24 -7 -52 -19 -47 -20 -50 -23 -41
-44 9 -18 15 -21 29 -14 27 15 39 12 39 -9 0 -24 -36 -51 -68 -51 -35 0 -72
43 -72 84 0 50 21 67 95 78 12 2 21 12 23 26 3 20 -1 22 -40 22 -25 0 -56 -8
-75 -20z"/>
<path d="M4828 5860 l-67 -109 63 -36 c72 -40 116 -44 164 -15 66 40 78 131
24 185 -24 24 -106 85 -114 85 -2 0 -33 -49 -70 -110z m156 -24 c29 -77 -59
-133 -128 -83 -19 14 -18 16 19 80 l39 67 30 -20 c17 -10 35 -30 40 -44z"/>
<path d="M2097 5872 c-32 -36 -10 -84 38 -84 48 0 72 54 39 86 -21 21 -57 20
-77 -2z"/>
<path d="M1780 5753 c-73 -38 -100 -124 -60 -190 68 -112 243 -60 243 73 0 97
-99 160 -183 117z m109 -69 c37 -47 24 -102 -28 -123 -50 -21 -111 25 -111 83
0 7 9 25 21 40 16 20 29 26 59 26 30 0 43 -6 59 -26z"/>
<path d="M5195 5669 c-65 -79 -78 -104 -70 -139 7 -33 63 -87 99 -96 35 -9 74
16 138 89 l57 65 -20 18 c-21 19 -22 18 -83 -49 -65 -72 -90 -82 -121 -47 -24
27 -15 54 44 125 46 56 48 61 34 77 -9 10 -19 18 -22 18 -3 0 -28 -27 -56 -61z"/>
<path d="M1441 5451 l-61 -69 93 -85 93 -85 63 70 c55 60 62 72 50 84 -13 12
-22 8 -66 -31 -48 -42 -51 -43 -67 -27 -15 17 -13 21 24 57 37 36 39 40 23 57
-15 17 -18 16 -63 -22 -41 -34 -49 -38 -60 -25 -14 17 -10 24 44 82 24 27 27
35 16 48 -7 8 -16 15 -20 15 -4 0 -35 -31 -69 -69z"/>
<path d="M5507 5410 c-31 -24 -36 -69 -12 -110 8 -14 14 -35 15 -47 0 -45 -47
-17 -69 40 -13 32 -51 38 -51 8 0 -90 105 -156 160 -101 24 24 25 48 5 97 -8
19 -15 44 -15 55 0 30 33 18 50 -19 10 -22 22 -33 38 -33 34 0 29 43 -10 85
-43 45 -76 52 -111 25z"/>
<path d="M1224 5171 c-28 -17 -111 -118 -103 -125 2 -1 29 -20 59 -41 30 -21
76 -54 101 -72 l46 -33 38 57 c20 31 40 73 42 93 14 99 -98 173 -183 121z
m114 -67 c28 -32 28 -66 -1 -100 l-23 -27 -64 46 -63 46 37 37 c30 30 41 35
64 30 15 -4 37 -18 50 -32z"/>
<path d="M5752 5168 c-8 -8 -6 -18 10 -40 23 -34 28 -28 -79 -99 -35 -23 -63
-44 -63 -48 0 -4 6 -16 14 -26 13 -18 18 -16 96 38 l83 56 20 -27 c12 -15 22
-29 23 -31 2 -1 12 3 23 11 20 14 19 16 -35 96 -56 82 -70 92 -92 70z"/>
<path d="M1003 4857 c-10 -22 -6 -26 100 -85 111 -61 112 -61 123 -39 7 12 10
25 8 29 -4 7 -208 118 -216 118 -3 0 -10 -10 -15 -23z"/>
<path d="M5883 4802 c-62 -31 -113 -60 -113 -63 0 -3 6 -13 13 -23 13 -17 15
-18 47 -1 27 14 34 14 41 3 13 -20 11 -34 -12 -73 -20 -34 -21 -39 -7 -68 l15
-32 24 48 c17 35 27 46 39 41 41 -18 67 -15 98 11 41 34 41 60 -1 147 l-32 67
-112 -57z m113 -58 c12 -28 12 -39 3 -50 -19 -24 -48 -16 -69 19 -25 40 -25
42 3 55 37 18 47 14 63 -24z"/>
<path d="M901 4653 c-12 -26 -10 -29 56 -89 l68 -63 -92 -1 c-83 0 -93 -2
-103 -21 -7 -11 -10 -22 -8 -24 2 -1 57 -6 123 -10 110 -6 122 -5 144 12 30
25 29 27 -85 136 l-91 87 -12 -27z"/>
<path d="M6095 4455 c-40 -51 -60 -69 -100 -84 -38 -15 -49 -24 -47 -38 6 -31
16 -34 64 -18 43 15 51 15 128 -5 45 -12 84 -19 86 -17 3 2 0 16 -5 30 -8 20
-21 28 -65 38 -31 7 -56 14 -56 17 0 2 16 22 35 44 27 30 34 45 29 61 -12 40
-19 37 -69 -28z"/>
<path d="M838 4229 c-47 -28 3 -115 51 -89 32 16 42 42 28 71 -14 26 -51 35
-79 18z"/>
<path d="M6122 4078 c-7 -7 -12 -24 -12 -38 0 -14 5 -31 12 -38 7 -7 24 -12
38 -12 14 0 31 5 38 12 7 7 12 24 12 38 0 14 -5 31 -12 38 -7 7 -24 12 -38 12
-14 0 -31 -5 -38 -12z"/>
<path d="M681 3889 c-6 -51 -10 -93 -9 -95 6 -6 240 -35 245 -30 3 2 11 46 17
96 l13 91 -26 -3 c-24 -3 -27 -8 -34 -66 -8 -57 -11 -63 -30 -60 -20 3 -22 8
-19 66 3 60 2 62 -22 62 -22 0 -25 -5 -31 -52 -9 -65 -10 -67 -36 -61 -19 5
-20 10 -14 74 7 68 7 69 -17 69 -23 0 -25 -5 -37 -91z"/>
<path d="M6193 3763 c-100 -39 -113 -47 -113 -68 0 -21 9 -27 69 -45 37 -11
73 -20 80 -20 30 0 4 -18 -64 -44 -65 -25 -75 -32 -75 -53 0 -27 -3 -26 146
-68 l114 -32 0 28 c0 25 -5 30 -42 39 -24 6 -63 17 -88 24 l-45 12 80 31 c69
26 80 34 83 56 3 23 -2 27 -40 37 -88 23 -117 33 -114 39 2 3 36 17 75 31 65
22 71 27 71 52 0 16 -5 28 -12 27 -7 0 -64 -21 -125 -46z"/>
<path d="M654 3587 c-3 -8 -4 -54 -2 -103 3 -84 4 -89 26 -92 21 -3 22 0 22
62 0 36 3 66 6 66 3 0 40 -29 82 -65 50 -43 84 -65 97 -63 18 3 20 11 23 106
l3 102 -26 0 c-24 0 -25 -2 -25 -65 0 -36 -3 -65 -6 -65 -3 0 -40 29 -82 65
-74 64 -108 78 -118 52z"/>
<path d="M6153 3269 c-103 -30 -118 -195 -22 -245 15 -7 45 -14 66 -14 119 0
174 157 82 234 -17 14 -36 26 -42 26 -7 0 -21 2 -32 4 -11 3 -34 0 -52 -5z
m98 -78 c16 -16 29 -39 29 -51 0 -30 -53 -80 -85 -80 -32 0 -85 50 -85 80 0
30 53 80 85 80 16 0 38 -12 56 -29z"/>
<path d="M758 3217 l-88 -9 0 -30 c0 -30 1 -30 43 -24 23 3 71 8 107 11 104
10 108 11 102 40 -5 29 -13 29 -164 12z"/>
<path d="M802 2982 c-94 -24 -102 -27 -96 -46 9 -30 8 -30 75 -17 33 7 63 11
65 9 1 -2 -21 -35 -51 -72 -56 -70 -61 -81 -47 -104 7 -10 34 -7 130 15 120
27 121 27 115 52 -3 14 -6 27 -7 28 -1 1 -31 -4 -66 -13 -35 -8 -67 -13 -72
-12 -5 2 16 33 47 70 35 43 55 75 55 92 0 32 -9 32 -148 -2z"/>
<path d="M6016 2862 c-3 -3 -6 -15 -6 -28 0 -17 7 -24 30 -29 56 -12 49 -47
-13 -68 -28 -9 -46 -23 -55 -41 -8 -15 -12 -29 -9 -32 2 -2 23 3 47 11 44 15
60 13 60 -9 0 -44 91 -66 130 -31 16 14 60 130 60 158 0 5 -26 14 -177 57 -34
10 -64 16 -67 12z m153 -93 c17 -6 31 -13 31 -15 0 -2 -7 -22 -16 -44 -28 -69
-82 -46 -69 30 7 44 8 45 54 29z"/>
<path d="M941 2556 c-80 -80 -93 -98 -88 -119 7 -24 9 -24 143 -31 75 -4 138
-5 141 -2 10 9 -19 46 -36 46 -27 0 -57 30 -69 67 -9 27 -7 36 9 57 22 28 23
36 6 59 -11 16 -22 7 -106 -77z m53 -62 c11 -29 6 -34 -31 -34 l-36 0 23 25
c27 29 36 31 44 9z"/>
<path d="M5897 2503 c-17 -16 -4 -41 28 -56 57 -27 47 -52 -25 -66 -51 -10
-62 -17 -75 -42 -18 -34 -18 -34 80 -12 45 10 79 13 84 7 4 -5 18 -36 31 -68
l24 -60 13 32 c12 29 11 38 -13 93 -14 34 -23 63 -21 66 3 2 19 -3 36 -11 40
-21 58 -20 66 5 4 11 5 22 3 24 -8 7 -206 95 -215 95 -5 0 -13 -3 -16 -7z"/>
<path d="M1130 2233 c-25 -14 -47 -27 -48 -29 -6 -4 49 -94 56 -94 4 0 13 4
21 9 12 8 13 14 3 36 -16 34 -16 35 12 35 29 0 44 -17 52 -58 5 -26 1 -36 -24
-62 -18 -18 -41 -30 -57 -30 -36 0 -75 41 -75 80 0 25 -4 30 -24 30 -13 0 -26
-6 -29 -12 -9 -29 14 -85 47 -115 29 -27 44 -33 81 -33 85 0 135 47 135 128 0
46 -32 98 -75 124 -30 17 -31 17 -75 -9z"/>
<path d="M5691 2104 c-38 -59 -48 -81 -39 -91 19 -23 33 -14 66 42 29 48 36
54 53 45 25 -14 24 -28 -7 -74 -24 -36 -25 -39 -9 -55 15 -15 18 -14 41 14 13
17 27 38 30 48 7 21 27 22 43 3 9 -11 5 -25 -23 -68 -34 -53 -34 -55 -14 -67
11 -7 24 -9 28 -4 15 17 90 143 90 150 0 7 -177 122 -201 131 -5 2 -31 -31
-58 -74z"/>
<path d="M1391 1901 c-12 -49 -12 -49 -49 -44 -30 4 -42 0 -64 -21 -43 -39
-38 -78 18 -149 25 -32 50 -57 55 -55 14 5 188 142 189 149 0 3 -6 14 -14 25
-14 19 -15 19 -46 -5 -29 -21 -34 -22 -47 -8 -13 12 -13 21 -4 48 16 46 14 73
-7 92 -17 16 -19 14 -31 -32z m-10 -123 l30 -33 -28 -22 c-15 -13 -30 -23 -33
-23 -6 0 -50 64 -50 72 0 10 30 38 41 38 6 0 24 -15 40 -32z"/>
<path d="M5526 1871 c-16 -18 -16 -20 15 -44 29 -23 31 -27 19 -42 -11 -13
-25 -16 -62 -13 -39 4 -51 1 -68 -17 -19 -20 -19 -23 -5 -29 9 -3 32 -6 51 -6
31 0 34 -3 34 -29 0 -59 66 -105 114 -79 35 19 120 118 110 127 -49 43 -182
151 -186 151 -3 0 -13 -8 -22 -19z m118 -178 c-24 -32 -49 -40 -69 -23 -21 18
-19 34 12 70 l26 32 26 -26 25 -26 -20 -27z"/>
<path d="M1600 1597 c-92 -47 -89 -185 7 -232 68 -33 151 -5 179 60 18 44 18
69 -2 111 -30 63 -120 93 -184 61z m117 -59 c35 -37 34 -78 -2 -113 -32 -33
-74 -33 -105 0 -47 50 -10 135 59 135 16 0 36 -10 48 -22z"/>
<path d="M5285 1594 c-79 -26 -112 -108 -63 -154 27 -25 44 -25 103 0 26 11
51 18 56 14 19 -12 7 -35 -26 -51 -39 -18 -51 -63 -17 -63 29 0 80 37 97 71
20 38 7 79 -31 99 -21 12 -32 11 -79 -9 -30 -12 -59 -20 -65 -16 -22 13 -8 36
35 57 28 14 45 29 45 39 0 26 -11 29 -55 13z"/>
<path d="M4025 4926 c-37 -17 -80 -62 -94 -99 -6 -16 -11 -49 -11 -75 1 -163
175 -246 294 -141 70 61 82 157 31 246 -42 71 -144 103 -220 69z"/>
<path d="M2777 4884 c-10 -17 -67 -164 -67 -174 0 -12 137 -14 143 -2 7 11
-69 186 -76 176z"/>
<path d="M3320 4875 l0 -67 91 4 c76 2 93 6 105 22 18 25 18 70 1 84 -7 6 -54
14 -105 18 l-92 7 0 -68z"/>
<path d="M3320 4636 l0 -66 105 0 c92 0 108 3 125 20 25 25 25 51 1 81 -18 22
-28 24 -125 27 l-106 4 0 -66z"/>
<path d="M4660 4844 l0 -86 96 4 c86 3 98 5 115 27 29 36 25 94 -7 120 -23 18
-41 21 -115 21 l-89 0 0 -86z"/>
<path d="M2297 3993 c-4 -3 -7 -42 -7 -85 l0 -78 90 0 c83 0 93 2 115 25 44
43 30 114 -26 134 -35 12 -161 15 -172 4z"/>
<path d="M3569 3869 c-19 -46 -35 -87 -37 -91 -2 -4 30 -8 72 -8 42 0 76 4 76
9 0 13 -60 155 -69 164 -5 5 -23 -29 -42 -74z"/>
<path d="M2897 3014 c-13 -22 -67 -167 -64 -171 3 -2 36 -3 74 -1 l70 3 -37
89 c-20 49 -40 85 -43 80z"/>
<path d="M3361 2254 c-19 -25 -21 -40 -21 -190 0 -89 4 -174 10 -188 12 -32
50 -51 85 -42 47 12 57 57 53 241 -3 144 -5 165 -22 184 -28 31 -79 28 -105
-5z"/>
<path d="M3605 2238 c-11 -6 -23 -16 -27 -22 -4 -6 -8 -71 -8 -143 0 -120 2
-135 20 -153 27 -27 66 -25 95 5 24 23 25 30 25 150 0 120 -1 127 -25 150 -26
27 -49 31 -80 13z"/>
<path d="M3140 2190 c-18 -18 -20 -33 -20 -133 0 -106 2 -115 23 -135 29 -27
71 -28 97 -2 18 18 20 33 20 133 0 132 -10 157 -66 157 -21 0 -42 -8 -54 -20z"/>
<path d="M3806 2188 c-31 -43 -18 -186 18 -210 21 -14 66 -8 86 12 17 17 20
33 20 98 0 97 -14 122 -70 122 -29 0 -43 -6 -54 -22z"/>
<path d="M2597 2133 c-4 -3 -7 -15 -7 -25 0 -10 -17 -28 -37 -42 -47 -29 -68
-53 -83 -91 -6 -17 -49 -210 -96 -430 -46 -220 -89 -419 -94 -442 -6 -23 -10
-64 -10 -92 0 -41 5 -54 29 -79 37 -36 105 -56 160 -47 79 13 107 45 229 266
63 112 122 213 133 223 17 18 23 19 80 8 69 -13 79 -10 79 19 0 30 34 90 72
126 38 37 70 49 226 88 l112 27 152 -26 c193 -34 223 -43 264 -82 39 -36 45
-83 18 -135 -8 -17 -13 -34 -9 -37 15 -15 230 -6 286 12 31 10 65 16 75 14 12
-2 56 -73 130 -212 62 -115 128 -224 146 -242 85 -84 238 -59 269 44 9 32 4
73 -41 302 -71 367 -138 667 -160 716 -12 28 -31 49 -58 64 -25 14 -45 34 -51
52 l-10 28 -179 0 c-208 0 -212 -2 -212 -86 0 -95 -62 -164 -147 -164 -24 0
-53 5 -64 10 -16 9 -24 6 -45 -20 -47 -55 -108 -73 -169 -50 -22 8 -30 5 -64
-29 -65 -65 -160 -64 -220 4 -27 31 -33 34 -56 25 -68 -26 -146 2 -182 66 -18
30 -23 55 -23 112 0 69 -2 74 -32 102 l-33 29 -186 1 c-102 0 -189 -3 -192 -7z
m290 -129 c179 -86 223 -336 84 -474 -124 -123 -306 -126 -426 -5 -164 163
-90 439 135 502 61 17 143 8 207 -23z m1459 -17 c71 -65 49 -175 -40 -205 -49
-16 -91 -3 -132 39 -23 24 -29 39 -29 74 0 110 121 165 201 92z m108 -221 c97
-40 103 -177 10 -221 -41 -19 -68 -19 -110 1 -42 20 -64 59 -64 111 0 45 20
77 64 104 37 23 56 24 100 5z m-263 -19 c64 -43 72 -132 17 -187 -81 -81 -216
-16 -205 98 10 95 110 142 188 89z"/>
<path d="M2659 1930 c-41 -21 -96 -80 -110 -117 -14 -39 -11 -131 7 -166 41
-81 113 -127 199 -127 122 0 215 93 215 215 0 86 -59 176 -133 204 -45 17
-137 13 -178 -9z m126 -40 c3 -5 9 -32 12 -60 l6 -50 39 0 c52 0 78 -15 78
-46 0 -28 -31 -44 -86 -44 -33 0 -34 -1 -34 -41 0 -52 -15 -79 -43 -79 -35 0
-47 19 -47 72 l0 48 -41 0 c-53 0 -79 15 -79 45 0 30 26 45 79 45 l41 0 0 41
c0 22 5 49 10 60 11 20 54 26 65 9z"/>
<path d="M4244 1933 c-34 -25 -15 -77 26 -71 31 4 48 32 34 56 -12 19 -43 26
-60 15z"/>
<path d="M4386 1687 c-22 -16 -18 -55 7 -71 39 -24 79 44 41 71 -10 7 -21 13
-24 13 -3 0 -14 -6 -24 -13z"/>
<path d="M4095 1677 c-39 -29 6 -89 49 -65 29 16 14 78 -19 78 -6 0 -19 -6
-30 -13z"/>
</g>
</svg>
