<?xml version="1.0" encoding="utf-8"?>
<!-- Generator: Adobe Illustrator 16.0.0, SVG Export Plug-In . SVG Version: 6.00 Build 0)  -->
<!DOCTYPE svg PUBLIC "-//W3C//DTD SVG 1.1//EN" "http://www.w3.org/Graphics/SVG/1.1/DTD/svg11.dtd">
<svg version="1.1" id="Layer_1" xmlns="http://www.w3.org/2000/svg" xmlns:xlink="http://www.w3.org/1999/xlink" x="0px" y="0px"
	 width="1792px" height="1408px" viewBox="0 256 1792 1408" enable-background="new 0 256 1792 1408" xml:space="preserve" fill="#fff">
<path d="M1792,710v794c0,88-72,160-160,160H160c-88,0-160-72-160-160V710c30,33,64,62,101,87c166,113,334,226,497,345
	c84,62,188,138,297,138h2c109,0,213-76,297-138c163-118,331-232,498-345C1728,772,1762,743,1792,710z M1792,416
	c0,112-83,213-171,274c-156,108-313,216-468,325c-65,45-175,137-256,137h-2c-81,0-191-92-256-137C484,906,327,798,172,690
	C101,642,0,529,0,438c0-98,53-182,160-182h1472C1719,256,1792,328,1792,416z"/>
</svg>
