<?xml version="1.0" encoding="utf-8"?>
<!-- Generator: Adobe Illustrator 16.0.0, SVG Export Plug-In . SVG Version: 6.00 Build 0)  -->
<!DOCTYPE svg PUBLIC "-//W3C//DTD SVG 1.1//EN" "http://www.w3.org/Graphics/SVG/1.1/DTD/svg11.dtd">
<svg version="1.1" id="Layer_1" xmlns="http://www.w3.org/2000/svg" xmlns:xlink="http://www.w3.org/1999/xlink" x="0px" y="0px"
	 width="1536px" height="1536px" viewBox="0 128 1536 1536" enable-background="new 0 128 1536 1536" xml:space="preserve">
<path fill="#FFFFFF" d="M1248,128c159,0,288,129,288,288v960c0,159-129,288-288,288h-188v-595h199l30-232h-229V689
	c0-67,18-112,115-112l122-1V369c-21-3-94-9-178-9c-177,0-299,108-299,306v171H620v232h200v595H288c-159,0-288-129-288-288V416
	c0-159,129-288,288-288H1248z"/>
</svg>
