<?xml version="1.0" encoding="utf-8"?>
<!DOCTYPE svg PUBLIC "-//W3C//DTD SVG 1.1//EN" "http://www.w3.org/Graphics/SVG/1.1/DTD/svg11.dtd">
<svg version="1.1" id="Logo" xmlns="http://www.w3.org/2000/svg" xmlns:xlink="http://www.w3.org/1999/xlink" x="0px" y="0px"
	 width="242.477px" height="241.846px" viewBox="13.986 13.686 242.477 241.846"
	 enable-background="new 13.986 13.686 242.477 241.846" xml:space="preserve">
<g>
	<path fill="#FFFFFF" d="M256.463,134.93c0.007,56.064-38.58,104.971-93.067,117.917c-3.325,0.789-6.712,1.319-10.07,1.973
		c-0.318,0.062-0.634,0.139-0.952,0.198c-1.115,0.209-1.918-0.432-1.96-1.574c-0.016-0.424,0.01-0.851,0.01-1.273
		c0.001-5.074,0.015-10.148-0.01-15.225c-0.005-1,0.273-1.828,0.89-2.623c1.585-2.046,2.804-4.283,2.914-6.937
		c0.038-0.903-0.104-1.852-0.354-2.726c-0.55-1.919-1.888-3.098-3.834-3.5c-1.488-0.308-2.999-0.717-4.499-0.713
		c-4.619,0.013-9.24,0.142-13.855,0.353c-1.808,0.082-3.493,0.805-5.064,1.731c-0.296,0.176-0.627,0.322-0.96,0.396
		c-0.584,0.131-1.094-0.064-1.458-0.548c-0.383-0.509-0.42-1.077-0.109-1.62c0.169-0.296,0.418-0.563,0.684-0.781
		c1.603-1.317,3.234-2.6,4.826-3.931c0.69-0.576,1.433-0.751,2.3-0.616c2.444,0.377,4.885,0.815,7.343,1.065
		c1.19,0.12,2.432-0.055,3.627-0.242c0.557-0.087,1.129-0.438,1.572-0.813c1.149-0.978,1.017-2.372-0.367-2.938
		c-1.186-0.483-2.479-0.737-3.747-0.976c-2.849-0.531-5.708-1.003-8.568-1.465c-0.479-0.077-1.004-0.063-1.477,0.046
		c-2.628,0.607-5.249,1.252-7.868,1.896c-2.846,0.701-4.605,2.987-4.501,5.907c0.083,2.324,0.308,4.631,1.012,6.872
		c1.067,3.398,2.868,6.254,5.932,8.202c0.742,0.472,1.063,1.134,1.062,2.014c-0.014,6.149-0.015,12.299-0.011,18.448
		c0.001,1.837-0.988,2.158-2.972,2.072c-1.618-0.069-3.23-0.335-4.838-0.565c-14.061-2.021-27.365-6.36-39.91-13.032
		c-31.466-16.733-54.217-46.963-61.551-81.762c-2.36-11.2-3.14-22.506-2.338-33.919c3.671-52.25,40.869-96.417,91.795-109.014
		c12.427-3.074,25.026-4.125,37.788-3.238c51.975,3.612,96.215,40.671,108.896,91.186
		C255.222,114.946,256.435,124.863,256.463,134.93z M153.476,251.874c51.04-6.869,99.152-52.526,100.165-115.119
		c1.085-67.137-53.886-121.967-121.535-120.235C65.913,18.211,13.093,74.214,16.99,141.783
		c3.593,62.309,53.588,106.4,105.794,110.856c0.02-0.143,0.053-0.285,0.053-0.43c0.004-5.449,0.013-10.897-0.014-16.349
		c-0.001-0.283-0.228-0.659-0.465-0.835c-2.608-1.924-4.448-4.427-5.682-7.4c-0.857-2.069-1.38-4.228-1.612-6.45
		c-0.06-0.559-0.208-0.835-0.825-0.891c-0.918-0.084-1.842-0.226-2.731-0.463c-0.659-0.175-0.97-0.01-1.292,0.578
		c-2.425,4.427-4.877,8.84-7.34,13.246c-2.241,4.01-6.39,6.09-10.802,5.445c-5.575-0.813-8.553-4.886-7.458-10.373
		c1.632-8.184,3.318-16.355,5.04-24.521c0.741-3.518,1.572-7.021,2.467-10.501c0.656-2.551,2.143-4.539,4.493-5.834
		c0.25-0.137,0.476-0.438,0.57-0.713c0.473-1.375,1.405-2.234,2.808-2.54c0.628-0.137,1.288-0.169,1.935-0.172
		c3.774-0.016,7.549-0.002,11.323-0.009c1.516-0.004,3.001,0.095,4.324,1.113c0.743-1.737,1.889-2.993,3.647-3.611
		c1.79-0.631,3.484-0.33,5.14,0.587c1.039-2.048,2.62-3.29,4.868-3.5c2.277-0.212,4.059,0.776,5.438,2.572
		c1.403-1.031,2.902-1.478,4.569-1.229c1.694,0.252,2.998,1.163,3.982,2.479c0.102-0.02,0.13-0.018,0.148-0.028
		c3.611-2.086,6.227-1.554,8.708,1.751c0.107,0.144,0.405,0.224,0.604,0.205c0.938-0.088,1.875-0.312,2.813-0.321
		c3.649-0.039,7.299-0.019,10.949-0.013c0.474,0.001,0.952,0.01,1.421,0.069c1.143,0.149,2.271,0.577,2.711,1.641
		c0.523,1.269,1.535,1.905,2.463,2.746c0.888,0.803,1.639,1.822,2.224,2.875c0.524,0.941,0.854,2.032,1.077,3.099
		c2.372,11.396,4.754,22.792,7.021,34.209c0.689,3.476-0.26,6.522-3.396,8.563c-1.582,1.028-3.365,1.563-5.248,1.58
		c-4.184,0.036-7.213-2.01-9.204-5.55c-2.424-4.312-4.705-8.704-7.019-13.079c-0.311-0.589-0.584-0.773-1.26-0.558
		c-0.923,0.295-1.896,0.434-2.851,0.632c-0.323,0.068-0.652,0.116-1.046,0.187c0.139,0.237,0.204,0.369,0.284,0.49
		c1.455,2.206,1.973,4.617,1.582,7.227c-0.414,2.764-1.657,5.159-3.258,7.409c-0.268,0.376-0.446,0.902-0.449,1.362
		c-0.033,4.6-0.021,9.198-0.021,13.8C153.476,251.378,153.476,251.62,153.476,251.874z M114.739,217.322
		c0.057-0.325,0.091-0.471,0.107-0.617c0.425-3.73,3.054-6.732,6.728-7.649c2.738-0.685,5.476-1.373,8.228-1.995
		c0.688-0.155,1.447-0.175,2.144-0.064c3.183,0.499,6.367,1.011,9.527,1.631c1.453,0.285,2.962,0.628,4.262,1.299
		c2.688,1.387,3.298,4.318,1.621,6.843c-0.129,0.192-0.255,0.391-0.439,0.675c1.44,0.203,2.746,0.538,4.052,0.541
		c3.056,0.007,6.094-0.221,8.97-1.439c0.98-0.416,1.743-0.093,2.289,0.827c0.166,0.279,0.313,0.569,0.467,0.855
		c2.489,4.646,4.966,9.303,7.472,13.94c1.99,3.683,6.005,4.979,9.669,3.161c1.563-0.774,2.45-2.035,2.577-3.769
		c0.054-0.739,0.033-1.51-0.107-2.233c-1.404-7.208-2.805-14.416-4.282-21.608c-0.905-4.402-1.913-8.786-2.94-13.162
		c-0.463-1.972-1.595-3.479-3.536-4.281c-0.654-0.272-1.111-0.753-1.271-1.475c-0.276-1.254-0.327-1.303-1.623-1.304
		c-3.824-0.005-7.648-0.004-11.473,0.002c-0.373,0.001-0.784-0.033-1.108,0.107c-0.346,0.149-0.701,0.436-0.892,0.757
		c-0.608,1.03-0.313,2.195-0.361,3.305c-0.184,4.249-4.546,6.896-8.383,5.066c-0.217-0.104-0.433-0.205-0.646-0.308
		c-1.707,3.265-5.231,4.483-8.639,2.62c-1.133,2.146-2.853,3.453-5.35,3.472c-2.53,0.018-4.275-1.291-5.442-3.487
		c-0.181,0.081-0.316,0.138-0.447,0.202c-4.134,2.032-8.552-0.693-8.603-5.313c-0.014-1.199-0.024-2.399,0.006-3.599
		c0.013-0.487-0.136-0.735-0.584-0.978c-0.385-0.208-0.616-0.687-0.951-1.007c-0.289-0.274-0.597-0.587-0.956-0.72
		c-0.382-0.141-0.836-0.119-1.258-0.12c-3.924-0.007-7.85-0.005-11.773-0.003c-0.273,0-0.551,0.006-0.822,0.035
		c-0.545,0.061-0.887,0.345-0.885,0.921c0.003,0.997-0.542,1.549-1.427,1.88c-1.568,0.587-2.613,1.727-3.244,3.244
		c-0.267,0.643-0.485,1.317-0.631,1.998c-2.417,11.357-4.844,22.716-7.208,34.087c-0.626,3.015,0.715,5.122,3.641,6.059
		c0.592,0.189,1.212,0.341,1.827,0.388c3.253,0.244,5.604-1.267,7.162-3.992c2.677-4.688,5.255-9.429,7.875-14.147
		c0.891-1.604,1.403-1.796,3.16-1.354C112.367,216.893,113.522,217.078,114.739,217.322z M128.99,190.743
		c0,1.975-0.019,3.949,0.006,5.924c0.018,1.324,0.808,2.348,1.996,2.689c1.842,0.53,3.523-0.804,3.534-2.864
		c0.021-3.85,0.007-7.698-0.001-11.548c-0.002-0.864-0.29-1.626-0.963-2.194c-0.86-0.726-1.847-0.891-2.875-0.456
		c-1.095,0.461-1.672,1.34-1.688,2.524C128.974,186.792,128.992,188.768,128.99,190.743z M137.664,190.107
		c0,1.322-0.014,2.645,0.003,3.967c0.021,1.604,1.104,2.732,2.624,2.769c1.549,0.037,2.794-1.087,2.819-2.68
		c0.044-2.718,0.039-5.438-0.005-8.156c-0.024-1.526-1.294-2.659-2.8-2.623c-1.504,0.036-2.611,1.146-2.637,2.684
		C137.648,187.413,137.666,188.76,137.664,190.107z M125.865,190.783c-0.001,0-0.002,0-0.004,0c0-1.173,0.028-2.348-0.007-3.52
		c-0.043-1.47-1.192-2.549-2.679-2.573c-1.422-0.025-2.698,1.028-2.738,2.431c-0.067,2.395-0.077,4.792-0.011,7.187
		c0.042,1.517,1.299,2.571,2.792,2.537c1.492-0.034,2.61-1.158,2.642-2.69C125.883,193.03,125.865,191.906,125.865,190.783z
		 M151.803,189.455c-0.036,0-0.072-0.001-0.108-0.002c0-0.82,0.088-1.653-0.021-2.46c-0.194-1.47-1.44-2.395-2.927-2.292
		c-1.41,0.098-2.474,1.222-2.493,2.678c-0.02,1.396-0.07,2.797,0.027,4.187c0.042,0.603,0.302,1.278,0.678,1.75
		c0.688,0.861,1.679,1.134,2.767,0.813c1.072-0.314,1.779-1.027,1.94-2.141C151.79,191.155,151.764,190.3,151.803,189.455z"/>
	<path fill="#FFFFFF" d="M202.078,228.411c-3.924-6.467-7.819-12.889-11.815-19.477c0.961,0.08,1.761,0.148,2.561,0.214
		c0.349,0.026,0.699,0.076,1.046,0.061c1.243-0.057,1.953-0.646,2.179-1.865c0.149-0.81,0.217-1.634,0.313-2.452
		c0.131-1.132,0.437-1.416,1.588-1.438c0.8-0.015,1.602,0.021,2.398-0.027c1.36-0.084,2.065-0.756,2.169-2.108
		c0.085-1.12,0.071-2.248,0.112-3.372c0.041-1.099,0.315-1.409,1.411-1.55c1.017-0.13,2.04-0.199,3.054-0.344
		c1.551-0.219,2.188-0.971,2.147-2.531c-0.02-0.773-0.125-1.544-0.171-2.316c-0.066-1.11,0.131-1.374,1.198-1.622
		c0.826-0.191,1.67-0.329,2.482-0.565c1.298-0.379,1.833-1.21,1.65-2.542c-0.136-0.989-0.364-1.967-0.509-2.954
		c-0.147-0.996,0.045-1.293,1.007-1.618c0.828-0.281,1.678-0.5,2.5-0.795c1.591-0.57,2.058-1.448,1.652-3.08
		c-0.18-0.729-0.424-1.438-0.608-2.165c-0.243-0.956-0.07-1.315,0.829-1.725c0.75-0.343,1.528-0.622,2.27-0.982
		c1.319-0.642,1.71-1.563,1.231-2.96c-0.339-0.991-0.772-1.95-1.14-2.932c-0.378-1.01-0.252-1.361,0.692-1.905
		c0.845-0.486,1.725-0.912,2.563-1.408c1.436-0.852,1.726-1.841,1.002-3.35c-0.334-0.698-0.729-1.368-1.063-2.066
		c-0.389-0.813-0.287-1.2,0.449-1.732c0.668-0.482,1.379-0.907,2.034-1.405c1.271-0.966,1.448-1.951,0.616-3.323
		c-0.479-0.79-1.016-1.545-1.496-2.335c-0.505-0.828-0.431-1.247,0.313-1.889c0.661-0.573,1.358-1.104,2.014-1.684
		c1.249-1.103,1.357-2.144,0.366-3.48c-0.431-0.582-0.911-1.127-1.354-1.702c-0.65-0.848-0.632-1.237,0.107-2.027
		c0.547-0.583,1.141-1.125,1.672-1.721c0.961-1.075,0.994-2.061,0.059-3.148c-0.716-0.833-1.519-1.591-2.271-2.392
		c-0.754-0.801-0.779-1.214-0.103-2.094c0.641-0.832,1.338-1.621,1.955-2.469c0.895-1.226,0.787-2.213-0.328-3.245
		c-0.586-0.544-1.228-1.027-1.826-1.557c-0.69-0.608-0.766-1.055-0.291-1.84c0.44-0.727,0.948-1.413,1.372-2.147
		c0.726-1.261,0.558-2.193-0.588-3.093c-0.785-0.616-1.646-1.137-2.451-1.726c-0.771-0.564-0.869-0.947-0.453-1.792
		c0.397-0.808,0.856-1.583,1.245-2.395c0.729-1.516,0.437-2.49-0.998-3.354c-0.62-0.374-1.273-0.69-1.902-1.051
		c-0.939-0.541-1.069-0.902-0.684-1.903c0.271-0.699,0.588-1.379,0.844-2.082c0.56-1.534,0.182-2.49-1.286-3.192
		c-0.9-0.431-1.84-0.783-2.75-1.194c-0.975-0.44-1.149-0.813-0.874-1.837c0.267-0.989,0.592-1.963,0.828-2.959
		c0.355-1.486-0.105-2.343-1.538-2.879c-0.771-0.289-1.574-0.488-2.353-0.764c-0.844-0.298-1.046-0.664-0.896-1.551
		c0.136-0.788,0.313-1.569,0.435-2.359c0.239-1.577-0.302-2.407-1.858-2.819c-0.845-0.225-1.708-0.374-2.562-0.565
		c-1.167-0.262-1.4-0.572-1.307-1.774c0.062-0.772,0.167-1.541,0.231-2.313c0.145-1.737-0.491-2.568-2.216-2.853
		c-0.738-0.122-1.489-0.164-2.232-0.262c-0.966-0.126-1.257-0.437-1.291-1.414c-0.025-0.749,0.017-1.5-0.013-2.249
		c-0.064-1.723-0.714-2.402-2.421-2.503c-1.047-0.062-2.1-0.049-3.147-0.09c-1.02-0.04-1.33-0.308-1.47-1.323
		c-0.143-1.04-0.211-2.089-0.356-3.128c-0.219-1.556-0.967-2.195-2.523-2.157c-0.798,0.02-1.593,0.129-2.391,0.174
		c-1.047,0.059-1.313-0.15-1.557-1.191c-0.187-0.803-0.318-1.62-0.543-2.412c-0.394-1.387-1.215-1.923-2.633-1.725
		c-0.988,0.138-1.965,0.366-2.953,0.507c-0.92,0.131-1.221-0.061-1.522-0.934c-0.312-0.896-0.549-1.82-0.879-2.708
		c-0.539-1.454-1.426-1.911-2.943-1.546c-0.729,0.175-1.439,0.418-2.164,0.609c-1.042,0.275-1.4,0.106-1.836-0.866
		c-0.327-0.729-0.602-1.483-0.949-2.202c-0.643-1.324-1.558-1.72-2.955-1.243c-1.016,0.346-1.996,0.791-3.003,1.163
		c-0.937,0.346-1.293,0.221-1.797-0.645c-0.504-0.863-0.942-1.764-1.45-2.624c-0.854-1.441-1.84-1.736-3.347-1.015
		c-0.722,0.345-1.421,0.73-2.131,1.099c-0.665,0.346-1.207,0.194-1.627-0.412c-0.471-0.677-0.908-1.378-1.401-2.039
		c-1.004-1.348-1.988-1.529-3.431-0.646c-0.788,0.482-1.545,1.019-2.337,1.495c-0.756,0.455-1.191,0.382-1.776-0.283
		c-0.594-0.676-1.138-1.396-1.732-2.07c-1.104-1.253-2.145-1.366-3.479-0.379c-0.644,0.476-1.256,0.991-1.883,1.486
		c-0.582,0.459-1.146,0.438-1.681-0.078c-0.521-0.504-1.027-1.021-1.553-1.522c-1.442-1.379-2.406-1.395-3.886-0.033
		c-0.699,0.642-1.354,1.334-2.045,1.983c-0.741,0.697-1.166,0.726-1.977,0.108c-0.854-0.651-1.662-1.364-2.528-1.998
		c-1.229-0.898-2.212-0.794-3.248,0.315c-0.512,0.549-0.97,1.145-1.456,1.715c-0.713,0.835-1.146,0.911-2.067,0.34
		c-0.701-0.435-1.368-0.925-2.084-1.331c-1.205-0.683-2.11-0.523-2.979,0.553c-0.563,0.698-1.035,1.47-1.551,2.208
		c-0.807,1.155-1.121,1.236-2.352,0.599c-0.643-0.333-1.274-0.691-1.922-1.015c-1.661-0.826-2.646-0.537-3.571,1.048
		c-0.314,0.539-0.594,1.101-0.898,1.646c-0.632,1.124-0.97,1.239-2.185,0.751c-0.579-0.233-1.147-0.492-1.73-0.714
		c-1.717-0.653-2.669-0.262-3.438,1.42c-0.321,0.705-0.609,1.424-0.913,2.137c-0.642,1.503-0.906,1.628-2.448,1.18
		c-0.863-0.251-1.722-0.526-2.597-0.729c-1.412-0.326-2.26,0.125-2.78,1.477c-0.305,0.792-0.512,1.62-0.795,2.42
		c-0.299,0.849-0.665,1.056-1.545,0.906c-0.838-0.142-1.667-0.335-2.508-0.454c-1.413-0.198-2.256,0.343-2.636,1.725
		c-0.258,0.938-0.417,1.902-0.642,2.851c-0.235,0.997-0.554,1.24-1.585,1.175c-0.821-0.052-1.64-0.167-2.462-0.237
		c-1.74-0.147-2.575,0.487-2.86,2.205c-0.119,0.715-0.168,1.439-0.255,2.159c-0.125,1.056-0.434,1.353-1.485,1.381
		c-0.824,0.023-1.651-0.02-2.475,0.028c-1.397,0.082-2.096,0.762-2.194,2.165c-0.076,1.071-0.066,2.148-0.102,3.222
		c-0.041,1.226-0.319,1.525-1.542,1.664c-0.942,0.106-1.891,0.185-2.831,0.313c-1.677,0.227-2.301,0.968-2.243,2.673
		c0.027,0.823,0.122,1.644,0.187,2.466c0.056,0.716-0.287,1.14-0.972,1.292c-0.78,0.173-1.569,0.312-2.347,0.5
		c-1.689,0.412-2.242,1.22-1.994,2.937c0.121,0.84,0.318,1.668,0.455,2.506c0.189,1.161-0.002,1.472-1.106,1.836
		c-0.831,0.272-1.68,0.493-2.499,0.797c-1.459,0.542-1.92,1.423-1.562,2.937c0.167,0.705,0.399,1.395,0.59,2.094
		c0.313,1.15,0.143,1.5-0.967,1.979c-0.596,0.258-1.205,0.488-1.797,0.754c-1.672,0.751-2.063,1.7-1.416,3.436
		c0.28,0.749,0.599,1.481,0.894,2.225c0.579,1.458,0.479,1.726-0.924,2.489c-0.571,0.31-1.148,0.607-1.719,0.921
		c-2.023,1.112-2.31,2.045-1.251,4.075c0.267,0.509,0.55,1.01,0.802,1.525c0.437,0.896,0.345,1.277-0.456,1.852
		c-0.649,0.466-1.338,0.88-1.975,1.361c-1.28,0.97-1.469,1.95-0.646,3.318c0.464,0.771,0.986,1.505,1.46,2.27
		c0.563,0.913,0.499,1.322-0.304,2.01c-0.605,0.521-1.235,1.015-1.846,1.531c-1.4,1.188-1.521,2.249-0.419,3.699
		c0.363,0.478,0.75,0.937,1.124,1.405c0.858,1.081,0.838,1.417-0.144,2.422c-0.489,0.501-1.001,0.981-1.468,1.502
		c-0.982,1.099-1.009,2.083-0.039,3.207c0.669,0.774,1.411,1.486,2.12,2.225c0.91,0.948,0.931,1.341,0.102,2.384
		c-0.591,0.742-1.216,1.461-1.779,2.225c-0.959,1.299-0.863,2.276,0.312,3.363c0.493,0.458,1.024,0.877,1.544,1.309
		c1.008,0.838,1.069,1.229,0.352,2.353c-0.377,0.589-0.789,1.157-1.142,1.761c-0.791,1.349-0.609,2.313,0.639,3.262
		c0.755,0.574,1.568,1.072,2.336,1.629c0.801,0.582,0.89,0.958,0.445,1.854c-0.39,0.783-0.832,1.539-1.212,2.326
		c-0.745,1.542-0.443,2.524,1.036,3.401c0.665,0.396,1.366,0.73,2.03,1.129c0.732,0.439,0.872,0.838,0.575,1.639
		c-0.287,0.771-0.648,1.517-0.927,2.291c-0.536,1.49-0.151,2.439,1.285,3.131c0.923,0.442,1.885,0.804,2.816,1.229
		c0.929,0.424,1.098,0.798,0.832,1.792c-0.271,1.015-0.604,2.013-0.846,3.032c-0.334,1.415,0.115,2.263,1.463,2.786
		c0.767,0.298,1.571,0.499,2.351,0.768c0.934,0.32,1.143,0.682,0.976,1.641c-0.146,0.837-0.339,1.667-0.451,2.508
		c-0.178,1.335,0.359,2.185,1.649,2.55c0.96,0.272,1.95,0.433,2.923,0.662c1.004,0.236,1.25,0.55,1.186,1.576
		c-0.051,0.822-0.165,1.641-0.234,2.462c-0.15,1.745,0.479,2.583,2.191,2.871c0.689,0.116,1.39,0.17,2.084,0.246
		c1.174,0.129,1.454,0.434,1.473,1.633c0.011,0.773-0.022,1.552,0.021,2.324c0.081,1.4,0.756,2.104,2.153,2.206
		c1.096,0.078,2.197,0.066,3.297,0.104c1.14,0.04,1.449,0.317,1.589,1.454c0.123,0.991,0.194,1.99,0.332,2.979
		c0.221,1.592,0.968,2.226,2.579,2.181c0.798-0.021,1.594-0.124,2.392-0.177c0.211-0.015,0.428,0.021,0.776,0.044
		c-3.943,6.501-7.823,12.896-11.704,19.296C36.563,206.646,12.875,163.437,21.8,114.248c9.323-51.389,52.729-90.227,104.559-94.019
		c56.518-4.136,104.972,32.688,119.282,83.099C259.839,153.349,238.875,202.378,202.078,228.411z M241.167,130.408
		c-0.409,0.182-0.646,0.297-0.894,0.396c-1.574,0.634-3.145,1.277-4.729,1.887c-0.426,0.164-0.725,0.35-0.58,0.851
		c0.15,0.524-0.262,1.227,0.698,1.481c2.913,0.773,5.801,1.646,8.7,2.478c0.202,0.059,0.414,0.082,0.708,0.139
		c-0.032-0.606-0.083-1.125-0.081-1.644c0.001-0.418-0.142-0.631-0.575-0.711c-0.61-0.112-1.21-0.292-1.813-0.447
		c-1.372-0.354-2.743-0.71-4.328-1.122c2.101-0.812,3.968-1.577,5.869-2.243c0.661-0.231,0.651-0.625,0.612-1.143
		c-0.04-0.517,0.025-1.001-0.713-1.177c-1.7-0.403-3.377-0.908-5.063-1.375c-0.25-0.069-0.494-0.159-0.938-0.303
		c0.462-0.177,0.713-0.275,0.967-0.367c1.622-0.583,3.24-1.178,4.872-1.735c0.46-0.157,0.636-0.392,0.569-0.873
		c-0.069-0.51-0.081-1.026-0.123-1.61c-0.319,0.104-0.556,0.171-0.783,0.261c-2.719,1.067-5.436,2.141-8.152,3.209
		c-0.417,0.164-0.876,0.257-0.746,0.901c0.124,0.612-0.12,1.295,0.878,1.526C237.367,129.214,239.167,129.822,241.167,130.408z
		 M130.67,25.874c-1.52-0.215-2.671,0.032-3.116,1.62c-0.106,0.377-0.352,0.716-0.534,1.072c-0.278,0.541-0.558,1.081-0.89,1.725
		c-0.917-1.23-1.725-2.341-2.565-3.423c-0.16-0.206-0.458-0.425-0.695-0.428c-0.639-0.007-1.28,0.099-1.967,0.165
		c0.277,3.268,0.547,6.466,0.824,9.736c0.445-0.024,0.815-0.076,1.184-0.061c0.689,0.03,1.027-0.18,0.862-0.948
		c-0.104-0.484-0.098-0.993-0.137-1.491c-0.096-1.225-0.189-2.449-0.284-3.675c0.048-0.019,0.097-0.038,0.145-0.057
		c0.945,1.198,1.89,2.396,2.905,3.682c0.797-1.464,1.525-2.802,2.255-4.14c0.058,0.021,0.117,0.042,0.175,0.063
		c0.173,1.977,0.346,3.952,0.526,6.012c0.742-0.071,1.396-0.134,2.122-0.202C131.204,32.245,130.938,29.065,130.67,25.874z
		 M29.001,164.499c3.214-0.742,6.358-1.467,9.547-2.203c-0.174-0.747-0.323-1.389-0.482-2.069c-2.019,0.458-3.923,0.891-6.028,1.367
		c1.476-1.773,2.749-3.444,4.178-4.973c0.839-0.896,0.79-1.718,0.299-2.78c-3.126,0.72-6.271,1.443-9.47,2.179
		c0.168,0.732,0.313,1.357,0.473,2.057c1.906-0.426,3.749-0.838,5.591-1.25c-1.358,1.883-2.785,3.584-4.193,5.301
		c-0.156,0.19-0.304,0.482-0.279,0.707C28.694,163.371,28.86,163.895,29.001,164.499z M181.757,36.115
		c-0.727-0.302-1.347-0.561-1.972-0.82c-0.794,1.861-1.521,3.566-2.326,5.45c-0.099-0.304-0.14-0.411-0.168-0.521
		c-0.489-1.883-0.979-3.766-1.465-5.648c-0.299-1.156-0.865-1.615-2.17-1.705c-1.23,2.923-2.468,5.862-3.735,8.875
		c0.667,0.283,1.272,0.54,1.958,0.831c0.793-1.874,1.551-3.663,2.385-5.632c0.12,0.376,0.182,0.534,0.224,0.697
		c0.47,1.812,1.038,3.606,1.37,5.443c0.227,1.259,0.926,1.759,2.11,1.977C179.212,42.125,180.462,39.173,181.757,36.115z
		 M239.044,143.716c-2.854,0.006-5.038,2.31-5.029,5.309c0.008,2.892,2.255,5.145,5.123,5.136c2.838-0.009,5.043-2.34,5.034-5.32
		C244.165,145.939,241.934,143.711,239.044,143.716z M241.684,162.151c-3.163-0.906-6.263-1.793-9.443-2.704
		c-0.202,0.718-0.382,1.354-0.582,2.063c1.02,0.307,1.979,0.596,2.92,0.879c-0.073,1.124-0.462,1.849-1.607,2.037
		c-0.655,0.108-1.287,0.379-1.918,0.607c-0.191,0.07-0.438,0.215-0.495,0.383c-0.232,0.668-0.401,1.358-0.635,2.184
		c1.42-0.467,2.678-0.878,3.915-1.285c0.074,0.147,0.104,0.189,0.116,0.236c0.426,1.72,1.469,2.612,3.193,2.73
		c1.365,0.093,2.583-0.758,3.114-2.329C240.786,165.403,241.197,163.814,241.684,162.151z M226.264,87.628
		c0.802,0.879,0.937,1.701,0.208,2.636c-0.409,0.524-0.688,1.154-1.001,1.75c-0.086,0.16-0.17,0.405-0.106,0.546
		c0.3,0.663,0.649,1.302,1.04,2.064c0.727-1.312,1.373-2.477,2.03-3.663c0.244,0.168,0.384,0.273,0.53,0.364
		c1.265,0.779,2.48,0.581,3.642-0.218c1.114-0.769,1.596-1.923,1.161-3.143c-0.646-1.813-1.556-3.535-2.38-5.358
		c-3.04,1.536-5.92,2.99-8.826,4.459c0.354,0.693,0.659,1.287,0.983,1.921C224.484,88.517,225.371,88.074,226.264,87.628z
		 M75.896,52.659c0.011-2.77-2.276-5.101-5.009-5.104c-2.86-0.005-5.35,2.449-5.351,5.274c-0.001,2.747,2.252,5.043,4.971,5.067
		C73.359,57.921,75.885,55.467,75.896,52.659z M64.152,207.871c-2.803-0.011-5.067,2.223-5.078,5.007
		c-0.011,2.861,2.425,5.282,5.315,5.282c2.756,0,5.029-2.236,5.056-4.973C69.474,210.347,67.02,207.882,64.152,207.871z
		 M212.75,203.908c-0.031,0.258-0.052,0.428-0.073,0.599c-0.193,1.498,0.412,2.668,1.768,3.406c1.179,0.645,2.513,0.526,3.575-0.547
		c1.241-1.254,2.346-2.645,3.562-4.036c-2.547-2.143-5.019-4.221-7.522-6.327c-0.502,0.6-0.932,1.109-1.387,1.651
		c0.822,0.701,1.591,1.354,2.313,1.971c-0.518,1.046-1.177,1.508-2.275,1.221c-0.646-0.171-1.335-0.178-2.007-0.235
		c-0.187-0.017-0.453-0.022-0.558,0.087c-0.501,0.525-0.96,1.093-1.545,1.774C210.1,203.628,211.38,203.763,212.75,203.908z
		 M51.957,207.546c2.597-2.096,5.106-4.123,7.656-6.181c-0.483-0.594-0.902-1.107-1.361-1.671c-0.846,0.676-1.633,1.304-2.383,1.9
		c-0.874-0.71-1.281-1.418-0.77-2.455c0.294-0.598,0.434-1.272,0.604-1.924c0.057-0.218,0.082-0.526-0.03-0.688
		c-0.392-0.565-0.85-1.083-1.386-1.747c-0.433,1.424-0.819,2.693-1.215,3.993c-0.217-0.078-0.332-0.119-0.446-0.161
		c-1.438-0.529-2.767-0.175-3.769,1.008c-0.873,1.029-1.04,2.366-0.203,3.608C49.653,204.711,50.822,206.078,51.957,207.546z
		 M43.16,75.27c2.705,1.932,5.333,3.809,8.005,5.718c0.891-1.271,1.77-2.396,2.507-3.608c1.44-2.365,0.866-5.116-1.306-6.646
		c-2.157-1.52-4.946-1.093-6.683,1.077C44.811,72.9,44.033,74.065,43.16,75.27z M188.939,39.73c-1.774,2.89-3.462,5.639-5.177,8.432
		c1.245,0.763,2.388,1.473,3.543,2.16c0.297,0.177,0.628,0.307,0.957,0.419c2.241,0.768,4.503-0.021,5.742-1.993
		c1.229-1.953,1.033-4.456-0.727-6.005C191.988,41.605,190.441,40.756,188.939,39.73z M39.324,187.01
		c-0.588,1.808,0.411,4.335,2.152,5.601c2.787,2.022,6.959,0.593,7.89-2.727c0.802-2.859-1.206-5.786-3.802-6.741
		c-0.146-0.054-0.364-0.061-0.491,0.014c-1.143,0.652-2.273,1.326-3.464,2.028c0.737,1.25,1.428,2.422,2.16,3.662
		c0.574-0.344,1.071-0.642,1.595-0.953c-0.209-0.368-0.369-0.648-0.527-0.93c-0.167-0.296-0.332-0.592-0.611-1.091
		c0.635-0.139,1.221-0.471,1.59-0.31c1.241,0.544,1.912,2.321,1.499,3.576c-0.447,1.354-2.014,2.375-3.393,2.21
		c-1.515-0.184-2.577-1.325-2.659-2.875c-0.021-0.368-0.004-0.739-0.004-1.152C40.573,187.212,39.942,187.11,39.324,187.01z
		 M97.117,33.709c-1.875-0.59-3.511-0.228-5.019,0.748c-1.867,1.208-2.66,3.455-2.042,5.577c0.635,2.178,2.386,3.643,4.573,3.672
		c2.373,0.031,4.147-1.095,5.381-3.095c0.097-0.155,0.187-0.404,0.129-0.549c-0.492-1.243-1.02-2.473-1.557-3.753
		c-1.358,0.567-2.612,1.092-3.92,1.637c0.264,0.623,0.483,1.141,0.721,1.704c0.695-0.277,1.313-0.522,1.913-0.762
		c0.767,1.168,0.699,1.524-0.388,2.209c-0.21,0.132-0.437,0.242-0.667,0.336c-1.127,0.456-2.182,0.304-3.06-0.531
		c-0.932-0.886-1.313-1.987-0.975-3.272c0.315-1.202,1.159-1.855,2.33-2.05c0.623-0.104,1.277-0.019,2.01-0.019
		C96.711,35.033,96.899,34.42,97.117,33.709z M35.523,125.168c0.351-2.545,0.683-4.953,1.021-7.41
		c-0.692-0.086-1.272-0.158-1.89-0.234c-0.257,1.777-0.501,3.471-0.755,5.231c-0.702-0.092-1.31-0.172-2.003-0.264
		c0.203-1.548,0.398-3.038,0.602-4.579c-0.661-0.092-1.242-0.173-1.881-0.262c-0.228,1.553-0.447,3.046-0.672,4.581
		c-0.677-0.108-1.278-0.204-1.927-0.309c0.234-1.779,0.458-3.468,0.685-5.189c-0.695-0.086-1.254-0.155-1.89-0.233
		c-0.343,2.474-0.673,4.857-1.016,7.319C29.062,124.272,32.238,124.712,35.523,125.168z M53.224,62.273
		c2.39,2.283,4.727,4.516,7.092,6.775c1.75-1.829,3.437-3.591,5.167-5.397c-0.485-0.462-0.914-0.87-1.234-1.175
		c-1.349,1.194-2.652,2.351-3.992,3.536c-0.357-0.344-0.821-0.787-1.314-1.259c1.072-1.132,2.1-2.218,3.171-3.348
		c-0.458-0.439-0.901-0.862-1.313-1.256c-1.158,1.06-2.271,2.078-3.411,3.121c-0.368-0.37-0.8-0.804-1.246-1.251
		c1.2-1.268,2.367-2.497,3.458-3.646c-0.417-0.498-0.812-0.969-1.241-1.482C56.605,58.729,54.938,60.476,53.224,62.273z
		 M217.588,192.167c0.598,0.363,1.098,0.667,1.644,0.999c0.967-1.529,1.883-2.979,2.829-4.477c0.595,0.379,1.133,0.721,1.717,1.092
		c-0.829,1.328-1.618,2.591-2.44,3.905c0.566,0.354,1.082,0.68,1.62,1.018c0.849-1.329,1.66-2.603,2.483-3.895
		c0.604,0.384,1.12,0.712,1.653,1.052c-0.953,1.523-1.851,2.956-2.785,4.449c0.569,0.356,1.083,0.68,1.632,1.022
		c1.342-2.137,2.624-4.18,3.938-6.271c-2.797-1.758-5.518-3.466-8.308-5.22C220.236,187.963,218.939,190.024,217.588,192.167z
		 M138.62,25.825c-0.211,3.304-0.414,6.505-0.622,9.77c2.516,0.156,4.925,0.307,7.431,0.462c0.037-0.668,0.069-1.251,0.106-1.901
		c-1.221-0.087-2.361-0.18-3.505-0.246c-2.136-0.122-1.779,0.269-1.617-1.981c0.002-0.02,0.027-0.037,0.106-0.146
		c1.419,0.078,2.9,0.16,4.478,0.247c0.03-0.646,0.06-1.229,0.09-1.892c-1.547-0.112-3.024-0.219-4.576-0.33
		c0.055-0.678,0.104-1.281,0.155-1.946c1.769,0.104,3.431,0.204,5.194,0.308c0.037-0.647,0.071-1.25,0.107-1.904
		c-2.318-0.15-4.533-0.296-6.749-0.438C139.05,25.815,138.879,25.825,138.62,25.825z M236.808,177.024
		c-2.998-1.349-5.926-2.663-8.925-4.011c-0.311,0.686-0.591,1.304-0.888,1.959c0.653,0.299,1.176,0.616,1.742,0.78
		c0.994,0.288,1.319,1.023,1.515,1.976c-1.487,0.313-2.952,0.605-4.406,0.94c-0.258,0.06-0.571,0.236-0.691,0.452
		c-0.338,0.604-0.588,1.257-0.913,1.98c0.33-0.05,0.573-0.072,0.81-0.123c1.804-0.388,3.612-0.75,5.402-1.189
		c0.53-0.129,0.703,0.027,0.869,0.477c0.346,0.937,0.736,1.857,1.112,2.784c0.235,0.584,0.478,1.166,0.771,1.882
		c0.716-1.32,1.416-2.428,0.486-3.799c-0.385-0.567-0.568-1.272-0.838-1.919c-0.245-0.587-0.482-1.178-0.792-1.936
		c1.394,0.618,2.606,1.157,3.867,1.715C236.234,178.312,236.503,177.707,236.808,177.024z M27.154,139.131c0-1.661,0-3.288,0-5.09
		c0.445,0.379,0.746,0.631,1.042,0.889c1.607,1.388,3.175,2.824,4.845,4.131c0.416,0.324,1.16,0.279,1.752,0.273
		c0.089,0,0.242-0.713,0.248-1.098c0.031-2.048,0.025-4.097,0.028-6.146c0-0.265-0.022-0.529-0.034-0.79c-0.67,0-1.253,0-1.935,0
		c0,1.755,0,3.45,0,5.281c-1.939-1.674-3.782-3.207-5.553-4.82c-0.72-0.655-1.449-0.576-2.235-0.46
		c-0.037,0.11-0.065,0.157-0.065,0.203c-0.01,2.048-0.015,4.097-0.024,6.146C25.214,139.404,25.212,139.404,27.154,139.131z
		 M202.576,48.922c-0.357,0.411-0.675,0.758-0.973,1.119c-1.08,1.313-2.249,2.563-3.206,3.959c-1.235,1.803-0.837,3.642,0.923,5.191
		c1.755,1.545,3.716,1.776,5.265,0.309c1.62-1.536,3.008-3.315,4.551-5.05c-0.631-0.53-1.151-0.969-1.698-1.428
		c-0.424,0.5-0.778,0.917-1.133,1.336c-0.855,1.012-1.693,2.039-2.571,3.031c-0.959,1.083-2.027,1.19-3.025,0.357
		c-0.981-0.82-1.052-1.906-0.182-3.05c0.271-0.358,0.572-0.695,0.861-1.04c0.928-1.105,1.854-2.209,2.819-3.358
		C203.642,49.823,203.133,49.394,202.576,48.922z M105.962,39.629c0.128,0.033,0.177,0.062,0.221,0.056
		c1.862-0.288,1.873-0.286,2.121-2.146c0.061-0.452,0.214-0.723,0.699-0.804c0.54-0.09,1.096-0.188,1.596-0.398
		c1.292-0.542,2.273-0.368,2.899,1.004c0.086,0.188,0.431,0.4,0.623,0.374c0.603-0.082,1.188-0.272,1.856-0.44
		c-0.198-0.286-0.316-0.472-0.448-0.646c-1.841-2.456-3.698-4.9-5.515-7.375c-0.343-0.465-0.679-0.591-1.19-0.396
		c-0.185,0.07-0.383,0.11-0.579,0.145c-0.441,0.076-0.652,0.28-0.721,0.775c-0.238,1.727-0.552,3.441-0.828,5.164
		C106.446,36.504,106.206,38.071,105.962,39.629z M40.203,167.846c-0.165,0.129-0.249,0.183-0.318,0.252
		c-2.303,2.284-4.589,4.587-6.916,6.848c-0.588,0.571-0.092,0.999,0.045,1.477c0.121,0.43,0.261,0.786,0.885,0.794
		c3.168,0.041,6.336,0.145,9.504,0.224c0.168,0.004,0.336-0.021,0.602-0.036c-0.218-0.557-0.369-1.085-0.63-1.551
		c-0.124-0.221-0.488-0.488-0.692-0.451c-1.486,0.268-2.282-0.36-2.541-1.795c-0.021-0.121-0.07-0.244-0.137-0.348
		c-0.767-1.195-0.651-2.197,0.617-2.975c0.355-0.217,0.392-0.521,0.208-0.901C40.604,168.914,40.434,168.42,40.203,167.846z
		 M207.927,64.879c-0.192,2.101,1.33,4.619,3.178,5.329c1.134,0.436,2.151,0.21,3.054-0.6c0.865-0.777,1.055-1.73,0.698-2.794
		c-0.198-0.589-0.484-1.147-0.734-1.72c-0.169-0.388-0.437-0.763-0.487-1.165c-0.042-0.339,0.063-0.87,0.293-1.019
		c0.235-0.152,0.856-0.077,1.043,0.133c0.446,0.508,0.765,1.141,1.079,1.749c0.153,0.295,0.185,0.653,0.275,1.005
		c0.533-0.063,1.011-0.081,1.464-0.193c0.158-0.04,0.371-0.318,0.366-0.483c-0.041-1.668-1.558-3.73-3.117-4.247
		c-1.118-0.37-2.106-0.119-2.958,0.704c-0.813,0.788-0.958,1.719-0.604,2.748c0.161,0.469,0.39,0.916,0.589,1.372
		c0.219,0.502,0.51,0.987,0.632,1.511c0.07,0.3-0.03,0.801-0.243,0.961c-0.223,0.168-0.761,0.168-1.001,0.006
		c-0.417-0.28-0.813-0.693-1.031-1.144c-0.327-0.679-0.492-1.438-0.754-2.241C209.13,64.818,208.522,64.849,207.927,64.879z
		 M206.062,209.875c0-0.313,0.037-0.788-0.021-1.252c-0.021-0.168-0.27-0.44-0.412-0.438c-1.968,0.018-4.457,1.539-5.025,3.527
		c-0.316,1.107,0.014,2.063,0.817,2.874c0.752,0.758,1.649,0.92,2.622,0.595c0.659-0.223,1.279-0.557,1.922-0.828
		c0.411-0.177,0.82-0.405,1.252-0.47c0.26-0.038,0.65,0.124,0.813,0.33c0.139,0.176,0.152,0.652,0.013,0.803
		c-0.413,0.441-0.894,0.851-1.417,1.151c-0.418,0.241-0.937,0.308-1.486,0.475c0.08,0.614,0.159,1.219,0.247,1.888
		c2.05-0.242,3.623-1.084,4.536-2.875c0.557-1.092,0.398-2.188-0.443-3.127c-0.874-0.976-1.815-1.199-3.116-0.684
		c-0.926,0.367-1.806,0.852-2.739,1.191c-0.244,0.089-0.708-0.072-0.892-0.278c-0.161-0.18-0.165-0.621-0.065-0.88
		c0.119-0.306,0.373-0.639,0.658-0.784C204.172,210.659,205.065,210.311,206.062,209.875z M35.257,89.478
		c-0.242,0.584-0.4,1.057-0.631,1.491c-0.251,0.477-0.165,0.786,0.241,1.146c1.437,1.276,2.837,2.591,4.248,3.896
		c0.15,0.139,0.275,0.304,0.512,0.565c-0.406,0-0.648,0.006-0.892-0.001c-1.896-0.056-3.791-0.124-5.688-0.162
		c-0.239-0.005-0.616,0.068-0.701,0.228c-0.311,0.58-0.522,1.211-0.817,1.934c0.403,0,0.649-0.001,0.895,0
		c2.919,0.019,5.84,0.036,8.76,0.057c0.863,0.007,1.666-0.797,1.612-1.648c-0.008-0.13-0.104-0.28-0.205-0.377
		C40.18,94.255,37.763,91.911,35.257,89.478z M230.04,104.258c1.066-0.362,2.065-0.737,3.088-1.035
		c0.383-0.111,0.837-0.133,1.227-0.047c1.799,0.4,3.587,0.854,5.379,1.282c0.22,0.053,0.447,0.075,0.766,0.127
		c-0.143-0.419-0.285-0.692-0.324-0.98c-0.14-1.016-0.724-1.451-1.719-1.584c-1.037-0.14-2.055-0.432-3.195-0.682
		c0.932-1.094,1.762-2.056,2.57-3.036c0.146-0.175,0.328-0.452,0.282-0.625c-0.188-0.7-0.459-1.379-0.739-2.179
		c-1.308,1.628-2.541,3.132-3.732,4.667c-0.431,0.556-0.911,0.939-1.603,1.132c-0.9,0.252-1.772,0.606-2.699,0.932
		C229.586,102.947,229.804,103.576,230.04,104.258z M221.467,71.01c0.573,0.847,1.108,1.637,1.669,2.464
		c-2.171,1.508-4.269,2.966-6.4,4.446c0.434,0.627,0.813,1.174,1.228,1.775c2.166-1.496,4.271-2.948,6.419-4.433
		c0.584,0.829,1.14,1.618,1.719,2.442c0.561-0.397,1.078-0.765,1.624-1.153c-1.562-2.251-3.076-4.438-4.624-6.67
		C222.537,70.273,222.031,70.623,221.467,71.01z M164.493,29.788c-0.12,0.396-0.216,0.702-0.306,1.01
		c-0.748,2.585-1.503,5.169-2.229,7.762c-0.061,0.217,0.021,0.657,0.154,0.714c0.537,0.227,1.121,0.342,1.729,0.51
		c0.915-3.167,1.807-6.245,2.715-9.388C165.855,30.189,165.22,30.002,164.493,29.788z M25.989,148.592
		c3.285-0.355,6.474-0.701,9.75-1.057c-0.083-0.756-0.158-1.431-0.237-2.151c-3.303,0.36-6.492,0.708-9.739,1.063
		C25.84,147.187,25.908,147.826,25.989,148.592z M39.33,81.727c-0.367,0.668-0.686,1.248-1.041,1.893
		c2.9,1.596,5.729,3.151,8.593,4.728c0.36-0.656,0.682-1.24,1.012-1.843c-0.144-0.108-0.231-0.195-0.336-0.254
		C44.849,84.76,42.141,83.271,39.33,81.727z M33.637,106.479c-1.153-0.006-2.105,0.929-2.106,2.066
		c-0.001,1.126,0.967,2.097,2.097,2.104c1.139,0.006,2.078-0.94,2.084-2.098C35.717,107.374,34.826,106.484,33.637,106.479z
		 M239.86,114.252c-0.008-1.176-0.938-2.089-2.106-2.066c-1.133,0.021-2.055,0.938-2.07,2.057c-0.019,1.13,0.959,2.112,2.099,2.11
		C238.953,116.35,239.867,115.427,239.86,114.252z M154.464,30.37c-1.122-0.038-2.064,0.843-2.117,1.98
		c-0.057,1.191,0.804,2.142,1.978,2.184c1.185,0.042,2.123-0.828,2.167-2.006C156.533,31.363,155.637,30.41,154.464,30.37z
		 M84.483,44.833c0.015-1.184-0.883-2.102-2.061-2.106c-1.184-0.005-2.083,0.896-2.082,2.084c0.002,1.131,0.9,2.063,2.021,2.094
		C83.499,46.937,84.469,45.989,84.483,44.833z"/>
	<path fill="#FFFFFF" d="M139.329,157.083c0.925-1.49,1.768-2.846,2.607-4.201c1.04-1.677,2.091-3.348,3.112-5.035
		c0.23-0.382,0.479-0.559,0.946-0.55c1.596,0.03,3.193,0.012,4.852,0.012c0,7.742,0,15.44,0,23.18c-1.666,0-3.302,0-5.031,0
		c0-4.943,0-9.843,0-14.742c-0.059-0.017-0.115-0.034-0.173-0.052c-2.105,3.199-4.212,6.397-6.39,9.706
		c-2.155-3.264-4.251-6.433-6.347-9.602c-0.052,0.018-0.104,0.034-0.156,0.052c0,4.854,0,9.708,0,14.622c-1.688,0-3.298,0-4.977,0
		c0-7.692,0-15.394,0-23.16c1.754,0,3.473-0.018,5.19,0.021c0.195,0.005,0.437,0.29,0.568,0.499
		c1.753,2.791,3.491,5.591,5.233,8.388C138.922,156.471,139.088,156.715,139.329,157.083z"/>
	<path fill="#FFFFFF" d="M123.167,75.15c3.669,0,7.289-0.021,10.909,0.014c0.866,0.008,1.75,0.116,2.594,0.313
		c3.686,0.859,5.604,3.987,4.614,7.442c-0.415,1.453-1.396,2.449-2.721,3.267c0.473,0.24,0.868,0.434,1.257,0.642
		c2.06,1.097,3.003,2.839,2.979,5.147c-0.021,2.324-0.994,4.088-3.063,5.199c-1.651,0.889-3.457,1.148-5.293,1.166
		c-3.573,0.034-7.147,0.011-10.721,0.023c-0.419,0.001-0.638-0.079-0.637-0.571c0.015-7.446,0.014-14.895,0.019-22.342
		C123.103,75.381,123.132,75.31,123.167,75.15z M128.111,93.882c1.298,0,2.494,0.019,3.688-0.005
		c1.223-0.023,2.452-0.006,3.661-0.154c1.507-0.188,2.277-1.131,2.243-2.508c-0.029-1.175-0.747-2.059-2.104-2.237
		c-1.354-0.18-2.734-0.153-4.104-0.187c-1.115-0.025-2.23-0.005-3.385-0.005C128.111,90.517,128.111,92.151,128.111,93.882z
		 M128.105,84.385c2.078,0,4.088,0.023,6.097-0.02c0.399-0.009,0.894-0.167,1.166-0.436c0.417-0.411,0.86-0.941,0.973-1.487
		c0.289-1.388-0.469-2.458-1.962-2.625c-1.65-0.187-3.33-0.127-4.996-0.17c-0.414-0.01-0.827-0.001-1.277-0.001
		C128.105,81.294,128.105,82.832,128.105,84.385z"/>
	<path fill="#FFFFFF" d="M170.438,86.745c-0.017,6.835-5.365,12.005-12.403,11.988c-7.021-0.018-12.279-5.181-12.245-12.026
		c0.033-6.757,5.427-11.978,12.365-11.97C165.145,74.744,170.455,79.934,170.438,86.745z M151.167,86.695
		c-0.008,4.073,2.911,7.239,6.766,7.338c4.653,0.119,8.041-4.165,7-8.856c-0.824-3.717-3.95-6.044-7.601-5.659
		C153.707,79.899,151.173,82.849,151.167,86.695z"/>
	<path fill="#FFFFFF" d="M174.813,75.289c4.204,0,8.355-0.174,12.485,0.051c3.749,0.204,6.224,2.623,6.724,6.207
		c0.495,3.551-0.755,6.729-4.393,8.325c-0.132,0.059-0.258,0.133-0.444,0.231c1.86,2.723,3.698,5.412,5.644,8.255
		c-1.396,0-2.622-0.113-3.817,0.027c-1.611,0.19-2.606-0.355-3.404-1.793c-0.992-1.784-2.255-3.418-3.371-5.135
		c-0.265-0.408-0.556-0.562-1.037-0.546c-1.07,0.035-2.142,0.011-3.313,0.011c0,2.487,0,4.917,0,7.392c-1.736,0-3.373,0-5.07,0
		C174.813,90.602,174.813,82.923,174.813,75.289z M179.908,86.403c1.28,0,2.521,0.017,3.762-0.006c0.871-0.018,1.757,0,2.608-0.152
		c1.767-0.314,2.71-1.584,2.627-3.365c-0.087-1.875-1.36-3.013-3.543-3.074c-1.697-0.05-3.397-0.017-5.096-0.016
		c-0.115,0-0.231,0.042-0.358,0.066C179.908,82.036,179.908,84.172,179.908,86.403z"/>
	<path fill="#FFFFFF" d="M88.324,127.028c0,2.49,0,4.878,0,7.33c-1.726,0-3.38,0-5.091,0c0-7.658,0-15.315,0-23.067
		c0.222-0.012,0.46-0.036,0.698-0.036c3.373-0.001,6.748-0.077,10.115,0.04c1.421,0.049,2.902,0.311,4.226,0.816
		c2.863,1.095,4.361,3.751,4.261,6.995c-0.101,3.232-1.538,5.565-4.533,6.885c-0.109,0.048-0.209,0.121-0.376,0.22
		c1.849,2.706,3.673,5.379,5.558,8.137c-0.263,0.031-0.441,0.07-0.622,0.071c-1.499,0.005-2.999-0.021-4.497,0.017
		c-0.586,0.015-0.946-0.153-1.276-0.664c-1.341-2.077-2.747-4.112-4.1-6.182c-0.281-0.43-0.591-0.589-1.097-0.571
		C90.545,127.052,89.498,127.028,88.324,127.028z M88.314,122.42c2.091,0,4.064,0.102,6.022-0.028
		c1.891-0.125,3.005-1.434,3.009-3.193c0.003-1.848-1.069-3.095-3.024-3.243c-1.839-0.14-3.692-0.094-5.54-0.095
		c-0.156,0-0.445,0.26-0.447,0.402C88.305,118.307,88.314,120.352,88.314,122.42z"/>
	<path fill="#FFFFFF" d="M92.095,161.537c-1.77,0-3.41,0-5.132,0c0-1.377-0.019-2.694,0.03-4.009
		c0.005-0.129,0.42-0.347,0.646-0.349c2.623-0.024,5.247-0.017,7.871-0.017c0.471,0,0.94,0,1.474,0
		c0.022,0.28,0.058,0.496,0.058,0.711c0.003,2.923,0.014,5.848-0.014,8.771c-0.003,0.303-0.148,0.715-0.372,0.889
		c-4.245,3.302-8.972,4.306-14.103,2.601c-4.843-1.607-7.776-6.165-7.605-11.451c0.226-6.98,5.755-12.065,12.74-11.775
		c3.172,0.132,6.041,0.98,8.515,3.218c-1.045,1.269-2.084,2.529-3.188,3.868c-0.26-0.192-0.491-0.36-0.719-0.535
		c-1.825-1.408-3.895-2.062-6.176-1.733c-3.412,0.489-5.795,3.463-5.828,7.117c-0.034,3.704,2.127,6.59,5.55,7.262
		c1.963,0.385,3.875,0.104,5.663-0.856c0.412-0.221,0.629-0.481,0.602-0.993C92.061,163.389,92.095,162.519,92.095,161.537z"/>
	<path fill="#FFFFFF" d="M173.697,147.358c0,1.513,0,2.978,0,4.521c-4.104,0-8.166,0-12.367,0c0,1.086,0,2.099,0,3.11
		c0.001,1.579,0.001,1.579,1.578,1.579c2.799,0,5.599,0,8.397,0c0.271,0,0.543,0,0.882,0c0,1.515,0,2.971,0,4.537
		c-0.266,0-0.53,0-0.795,0c-3.101,0-6.198,0.013-9.297-0.013c-0.573-0.005-0.803,0.134-0.777,0.745c0.045,1.123,0.043,2.25,0,3.373
		c-0.021,0.596,0.175,0.767,0.765,0.763c3.624-0.024,7.248-0.013,10.872-0.013c0.292,0,0.585,0,0.903,0c0,1.563,0,3.022,0,4.525
		c-5.864,0-11.674,0-17.542,0c0-7.716,0-15.397,0-23.129C162.089,147.358,167.85,147.358,173.697,147.358z"/>
	<path fill="#FFFFFF" d="M112.042,120.453c3.668,0,7.254,0,10.891,0c0,1.54,0,3.001,0,4.582c-3.601,0-7.203,0-10.887,0
		c0,1.559-0.004,3.001,0.002,4.443c0.002,0.529,0.417,0.398,0.712,0.398c2.949,0.008,5.897,0.004,8.846,0.004c0.97,0,1.94,0,2.969,0
		c0,1.527,0,2.984,0,4.49c-5.85,0-11.683,0-17.569,0c0-7.664,0-15.321,0-23.049c5.785,0,11.583,0,17.424,0c0,1.465,0,2.903,0,4.429
		c-0.305,0.015-0.593,0.039-0.881,0.039c-3.572,0.003-7.146,0.017-10.719-0.011c-0.62-0.005-0.823,0.166-0.8,0.795
		C112.075,117.84,112.042,119.108,112.042,120.453z"/>
	<path fill="#FFFFFF" d="M190.897,134.39c-5.876,0-11.692,0-17.563,0c0-7.688,0-15.347,0-23.07c5.788,0,11.568,0,17.407,0
		c0,1.444,0,2.902,0,4.449c-4.093,0-8.177,0-12.317,0c0,1.594,0,3.1,0,4.687c3.604,0,7.189,0,10.826,0c0,1.54,0,3.001,0,4.558
		c-3.59,0-7.175,0-10.82,0c0,1.646,0,3.2,0,4.847c4.144,0,8.276,0,12.467,0C190.897,131.406,190.897,132.863,190.897,134.39z"/>
	<path fill="#FFFFFF" d="M151.524,134.418c-1.707,0-3.349,0.017-4.987-0.021c-0.183-0.004-0.435-0.29-0.523-0.5
		c-0.579-1.354-1.137-2.719-1.67-4.091c-0.157-0.407-0.371-0.575-0.821-0.572c-2.872,0.018-5.745,0.019-8.618-0.001
		c-0.453-0.003-0.657,0.168-0.814,0.571c-0.524,1.349-1.104,2.675-1.623,4.024c-0.167,0.434-0.375,0.616-0.861,0.605
		c-1.494-0.033-2.989-0.013-4.593-0.013c0.136-0.34,0.229-0.59,0.333-0.835c3.098-7.277,6.201-14.554,9.282-21.839
		c0.216-0.51,0.466-0.727,1.038-0.703c1.122,0.048,2.248,0.032,3.372,0.006c0.438-0.01,0.672,0.132,0.847,0.544
		c3.153,7.445,6.321,14.884,9.484,22.324C151.424,134.048,151.455,134.19,151.524,134.418z M139.229,117.254
		c-1.058,2.574-2.032,4.952-3.035,7.396c2.051,0,3.997,0,6.058,0C141.247,122.191,140.281,119.829,139.229,117.254z"/>
	<path fill="#FFFFFF" d="M124.286,170.528c-1.723,0-3.366,0.016-5.007-0.024c-0.174-0.004-0.407-0.313-0.5-0.527
		c-0.579-1.354-1.145-2.715-1.672-4.088c-0.172-0.446-0.41-0.588-0.881-0.583c-2.824,0.021-5.648,0.026-8.473-0.005
		c-0.521-0.006-0.745,0.176-0.922,0.636c-0.528,1.373-1.091,2.732-1.673,4.084c-0.089,0.207-0.343,0.481-0.526,0.486
		c-1.569,0.039-3.141,0.022-4.847,0.022c0.12-0.333,0.194-0.581,0.295-0.816c3.109-7.302,6.225-14.601,9.322-21.906
		c0.2-0.473,0.422-0.701,0.976-0.677c1.123,0.05,2.249,0.035,3.373,0.005c0.461-0.012,0.707,0.119,0.896,0.567
		c3.135,7.399,6.289,14.79,9.436,22.186C124.159,170.062,124.2,170.25,124.286,170.528z M112.077,153.565
		c-0.063,0.003-0.128,0.007-0.193,0.01c-0.967,2.366-1.934,4.733-2.931,7.174c2.063,0,3.992,0,6.06,0
		C114.01,158.296,113.044,155.931,112.077,153.565z"/>
	<path fill="#FFFFFF" d="M95.137,98.359c0.156-0.4,0.24-0.632,0.337-0.858c3.084-7.259,6.175-14.515,9.24-21.782
		c0.239-0.565,0.529-0.78,1.149-0.75c1.096,0.056,2.197,0.029,3.296,0.009c0.419-0.009,0.668,0.09,0.851,0.521
		c3.15,7.448,6.32,14.887,9.483,22.33c0.056,0.131,0.089,0.271,0.173,0.532c-1.168,0-2.256,0-3.344,0c-1.973,0-1.974,0-2.726-1.853
		c-0.376-0.926-0.771-1.844-1.115-2.78c-0.165-0.452-0.419-0.586-0.89-0.583c-2.822,0.021-5.646,0.023-8.468-0.002
		c-0.505-0.004-0.758,0.146-0.938,0.62c-0.506,1.328-1.079,2.633-1.587,3.961c-0.177,0.459-0.399,0.662-0.924,0.648
		C98.212,98.334,96.747,98.359,95.137,98.359z M110.393,88.589c-1.013-2.469-1.991-4.856-3.04-7.416
		c-0.583,1.408-1.083,2.604-1.574,3.804c-0.485,1.186-0.96,2.375-1.46,3.612C106.394,88.589,108.332,88.589,110.393,88.589z"/>
	<path fill="#FFFFFF" d="M194.38,149.923c-0.901,1.309-1.764,2.556-2.673,3.874c-0.257-0.161-0.479-0.299-0.703-0.439
		c-1.428-0.905-2.933-1.669-4.64-1.771c-0.844-0.05-1.73,0.121-2.552,0.354c-0.69,0.194-1.063,0.809-1.101,1.553
		c-0.038,0.761,0.23,1.423,0.937,1.74c0.93,0.417,1.9,0.745,2.868,1.07c1.56,0.527,3.17,0.929,4.688,1.555
		c2.087,0.86,3.539,2.359,3.784,4.72c0.438,4.208-1.668,7.167-5.827,7.989c-4.662,0.92-8.789-0.354-12.5-3.408
		c1.023-1.228,2.009-2.409,3.027-3.631c0.489,0.351,0.938,0.695,1.406,1.004c2.07,1.358,4.302,2.153,6.801,1.64
		c0.611-0.125,1.269-0.515,1.692-0.977c0.715-0.779,0.449-2.127-0.512-2.651c-0.867-0.473-1.822-0.802-2.766-1.111
		c-1.352-0.445-2.75-0.746-4.085-1.229c-3.397-1.229-4.715-3.131-4.618-6.511c0.083-2.939,1.972-5.396,5.057-6.237
		C186.927,146.287,190.796,147.28,194.38,149.923z"/>
	<path fill="#FFFFFF" d="M211.409,113.871c-0.906,1.31-1.769,2.556-2.519,3.64c-1.633-0.668-3.134-1.421-4.719-1.877
		c-0.887-0.255-1.931-0.118-2.873,0.03c-0.833,0.131-1.428,0.711-1.521,1.633c-0.097,0.949,0.231,1.625,1.218,2.012
		c1.296,0.508,2.654,0.851,3.976,1.298c1.201,0.408,2.425,0.782,3.573,1.311c2.136,0.982,3.421,2.629,3.545,5.052
		c0.139,2.69-0.71,4.92-3.066,6.411c-1.452,0.919-3.067,1.284-4.769,1.355c-3.608,0.15-6.853-0.857-9.731-3.034
		c-0.256-0.193-0.491-0.412-0.791-0.665c1.008-1.205,1.979-2.368,3.012-3.601c0.279,0.207,0.532,0.393,0.783,0.579
		c1.944,1.438,4.077,2.343,6.541,2.183c0.633-0.041,1.305-0.188,1.866-0.467c1.419-0.708,1.487-2.538,0.111-3.32
		c-0.792-0.45-1.69-0.73-2.564-1.018c-1.564-0.515-3.174-0.901-4.714-1.477c-2.623-0.977-4.07-2.84-4.098-5.732
		c-0.025-2.987,1.257-5.161,3.953-6.407c2.728-1.26,5.552-1.052,8.358-0.259C208.584,111.971,210.032,112.747,211.409,113.871z"/>
	<path fill="#FFFFFF" d="M79.088,114.486c-1.046,1.206-2.103,2.425-3.206,3.696c-2.027-1.839-4.267-2.97-7.04-2.527
		c-1.542,0.246-2.816,0.988-3.826,2.174c-2.384,2.797-2.35,7.352,0.068,10.084c0.941,1.063,2.1,1.763,3.498,2.037
		c1.354,0.264,2.729,0.265,3.978-0.311c1.229-0.568,2.36-1.354,3.527-2.039c0.973,0.96,2.032,2.006,3.098,3.058
		c-1.721,3.094-7.454,4.921-12.201,3.868c-4.945-1.098-8.646-5.382-9.06-10.493c-0.451-5.568,2.503-10.466,7.458-12.36
		C70.15,109.851,76.494,111.127,79.088,114.486z"/>
	<path fill="#FFFFFF" d="M157.391,115.968c-2.39,0-4.677,0-7.018,0c0-1.589,0-3.098,0-4.66c6.375,0,12.73,0,19.144,0
		c0,1.534,0,3.041,0,4.63c-2.329,0-4.617,0-7.004,0c0,6.188,0,12.294,0,18.44c-1.739,0-3.38,0-5.122,0
		C157.391,128.26,157.391,122.155,157.391,115.968z"/>
	<path fill="#FFFFFF" d="M76.824,75.188c1.699,0,3.336,0,5.065,0c0,6.17,0,12.3,0,18.508c3.876,0,7.661,0,11.499,0
		c0,1.563,0,3.051,0,4.601c-5.505,0-11.009,0-16.564,0C76.824,90.602,76.824,82.923,76.824,75.188z"/>
	<path fill="#FFFFFF" d="M106.311,214.708c-6.377-0.004-11.52-5.17-11.51-11.563c0.011-6.319,5.16-11.578,11.502-11.517
		c6.9,0.069,11.538,5.538,11.554,11.547C117.874,209.549,112.69,214.712,106.311,214.708z M114.776,203.239
		c0.022-4.617-3.708-8.486-8.207-8.508c-4.87-0.022-8.67,3.641-8.705,8.393c-0.034,4.652,3.729,8.487,8.365,8.521
		C110.936,211.679,114.752,207.925,114.776,203.239z"/>
	<path fill="#FFFFFF" d="M170.124,211.046c-2.597-0.021-4.687-2.151-4.666-4.761c0.021-2.596,2.161-4.693,4.764-4.669
		c2.597,0.024,4.688,2.163,4.663,4.769C174.86,208.988,172.737,211.066,170.124,211.046z M170.188,207.952
		c0.904-0.008,1.612-0.718,1.612-1.619c0.001-0.933-0.743-1.654-1.681-1.628c-0.904,0.025-1.581,0.743-1.565,1.66
		C168.569,207.278,169.27,207.959,170.188,207.952z"/>
	<path fill="#FFFFFF" d="M169.369,196.873c0.012,2.616-2.069,4.722-4.683,4.735c-2.609,0.014-4.736-2.084-4.751-4.686
		c-0.016-2.59,2.107-4.735,4.696-4.749C167.231,192.161,169.357,194.269,169.369,196.873z M164.662,195.277
		c-0.907,0-1.613,0.687-1.631,1.585c-0.018,0.926,0.712,1.683,1.624,1.685c0.883,0.003,1.672-0.802,1.651-1.682
		C166.285,195.98,165.556,195.277,164.662,195.277z"/>
	<path fill="#FFFFFF" d="M163.81,206.635c-0.005,2.601-2.123,4.707-4.722,4.698c-2.596-0.009-4.709-2.137-4.702-4.733
		c0.007-2.6,2.129-4.704,4.735-4.697C161.726,201.91,163.816,204.019,163.81,206.635z M159.118,208.232
		c0.901-0.005,1.615-0.722,1.614-1.618c-0.001-0.899-0.718-1.627-1.609-1.636c-0.925-0.011-1.664,0.738-1.646,1.669
		C157.491,207.552,158.201,208.237,159.118,208.232z"/>
	<path fill="#FFFFFF" d="M239.066,145.966c1.752,0.012,3.135,1.337,3.11,2.982c-0.023,1.659-1.386,2.969-3.063,2.949
		c-1.745-0.021-3.154-1.371-3.118-2.988C236.032,147.246,237.378,145.956,239.066,145.966z"/>
	<path fill="#FFFFFF" d="M236.449,162.913c0.971,0.276,1.799,0.512,2.769,0.788c-0.307,0.929-0.536,1.834-0.906,2.679
		c-0.246,0.561-0.779,0.813-1.438,0.627c-0.681-0.19-1.144-0.622-1.049-1.332C235.945,164.777,236.218,163.899,236.449,162.913z"/>
	<path fill="#FFFFFF" d="M228.043,86.723c0.887-0.447,1.655-0.834,2.521-1.271c0.395,0.83,0.813,1.59,1.122,2.392
		c0.273,0.717-0.006,1.308-0.641,1.639c-0.655,0.343-1.331,0.215-1.757-0.451C228.839,88.325,228.487,87.555,228.043,86.723z"/>
	<path fill="#FFFFFF" d="M67.685,52.574c0.004-1.569,1.368-2.905,2.947-2.889c1.658,0.018,3.146,1.561,3.11,3.229
		c-0.032,1.545-1.357,2.842-2.912,2.851C69.172,55.773,67.681,54.26,67.685,52.574z"/>
	<path fill="#FFFFFF" d="M64.354,209.986c1.592-0.005,2.918,1.299,2.931,2.883c0.014,1.668-1.475,3.193-3.129,3.206
		c-1.548,0.013-2.92-1.345-2.938-2.906C61.202,211.508,62.697,209.991,64.354,209.986z"/>
	<path fill="#FFFFFF" d="M216.506,201.899c0.762,0.638,1.425,1.191,2.17,1.816c-0.621,0.702-1.156,1.391-1.778,1.985
		c-0.558,0.533-1.203,0.492-1.76,0.021c-0.544-0.461-0.691-1.112-0.268-1.747C215.339,203.277,215.911,202.647,216.506,201.899z"/>
	<path fill="#FFFFFF" d="M54.334,202.843c-0.752,0.607-1.426,1.15-2.202,1.777c-0.568-0.752-1.15-1.427-1.623-2.173
		c-0.377-0.596-0.238-1.203,0.32-1.672c0.543-0.454,1.23-0.481,1.765,0.049C53.207,201.433,53.729,202.132,54.334,202.843z"/>
	<path fill="#FFFFFF" d="M46.014,74.64c0.467-0.622,0.833-1.193,1.28-1.69c1.046-1.158,2.529-1.26,3.839-0.312
		c1.287,0.932,1.639,2.414,0.853,3.76c-0.324,0.555-0.729,1.063-1.155,1.68C49.216,76.926,47.646,75.805,46.014,74.64z"/>
	<path fill="#FFFFFF" d="M186.623,47.635c1.055-1.716,2.046-3.329,3.12-5.077c0.739,0.531,1.517,0.952,2.115,1.552
		c0.998,0.998,0.96,2.45,0.044,3.697c-0.826,1.125-2.125,1.505-3.382,0.923C187.891,48.438,187.313,48.039,186.623,47.635z"/>
	<path fill="#FFFFFF" d="M109.357,31.683c0.593,0.813,1.185,1.627,1.849,2.538c-0.864,0.218-1.601,0.402-2.483,0.626
		c0.158-1.112,0.304-2.128,0.449-3.143C109.233,31.697,109.295,31.69,109.357,31.683z"/>
	<path fill="#FFFFFF" d="M37.875,173.09c0.293,0.73,0.575,1.433,0.891,2.216c-1.104,0-2.103,0-2.861,0
		C36.459,174.68,37.13,173.927,37.875,173.09z"/>
	<path fill="#FFFFFF" d="M104.678,204.729c-1.021,0-1.944-0.007-2.867,0.001c-1.212,0.011-1.959-0.589-1.945-1.574
		c0.013-0.957,0.748-1.538,1.916-1.529c0.944,0.008,1.888,0.002,2.94,0.002c0-0.581-0.003-1.097,0-1.61
		c0.004-0.575-0.025-1.153,0.029-1.724c0.087-0.91,0.686-1.484,1.481-1.5c0.833-0.017,1.489,0.562,1.545,1.508
		c0.063,1.065,0.015,2.14,0.015,3.338c0.7,0,1.313-0.001,1.925,0c0.425,0.001,0.852-0.018,1.274,0.012
		c1.039,0.066,1.678,0.68,1.661,1.561c-0.016,0.847-0.65,1.442-1.652,1.491c-0.748,0.037-1.499,0.012-2.249,0.014
		c-0.271,0.001-0.542,0.001-0.938,0.001c0,0.877,0,1.688,0,2.503c0,0.3,0.026,0.603-0.002,0.897c-0.087,0.889-0.751,1.483-1.6,1.459
		c-0.812-0.022-1.448-0.622-1.488-1.487c-0.04-0.848-0.003-1.697-0.008-2.548C104.718,205.279,104.693,205.016,104.678,204.729z"/>
</g>
</svg>
