<?xml version="1.0" encoding="utf-8"?>
<!-- Generator: Adobe Illustrator 16.0.0, SVG Export Plug-In . SVG Version: 6.00 Build 0)  -->
<!DOCTYPE svg PUBLIC "-//W3C//DTD SVG 1.1//EN" "http://www.w3.org/Graphics/SVG/1.1/DTD/svg11.dtd">
<svg version="1.1" id="Logo" xmlns="http://www.w3.org/2000/svg" xmlns:xlink="http://www.w3.org/1999/xlink" x="0px" y="0px"
	 width="244.378px" height="243.729px" viewBox="14.319 14.013 244.378 243.729"
	 enable-background="new 14.319 14.013 244.378 243.729" xml:space="preserve">
<g>
	<path fill="none" d="M157.605,222.647c1.045-0.174,2.102-0.31,3.101-0.668c0.661-0.238,1.009-0.025,1.323,0.568
		c2.268,4.275,4.563,8.536,6.844,12.805c1.467,2.744,3.589,4.787,6.621,5.598c3.591,0.96,6.853,0.16,9.572-2.436
		c1.187-1.132,1.764-2.563,1.979-4.143c-0.216,1.579-0.794,3.009-1.979,4.141c-2.719,2.594-5.981,3.395-9.572,2.435
		c-3.032-0.812-5.154-2.854-6.621-5.599c-2.281-4.268-4.576-8.529-6.844-12.804c-0.314-0.593-0.662-0.806-1.323-0.567
		c-0.999,0.357-2.056,0.494-3.101,0.666c-0.511,0.086-0.726,0.165-0.709,0.382C156.882,222.812,157.097,222.732,157.605,222.647z"/>
	<path fill="none" d="M125.414,224.286c-0.518-0.753-0.234-1.615,0.794-2.445c1.489-1.204,2.988-2.398,4.459-3.625
		c0.572-0.478,1.168-0.755,1.857-0.794c-0.689,0.039-1.285,0.316-1.858,0.794c-1.471,1.227-2.969,2.421-4.459,3.625
		C125.18,222.671,124.896,223.533,125.414,224.286c0.375,0.548,0.966,0.72,1.71,0.498
		C126.38,225.005,125.79,224.832,125.414,224.286z"/>
	<path fill="none" d="M158.666,228.598c-0.031-0.838-0.136-1.649-0.355-2.428C158.529,226.948,158.635,227.76,158.666,228.598z"/>
	<path fill="none" d="M144.798,218.084c0.55-0.217,1.019-0.556,1.372-1.035c0.655-0.885,0.496-1.876-0.406-2.495
		c-0.654-0.447-1.4-0.703-2.174-0.836c-3.576-0.619-7.156-1.219-10.734-1.828c-0.241-0.041-0.479-0.05-0.715-0.034
		c0.236-0.016,0.474-0.007,0.714,0.034c3.577,0.609,7.159,1.209,10.734,1.828c0.774,0.133,1.519,0.389,2.173,0.836
		c0.903,0.619,1.061,1.61,0.407,2.495C145.816,217.526,145.348,217.867,144.798,218.084c-0.91,0.359-1.845,0.583-2.806,0.595
		C142.953,218.667,143.889,218.443,144.798,218.084z"/>
	<path fill="none" d="M91.945,199.891c-0.249,1.051-0.487,2.104-0.714,3.16C91.458,201.994,91.696,200.941,91.945,199.891z"/>
	<path fill="none" d="M151.875,255.524c-0.029-2.041-0.012-4.082-0.014-6.125C151.861,251.442,151.845,253.483,151.875,255.524
		c0.017,1.16,0.604,1.756,1.625,1.731C152.479,257.279,151.893,256.683,151.875,255.524z"/>
	<path fill="none" d="M144.683,222.236c0.85,0.018,1.7,0.057,2.55,0.124C146.383,222.293,145.532,222.254,144.683,222.236z"/>
	<path fill="none" d="M255.945,139.187c0.078-2.876,0.055-5.752-0.079-8.627C256,133.434,256.023,136.311,255.945,139.187z"/>
	<path fill="none" d="M155.702,229.998c0.207-1.421-0.045-2.761-0.629-4.051c-0.644-1.427-1.753-2.3-3.239-2.735
		c-1.507-0.441-3.038-0.727-4.602-0.852c1.563,0.125,3.094,0.412,4.601,0.852c1.487,0.436,2.595,1.309,3.239,2.735
		C155.656,227.237,155.908,228.577,155.702,229.998c-0.356,2.412-1.411,4.512-2.89,6.405c-0.656,0.841-0.969,1.729-0.959,2.787
		c-0.008-1.058,0.304-1.946,0.961-2.787C154.292,234.511,155.348,232.41,155.702,229.998z"/>
	<path fill="none" d="M17.131,130.969c0.721-16.372,4.575-31.982,11.75-46.747c4.945-10.179,11.182-19.483,18.752-27.896
		C57.521,45.337,69.052,36.491,82.2,29.739c12.952-6.651,26.683-10.675,41.133-12.319c6.099-0.693,12.226-0.869,18.347-0.595
		c18.848,0.848,36.565,5.783,53.055,15.015c8.688,4.863,16.651,10.706,23.875,17.559c13.933,13.215,24.121,28.869,30.582,46.948
		c2.334,6.533,4.015,13.214,5.147,20.018c-1.132-6.804-2.813-13.486-5.147-20.021c-6.461-18.079-16.649-33.733-30.582-46.948
		c-7.223-6.853-15.187-12.696-23.875-17.559c-16.49-9.232-34.207-14.167-53.055-15.015c-6.12-0.275-12.247-0.098-18.347,0.595
		c-14.45,1.644-28.181,5.669-41.133,12.319c-13.148,6.752-24.679,15.598-34.567,26.587c-7.57,8.413-13.806,17.717-18.752,27.896
		c-7.175,14.765-11.029,30.375-11.75,46.747c-0.254,5.77-0.083,11.538,0.5,17.294C17.048,142.505,16.877,136.737,17.131,130.969z"/>
	<path fill="none" d="M124.974,234.39c-0.98-0.75-1.841-1.617-2.56-2.615C123.132,232.772,123.993,233.64,124.974,234.39z"/>
	<path fill="none" d="M158.691,228.972L158.691,228.972c0.015,3.308-1.311,6.119-3.147,8.74c-0.479,0.682-0.685,1.354-0.683,2.171
		c0,0.001,0,0.002,0,0.003c-0.002-0.818,0.203-1.49,0.683-2.171C157.38,235.094,158.707,232.283,158.691,228.972z"/>
	<path fill="none" d="M79.729,244.421c-8.956-4.688-17.182-10.436-24.708-17.184c-12.204-10.942-21.862-23.801-28.901-38.604
		c-5.63-11.841-9.259-24.272-10.88-37.294c-0.824-6.623-1.072-13.267-0.833-19.921c0.384-10.683,2.172-21.143,5.354-31.358
		c4.867-15.63,12.541-29.73,23.051-42.276C52.816,45.841,64.67,36.143,78.371,28.723c12.831-6.95,26.478-11.442,40.926-13.513
		c7.384-1.059,14.808-1.384,22.247-1.097c11.351,0.438,22.437,2.437,33.222,6.019c12.149,4.036,23.414,9.798,33.754,17.362
		c5.793,4.238,11.195,8.922,16.149,14.11c9.338,9.778,16.924,20.765,22.626,33.042c3.791,8.164,6.647,16.601,8.565,25.318
		c-1.917-8.718-4.774-17.155-8.565-25.319c-5.702-12.277-13.288-23.264-22.626-33.042c-4.954-5.187-10.356-9.872-16.149-14.11
		c-10.34-7.564-21.605-13.326-33.754-17.362c-10.785-3.582-21.871-5.581-33.222-6.019c-7.439-0.286-14.864,0.038-22.247,1.097
		c-14.448,2.071-28.094,6.563-40.926,13.513c-13.701,7.421-25.555,17.119-35.56,29.062C32.301,70.33,24.628,84.43,19.76,100.06
		c-3.181,10.215-4.969,20.674-5.354,31.358c-0.24,6.654,0.009,13.297,0.833,19.921c1.621,13.02,5.25,25.453,10.88,37.294
		c7.039,14.804,16.697,27.663,28.901,38.604C62.546,233.985,70.772,239.733,79.729,244.421
		c12.488,6.537,25.709,10.826,39.675,12.781c1.42,0.199,2.839,0.471,4.273,0.528c-1.434-0.058-2.853-0.329-4.272-0.528
		C105.439,255.247,92.218,250.958,79.729,244.421z"/>
	<path fill="none" d="M86.305,236.967c1.541,2.716,4.088,3.902,7.038,4.251c4.693,0.555,8.139-1.558,10.452-5.473
		c2.551-4.316,4.894-8.756,7.321-13.146c0.559-1.011,0.545-1.011,1.712-0.785c0.693,0.134,1.388,0.256,2.086,0.359
		c1.167,0.174,1.213,0.197,1.368,1.399c0.292,2.264,0.857,4.452,1.777,6.545c1.2,2.729,2.917,5.06,5.344,6.821
		c0.49,0.356,0.646,0.783,0.643,1.354c0-0.001,0-0.002,0-0.003c0.003-0.571-0.154-0.998-0.643-1.354
		c-2.427-1.762-4.144-4.094-5.344-6.822c-0.92-2.092-1.485-4.281-1.777-6.545c-0.155-1.202-0.201-1.225-1.368-1.399
		c-0.697-0.103-1.392-0.226-2.086-0.36c-1.166-0.225-1.153-0.225-1.712,0.786c-2.426,4.39-4.769,8.831-7.321,13.146
		c-2.313,3.915-5.76,6.028-10.452,5.473c-2.95-0.349-5.497-1.536-7.038-4.251c-0.843-1.484-1.092-3.06-0.975-4.68
		C85.213,233.904,85.462,235.48,86.305,236.967z"/>
	<path fill="#FFFFFF" d="M113.386,204.228c0.168,0.221,0.264,0.488,0.266,0.783c0.008,0.79-0.658,1.405-1.623,1.445
		c-0.05,0.002-0.1,0.001-0.15,0.003c0.051-0.001,0.102,0.001,0.153-0.001c0.965-0.041,1.631-0.656,1.624-1.443
		C113.651,204.718,113.556,204.449,113.386,204.228z"/>
	<path fill="#FFFFFF" d="M108.766,207.385c0.011,0.808,0.015,1.613-0.009,2.418c-0.03,0.991-0.593,1.601-1.439,1.605
		c-0.411,0.003-0.779-0.151-1.05-0.425c0.271,0.274,0.64,0.43,1.052,0.427c0.845-0.003,1.409-0.614,1.439-1.604
		c0.025-0.806,0.02-1.611,0.009-2.419c-0.009-0.639,0.291-0.917,0.92-0.909c0.049,0,0.099-0.002,0.148-0.001
		c-0.05-0.001-0.1-0.001-0.15-0.001C109.057,206.468,108.757,206.746,108.766,207.385z"/>
	<path fill="#FFFFFF" d="M102.255,206.442c-0.395-0.037-0.722-0.2-0.953-0.447c0.23,0.248,0.559,0.413,0.955,0.449
		c0.475,0.046,0.955,0.011,1.433,0.011v-0.002C103.211,206.453,102.73,206.488,102.255,206.442z"/>
	<path fill="#FFFFFF" d="M108.768,202.485c0.008,0.474,0.046,0.741,0.203,0.894c-0.155-0.152-0.192-0.42-0.201-0.892
		c-0.012-0.629,0.001-1.26-0.009-1.889c-0.011-0.599-0.158-1.08-0.413-1.41c0.254,0.33,0.399,0.811,0.41,1.408
		C108.769,201.226,108.756,201.856,108.768,202.485z"/>
	<path fill="#FFFFFF" d="M104.748,206.474c-0.352-0.006-0.704,0-1.056,0v0.002c0.353,0,0.706-0.006,1.058,0
		c0.479,0.01,0.752,0.047,0.908,0.198C105.503,206.521,105.228,206.483,104.748,206.474z"/>
	<path fill="#FFFFFF" d="M158.885,208.396c0.038-0.877,0.891-1.642,1.786-1.598l0,0
		C159.775,206.754,158.922,207.519,158.885,208.396c-0.031,0.698,0.401,1.338,1.019,1.623
		C159.287,209.733,158.855,209.095,158.885,208.396z"/>
	<path fill="#FFFFFF" d="M157.968,204.613c-1.244,0.827-2.036,2.241-2.034,3.899C155.933,206.854,156.725,205.44,157.968,204.613z"
		/>
	<path fill="#FFFFFF" d="M160.57,210.175c-0.185-0.004-0.36-0.047-0.527-0.107C160.21,210.128,160.386,210.171,160.57,210.175z"/>
	<path fill="#FFFFFF" d="M165.297,208.492c-0.006-1.928-1.187-3.583-2.86-4.291C164.11,204.909,165.291,206.564,165.297,208.492
		c0.006,2.571-2.072,4.659-4.65,4.678C163.227,213.153,165.305,211.063,165.297,208.492z"/>
	<path fill="#FFFFFF" d="M170.059,208.185c0.012-0.894,0.819-1.686,1.708-1.677h-0.001c-0.888-0.01-1.697,0.783-1.709,1.677
		c-0.012,0.891,0.779,1.697,1.674,1.709C170.837,209.882,170.046,209.075,170.059,208.185z"/>
	<path fill="#FFFFFF" d="M107.385,193.449c-5.184-0.002-9.585,3.432-11.068,8.163C97.8,196.882,102.202,193.448,107.385,193.449
		c6.381,0.006,11.508,5.159,11.509,11.575c0.001,3.209-1.278,6.1-3.356,8.188c2.079-2.088,3.358-4.979,3.358-8.189
		C118.894,198.608,113.767,193.454,107.385,193.449z"/>
	<path fill="#FFFFFF" d="M167.87,198.679c0.006,0.915-0.759,1.696-1.672,1.711c0.001,0,0.001,0,0.001,0
		c0.914-0.015,1.678-0.796,1.673-1.711c-0.004-0.888-0.82-1.673-1.726-1.658C167.052,197.006,167.867,197.791,167.87,198.679z"/>
	<path fill="#FFFFFF" d="M157.984,204.604c0.244-0.161,0.505-0.301,0.781-0.414C158.489,204.304,158.229,204.444,157.984,204.604z"
		/>
	<path fill="#FFFFFF" d="M167.037,208.211C167.037,208.211,167.037,208.211,167.037,208.211c0.033-2.614,2.127-4.653,4.768-4.637
		c2.648,0.016,4.589,2.005,4.573,4.691v-0.001c0.017-2.686-1.925-4.675-4.573-4.691
		C169.164,203.558,167.068,205.597,167.037,208.211z"/>
	<path fill="#FFFFFF" d="M115.983,205.065c-0.015,1.608-0.474,3.1-1.249,4.375C115.51,208.165,115.968,206.675,115.983,205.065
		c0.045-4.656-3.812-8.571-8.463-8.59h0C112.17,196.494,116.027,200.409,115.983,205.065z"/>
	<path fill="#FFFFFF" d="M258.598,141.197c0.286-7.415-0.045-14.814-1.097-22.175c-0.435-3.053-0.984-6.072-1.641-9.058
		c-1.918-8.717-4.774-17.154-8.565-25.318c-5.702-12.277-13.288-23.264-22.626-33.042c-4.954-5.188-10.356-9.872-16.149-14.11
		c-10.34-7.564-21.604-13.326-33.754-17.362c-10.785-3.582-21.871-5.581-33.222-6.019c-7.439-0.287-14.863,0.038-22.247,1.097
		c-14.448,2.071-28.095,6.563-40.926,13.513c-13.701,7.42-25.555,17.118-35.559,29.061C32.302,70.33,24.628,84.43,19.761,100.06
		c-3.182,10.215-4.97,20.675-5.354,31.358c-0.239,6.654,0.009,13.298,0.833,19.921c1.621,13.021,5.25,25.453,10.88,37.294
		c7.039,14.804,16.697,27.662,28.901,38.604c7.526,6.748,15.752,12.496,24.708,17.184c12.489,6.537,25.71,10.826,39.676,12.781
		c1.42,0.199,2.838,0.471,4.272,0.528c0.478,0.019,0.957,0.014,1.439-0.025c1.422-0.115,1.92-0.66,1.922-2.088
		c0.01-6.101-0.002-12.201,0.014-18.302c0.003-1.027-0.379-1.76-1.258-2.323c-0.29-0.186-0.552-0.397-0.82-0.603
		c-0.98-0.75-1.841-1.617-2.56-2.615c-0.305-0.425-0.588-0.87-0.849-1.334c-1.856-3.297-2.519-6.879-2.549-10.615
		c-0.025-2.992,1.643-5.213,4.555-5.946c2.614-0.66,5.242-1.272,7.862-1.911c0.236-0.057,0.471-0.097,0.708-0.112
		c0.236-0.016,0.474-0.007,0.715,0.034c3.578,0.609,7.158,1.209,10.734,1.828c0.773,0.133,1.52,0.389,2.174,0.836
		c0.902,0.619,1.062,1.61,0.406,2.495c-0.354,0.479-0.822,0.818-1.372,1.035c-0.909,0.359-1.845,0.583-2.806,0.595
		c-0.32,0.004-0.643-0.016-0.969-0.062c-2.596-0.367-5.192-0.735-7.778-1.155c-0.252-0.041-0.492-0.054-0.721-0.04
		c-0.688,0.039-1.285,0.316-1.857,0.794c-1.471,1.227-2.97,2.421-4.459,3.625c-1.028,0.83-1.312,1.692-0.794,2.445
		c0.375,0.546,0.966,0.719,1.71,0.498c0.248-0.074,0.513-0.191,0.793-0.354c1.434-0.834,2.973-1.365,4.6-1.654
		c1.495-0.266,3.01-0.254,4.52-0.332c2.547-0.129,5.096-0.263,7.646-0.208c0.85,0.018,1.7,0.057,2.55,0.124
		c1.563,0.125,3.095,0.41,4.602,0.852c1.486,0.436,2.596,1.309,3.239,2.735c0.584,1.29,0.836,2.63,0.629,4.051
		c-0.354,2.412-1.41,4.513-2.888,6.405c-0.657,0.841-0.969,1.729-0.961,2.787c0.023,2.621,0.008,5.242,0.008,7.863
		c0,0.782-0.002,1.564,0,2.346c0.002,2.043-0.016,4.084,0.014,6.125c0.018,1.158,0.604,1.755,1.625,1.731
		c0.146-0.004,0.3-0.02,0.463-0.049c0.348-0.062,0.689-0.147,1.038-0.201c11.517-1.759,22.542-5.118,33.104-10.03
		c12.273-5.707,23.258-13.295,33.03-22.638c5.113-4.887,9.734-10.213,13.927-15.914c7.637-10.384,13.441-21.71,17.506-33.932
		C256.163,163.685,258.16,152.572,258.598,141.197z M150.473,219.796c-0.473-0.075-0.947-0.131-1.421-0.208
		c-0.721-0.117-0.78-0.247-0.383-0.862c0.948-1.472,1.25-3.024,0.528-4.671c-0.521-1.188-1.497-1.937-2.635-2.493
		c-0.981-0.48-2.035-0.736-3.107-0.918c-3.279-0.56-6.559-1.113-9.84-1.668c-1.007-0.172-2.001-0.143-2.999,0.105
		c-2.594,0.643-5.194,1.259-7.79,1.891c-3.607,0.879-6.287,3.813-6.784,7.477c-0.091,0.674-0.379,0.847-1.003,0.746
		c-0.997-0.159-1.985-0.346-2.961-0.605c-1.387-0.373-2.074-0.093-2.763,1.146c-2.609,4.691-5.222,9.384-7.81,14.088
		c-1.358,2.469-3.292,4.138-6.16,4.473c-1.814,0.213-3.53-0.246-5.034-1.263c-2.015-1.365-2.287-3.421-1.862-5.595
		c1.158-5.91,2.373-11.813,3.589-17.711c1.068-5.186,2.152-10.367,3.393-15.513c0.201-0.833,0.423-1.665,0.706-2.472
		c0.614-1.75,1.734-3.061,3.494-3.746c0.778-0.303,1.223-0.828,1.374-1.652c0.173-0.947,0.388-1.132,1.368-1.141
		c2.168-0.018,4.337-0.004,6.504-0.004v-0.003c2.067,0,4.135,0.012,6.202-0.005c0.897-0.008,1.641,0.189,2.041,1.102
		c0.095,0.219,0.289,0.457,0.498,0.553c0.791,0.359,0.852,1.004,0.846,1.752c-0.011,1.31-0.083,2.623,0.09,3.928
		c0.519,3.924,4.388,6.197,8.048,4.666c0.78-0.324,1.139-0.162,1.583,0.508c2.376,3.582,7.553,3.462,9.801-0.219
		c0.33-0.539,0.591-0.666,1.195-0.395c2.868,1.301,5.836,0.396,7.495-2.266c0.318-0.51,0.603-0.608,1.161-0.361
		c4.041,1.788,8.09-0.723,8.371-5.182c0.044-0.702-0.005-1.411,0.041-2.114c0.096-1.447,0.607-1.955,2.034-1.961
		c4.032-0.015,8.067-0.013,12.099-0.003c1.1,0.003,1.247,0.125,1.508,1.17c0.178,0.709,0.565,1.24,1.226,1.542
		c2.12,0.967,3.25,2.678,3.792,4.885c1.576,6.416,2.83,12.9,4.134,19.374c1.002,4.967,1.976,9.939,2.944,14.911
		c0.816,4.179-0.936,6.612-5.155,7.206c-2.761,0.388-5.724-1.316-7.228-4.133c-2.555-4.78-5.113-9.559-7.681-14.33
		c-0.789-1.467-1.386-1.624-2.96-1.081C157.557,219.922,154.061,220.36,150.473,219.796z M121.506,189.08
		c0.07-1.282,0.872-2.282,1.96-2.616c1.145-0.351,2.298,0.002,3.06,0.936c0.311,0.382,0.524,0.816,0.557,1.304
		c0.174,2.54,0.25,5.093-0.017,7.623c-0.215,2.038-2.566,3.03-4.272,1.916c-0.921-0.603-1.302-1.517-1.323-2.584
		c-0.021-1.058-0.005-2.116-0.005-3.177h0.026C121.492,191.349,121.443,190.212,121.506,189.08z M135.828,192.562
		c0,1.938,0.018,3.877-0.006,5.815c-0.021,1.683-1.089,2.845-2.638,2.933c-1.563,0.092-2.756-0.933-2.983-2.58
		c-0.058-0.42-0.094-0.853-0.074-1.276c0.154-3.295,0.145-6.591,0.004-9.888c-0.033-0.781-0.006-1.57,0.347-2.291
		c0.565-1.152,1.838-1.762,3.096-1.514c1.276,0.254,2.205,1.307,2.233,2.684c0.043,2.039,0.011,4.078,0.012,6.117H135.828z
		 M144.581,194.839c0.032,0.553,0.004,1.105-0.132,1.649c-0.338,1.356-1.535,2.284-2.862,2.216c-1.377-0.07-2.53-1.037-2.637-2.446
		c-0.112-1.473-0.025-2.964-0.025-4.446c-0.017,0-0.034,0-0.05,0c0-1.285-0.018-2.568,0.006-3.85
		c0.02-1.166,0.485-2.104,1.566-2.645c1.953-0.982,4.187,0.469,4.1,2.735C144.458,190.319,144.447,192.577,144.581,194.839z
		 M153.213,191.244c0,0.678,0.028,1.356-0.006,2.035c-0.081,1.637-1.292,2.768-2.9,2.745c-1.572-0.021-2.668-1.157-2.693-2.821
		c-0.018-1.356-0.018-2.715,0.003-4.072c0.024-1.618,1.116-2.748,2.653-2.782c1.582-0.039,2.817,1.049,2.929,2.635
		c0.053,0.75,0.009,1.507,0.008,2.261H153.213z M223.35,218.269c-13.242,13.98-28.943,24.185-47.074,30.658
		c-6.474,2.313-13.114,3.982-19.89,5.129c-1.483,0.252-1.512,0.227-1.512-1.238c-0.001-4.312,0.011-8.62-0.013-12.932l0,0
		c0-0.001,0-0.002,0-0.003c-0.002-0.817,0.203-1.489,0.683-2.171c1.837-2.621,3.162-5.433,3.147-8.741
		c-0.001-0.127-0.021-0.247-0.025-0.373c-0.031-0.838-0.137-1.649-0.355-2.428c-0.253-0.894-0.633-1.75-1.148-2.573
		c-0.164-0.262-0.256-0.441-0.266-0.571c-0.017-0.217,0.198-0.296,0.709-0.382c1.045-0.172,2.102-0.309,3.101-0.666
		c0.661-0.238,1.009-0.025,1.323,0.567c2.268,4.274,4.563,8.536,6.844,12.804c1.467,2.745,3.589,4.787,6.621,5.599
		c3.591,0.96,6.854,0.159,9.572-2.435c1.185-1.132,1.763-2.562,1.979-4.141c0.03-0.226,0.054-0.454,0.07-0.686
		c0.13-1.815-0.281-3.559-0.627-5.313c-2.077-10.56-4.049-21.142-6.512-31.623c-0.521-2.216-1.311-4.295-3.074-5.864
		c-0.018-0.016-0.033-0.035-0.055-0.052c-1.139-0.845-2.205-1.687-2.861-3.069c-0.547-1.152-1.846-1.537-3.109-1.545
		c-4.311-0.027-8.631-0.173-12.928,0.071c-1.633,0.093-2.605-0.138-3.709-1.386c-1.67-1.891-4.531-2.088-6.748-0.769
		c-0.678,0.402-1.038,0.332-1.563-0.253c-1.82-2.029-4.742-2.445-7.174-1.042c-0.615,0.356-0.954,0.341-1.454-0.207
		c-2.647-2.899-7.089-2.502-9.203,0.822c-0.401,0.631-0.73,0.7-1.396,0.415c-2.98-1.276-6.091-0.155-7.586,2.706
		c-0.268,0.51-0.512,0.677-1.044,0.354c-0.884-0.539-1.874-0.729-2.898-0.731c-4.285-0.003-8.57-0.015-12.855,0.005
		c-1.941,0.009-3.424,0.771-4.092,2.718c-0.133,0.39-0.407,0.623-0.747,0.812c-2.219,1.227-3.6,3.129-4.315,5.513
		c-0.46,1.534-0.853,3.086-1.221,4.643c-0.249,1.051-0.487,2.104-0.714,3.16c-0.283,1.322-0.56,2.646-0.835,3.97
		c-1.638,7.873-3.22,15.756-4.834,23.633c-0.112,0.548-0.192,1.092-0.231,1.631c-0.117,1.62,0.132,3.195,0.975,4.68
		c1.541,2.715,4.088,3.902,7.038,4.251c4.692,0.556,8.139-1.558,10.452-5.473c2.552-4.315,4.895-8.757,7.321-13.146
		c0.559-1.011,0.546-1.011,1.712-0.786c0.694,0.135,1.389,0.258,2.086,0.36c1.167,0.175,1.213,0.197,1.368,1.399
		c0.292,2.264,0.857,4.453,1.777,6.545c1.2,2.729,2.917,5.061,5.344,6.822c0.489,0.355,0.646,0.782,0.643,1.354
		c0,0.001,0,0.002,0,0.003l0,0c-0.013,2.597-0.005,5.192-0.006,7.789s0.004,5.19-0.003,7.788c-0.002,1.083-0.122,1.172-1.193,1.049
		c-13.708-1.563-26.761-5.361-39.13-11.477c-9.335-4.616-17.932-10.344-25.779-17.202c-9.53-8.331-17.557-17.913-24.046-28.773
		c-8.751-14.646-14.098-30.45-16.085-47.401c-0.07-0.602-0.113-1.204-0.174-1.806c-0.583-5.756-0.754-11.524-0.5-17.294
		c0.721-16.372,4.575-31.982,11.75-46.747c4.946-10.179,11.182-19.483,18.752-27.896C57.521,45.334,69.052,36.488,82.2,29.736
		c12.952-6.65,26.683-10.675,41.133-12.319c6.1-0.693,12.227-0.87,18.347-0.595c18.848,0.848,36.564,5.783,53.055,15.015
		c8.688,4.863,16.652,10.706,23.875,17.559c13.933,13.215,24.121,28.869,30.582,46.948c2.335,6.535,4.016,13.217,5.147,20.021
		c0.452,2.711,0.825,5.439,1.104,8.189c0.203,2,0.33,4.001,0.423,6.005c0.134,2.875,0.157,5.751,0.079,8.627
		c-0.021,0.736-0.029,1.473-0.063,2.209c-0.889,19.593-6.18,37.922-16.07,54.894C235.171,204.251,229.688,211.58,223.35,218.269z"/>
	<path fill="#FFFFFF" d="M107.292,213.583c0.042,0,0.083-0.006,0.126-0.006C107.375,213.577,107.334,213.583,107.292,213.583
		L107.292,213.583z"/>
	<path fill="#FFFFFF" d="M137.037,222.444c-1.51,0.078-3.025,0.066-4.52,0.332c-1.627,0.289-3.166,0.82-4.6,1.654
		c-0.28,0.162-0.545,0.279-0.793,0.354c0.249-0.074,0.514-0.191,0.794-0.354c1.434-0.834,2.973-1.365,4.6-1.654
		C134.013,222.511,135.528,222.522,137.037,222.444c2.549-0.129,5.097-0.263,7.646-0.208
		C142.133,222.182,139.584,222.315,137.037,222.444z"/>
	<path fill="#FFFFFF" d="M141.023,218.617c-2.594-0.367-5.19-0.735-7.777-1.155c-0.252-0.041-0.493-0.054-0.722-0.04
		c0.229-0.014,0.469-0.001,0.721,0.04C135.831,217.882,138.428,218.25,141.023,218.617z"/>
	<path fill="#FFFFFF" d="M153.963,257.207c-0.163,0.029-0.317,0.045-0.463,0.049C153.646,257.252,153.801,257.236,153.963,257.207
		c0.35-0.062,0.691-0.147,1.039-0.201c11.516-1.759,22.542-5.118,33.104-10.03c-10.563,4.912-21.588,8.271-33.104,10.03
		C154.652,257.06,154.311,257.146,153.963,257.207z"/>
	<path fill="#FFFFFF" d="M141.992,218.679c-0.32,0.004-0.643-0.016-0.969-0.062C141.35,218.663,141.672,218.683,141.992,218.679z"/>
	<path fill="#FFFFFF" d="M255.86,109.964c0.656,2.986,1.206,6.005,1.641,9.058c1.052,7.361,1.383,14.76,1.097,22.175
		c-0.438,11.375-2.435,22.487-6.029,33.295c-4.064,12.222-9.869,23.548-17.506,33.932c7.638-10.384,13.441-21.71,17.508-33.932
		c3.595-10.808,5.592-21.92,6.029-33.295c0.285-7.415-0.045-14.814-1.098-22.173C257.066,115.97,256.518,112.951,255.86,109.964z"/>
	<path fill="#FFFFFF" d="M188.105,246.976c12.274-5.707,23.26-13.295,33.031-22.638c5.113-4.887,9.733-10.213,13.926-15.914
		c-4.192,5.701-8.813,11.027-13.927,15.914C211.363,233.681,200.379,241.269,188.105,246.976z"/>
	<path fill="#FFFFFF" d="M131.433,211.968c-2.62,0.639-5.248,1.251-7.862,1.911c-2.912,0.733-4.58,2.954-4.555,5.946
		c0.03,3.736,0.693,7.318,2.549,10.615c0.261,0.464,0.544,0.909,0.849,1.334c-0.305-0.425-0.587-0.87-0.848-1.334
		c-1.855-3.297-2.519-6.879-2.549-10.615c-0.024-2.992,1.643-5.213,4.555-5.946C126.186,213.219,128.814,212.606,131.433,211.968
		c0.236-0.057,0.471-0.097,0.708-0.112C131.904,211.871,131.669,211.911,131.433,211.968z"/>
	<path fill="#FFFFFF" d="M127.052,237.315c-0.016,6.101-0.004,12.201-0.014,18.302c-0.002,1.428-0.5,1.973-1.922,2.088
		c-0.482,0.039-0.961,0.044-1.439,0.025c0.478,0.019,0.958,0.014,1.44-0.025c1.423-0.115,1.92-0.66,1.922-2.088
		c0.01-6.101-0.001-12.201,0.014-18.302c0.003-1.027-0.378-1.762-1.258-2.323c-0.29-0.185-0.552-0.397-0.821-0.603
		c0.269,0.205,0.531,0.417,0.82,0.603C126.673,235.556,127.055,236.288,127.052,237.315z"/>
	<path fill="#FFFFFF" d="M107.384,193.45c-5.182-0.002-9.583,3.432-11.067,8.162c-0.342,1.092-0.529,2.252-0.534,3.455
		c-0.027,6.302,5.234,11.523,11.606,11.521c3.194-0.002,6.071-1.288,8.149-3.377c2.078-2.088,3.357-4.979,3.356-8.188
		C118.893,198.608,113.766,193.455,107.384,193.45z M107.292,213.583L107.292,213.583L107.292,213.583
		c-4.722-0.016-8.536-3.859-8.523-8.589c0.014-4.771,3.885-8.539,8.75-8.519h0h0c4.651,0.019,8.508,3.934,8.464,8.59
		c-0.016,1.609-0.474,3.1-1.25,4.375c-1.497,2.464-4.197,4.104-7.316,4.137C107.375,213.577,107.334,213.583,107.292,213.583z"/>
	<path fill="#FFFFFF" d="M95.783,205.067c0.005-1.203,0.192-2.363,0.534-3.455c-0.342,1.092-0.529,2.253-0.535,3.457
		c-0.026,6.301,5.235,11.521,11.606,11.521c3.195-0.001,6.072-1.288,8.15-3.378c-2.078,2.089-4.955,3.375-8.149,3.377
		C101.017,216.591,95.756,211.369,95.783,205.067z"/>
	<path fill="#FFFFFF" d="M166.173,203.396c2.588-0.012,4.716-2.136,4.718-4.715c0.002-2.537-2.109-4.627-4.683-4.636
		c-2.668-0.011-4.675,1.995-4.677,4.672C161.529,201.274,163.643,203.403,166.173,203.396z M166.146,197.021
		c0.905-0.015,1.722,0.771,1.726,1.658c0.005,0.915-0.759,1.696-1.673,1.711c0,0,0,0-0.001,0l0,0
		c-0.908,0.014-1.65-0.752-1.65-1.703C164.548,197.749,165.232,197.034,166.146,197.021z"/>
	<path fill="#FFFFFF" d="M170.891,198.681c0.002-2.537-2.108-4.627-4.683-4.636C168.781,194.054,170.893,196.144,170.891,198.681z"
		/>
	<path fill="#FFFFFF" d="M165.296,208.492c-0.005-1.928-1.186-3.583-2.859-4.291c-0.559-0.236-1.172-0.367-1.814-0.368
		c-0.665,0-1.292,0.126-1.856,0.357c-0.276,0.113-0.537,0.253-0.781,0.414c-0.005,0.004-0.011,0.006-0.017,0.009
		c-1.243,0.827-2.035,2.24-2.034,3.899c0.006,2.648,2.058,4.676,4.713,4.657C163.225,213.151,165.303,211.063,165.296,208.492z
		 M160.57,210.175c-0.185-0.004-0.36-0.047-0.527-0.107c-0.047-0.017-0.096-0.028-0.14-0.049c-0.617-0.285-1.05-0.925-1.02-1.623
		c0.038-0.877,0.892-1.642,1.787-1.598l0,0c0.001,0,0.001,0,0.001,0c0.913,0.044,1.643,0.854,1.598,1.771
		C162.229,209.431,161.419,210.196,160.57,210.175z"/>
	<path fill="#FFFFFF" d="M157.968,204.613c0.006-0.003,0.012-0.005,0.017-0.009C157.979,204.608,157.974,204.61,157.968,204.613z"/>
	<path fill="#FFFFFF" d="M158.766,204.19c0.564-0.231,1.191-0.357,1.856-0.357C159.956,203.833,159.33,203.959,158.766,204.19z"/>
	<path fill="#FFFFFF" d="M171.805,203.574c-2.641-0.017-4.734,2.022-4.768,4.638c-0.031,2.482,2.154,4.682,4.678,4.708
		c2.543,0.029,4.646-2.073,4.663-4.654C176.394,205.579,174.453,203.59,171.805,203.574z M171.73,209.894
		c-0.895-0.012-1.686-0.818-1.674-1.709c0.012-0.894,0.821-1.687,1.709-1.677h0.001h0.001c0.887,0.011,1.686,0.824,1.676,1.711
		C173.434,209.103,172.616,209.903,171.73,209.894z"/>
	<path fill="#FFFFFF" d="M171.715,212.92c-2.523-0.026-4.709-2.226-4.678-4.708l0,0C167.006,210.694,169.189,212.896,171.715,212.92
		c2.543,0.029,4.646-2.071,4.663-4.653v-0.001C176.36,210.847,174.258,212.949,171.715,212.92z"/>
	<path fill="#FFFFFF" d="M113.652,205.011c-0.002-0.295-0.098-0.563-0.266-0.783c-0.283-0.369-0.772-0.609-1.381-0.635
		c-0.705-0.029-1.411-0.007-2.116-0.018c-0.487-0.008-0.762-0.044-0.918-0.196c-0.157-0.152-0.194-0.42-0.203-0.894
		c-0.012-0.629,0.001-1.26-0.009-1.889c-0.011-0.598-0.156-1.078-0.41-1.408s-0.615-0.51-1.058-0.506
		c-0.888,0.01-1.399,0.668-1.426,1.863c-0.017,0.705-0.02,1.411-0.011,2.117c0.008,0.631-0.279,0.92-0.916,0.913
		c-0.882-0.011-1.766-0.023-2.645,0.028c-0.805,0.047-1.359,0.683-1.354,1.444c0.002,0.37,0.134,0.699,0.363,0.946
		c0.23,0.247,0.558,0.41,0.953,0.447c0.475,0.046,0.956,0.011,1.435,0.011v0.002c0,0,0.001,0,0.002,0v0.019
		c0.353,0,0.705-0.006,1.056,0c0.48,0.01,0.755,0.047,0.91,0.2c0.156,0.153,0.192,0.424,0.193,0.905
		c0.002,0.754-0.084,1.512-0.049,2.264c0.022,0.474,0.196,0.866,0.466,1.141c0.271,0.273,0.639,0.428,1.05,0.425
		c0.846-0.005,1.409-0.614,1.439-1.605c0.024-0.805,0.02-1.61,0.009-2.418c-0.009-0.639,0.291-0.917,0.92-0.909
		c0.05,0,0.1,0,0.15,0.001c0.681,0.006,1.362,0.007,2.042-0.018c0.05-0.002,0.101-0.001,0.15-0.003
		C112.994,206.416,113.66,205.801,113.652,205.011z"/>
	<path fill="#FFFFFF" d="M111.878,206.459c-0.68,0.024-1.362,0.023-2.042,0.018C110.517,206.482,111.198,206.484,111.878,206.459z"
		/>
	<path fill="#FFFFFF" d="M109.889,203.575c0.705,0.011,1.411-0.012,2.116,0.018c0.609,0.025,1.098,0.266,1.381,0.635
		c-0.283-0.37-0.772-0.611-1.383-0.637c-0.705-0.027-1.411-0.007-2.116-0.018c-0.485-0.008-0.76-0.043-0.917-0.194
		C109.127,203.531,109.402,203.567,109.889,203.575z"/>
	<rect x="103.69" y="206.455" fill="#FFFFFF" width="0.002" height="0.019"/>
	<path fill="#FFFFFF" d="M105.851,207.579c-0.001-0.481-0.037-0.752-0.193-0.905c0.154,0.154,0.19,0.425,0.191,0.903
		c0.002,0.754-0.084,1.512-0.049,2.264c0.022,0.475,0.196,0.868,0.468,1.143c-0.271-0.274-0.444-0.667-0.466-1.141
		C105.767,209.091,105.853,208.333,105.851,207.579z"/>
	<path fill="#FFFFFF" d="M102.293,203.604c0.879-0.052,1.763-0.039,2.645-0.028c0.637,0.007,0.924-0.282,0.916-0.913
		c-0.009-0.706-0.006-1.412,0.011-2.117c0.027-1.195,0.538-1.854,1.426-1.863c0.442-0.004,0.804,0.176,1.058,0.506
		c-0.254-0.331-0.616-0.512-1.06-0.508c-0.888,0.01-1.398,0.668-1.426,1.863c-0.017,0.705-0.02,1.411-0.011,2.117
		c0.008,0.631-0.278,0.92-0.916,0.913c-0.881-0.011-1.765-0.022-2.645,0.028c-0.805,0.047-1.36,0.684-1.354,1.444
		c0.002,0.37,0.135,0.701,0.365,0.948c-0.229-0.247-0.361-0.576-0.363-0.946C100.934,204.287,101.488,203.651,102.293,203.604z"/>
	<path fill="#FFFFFF" d="M40.815,90.054l0.029,0.015c1.769,0.929,3.924,0.407,4.884-1.421c0.96-1.827,0.182-3.853-1.585-4.782
		l-0.03-0.015c-1.769-0.929-3.924-0.407-4.884,1.42C38.269,87.099,39.047,89.125,40.815,90.054z"/>
	<path fill="#FFFFFF" d="M186.177,40.831l0.015-0.029c0.49-0.984,0.057-1.832-1.062-2.388l-2.28-1.134l-1.49,2.996l2.326,1.156
		C184.803,41.988,185.74,41.71,186.177,40.831z"/>
	<path fill="#FFFFFF" d="M125.4,34.424c2.087-0.207,3.356-1.754,3.152-3.808l-0.003-0.032c-0.204-2.055-1.755-3.356-3.842-3.15
		l-1.971,0.195l0.692,6.99L125.4,34.424z"/>
	<path fill="#FFFFFF" d="M223.007,75.92l0.026-0.02c1.662-1.224,1.99-3.222,0.746-4.912l-1.174-1.597l-5.658,4.165l1.175,1.597
		C219.365,76.842,221.344,77.143,223.007,75.92z"/>
	<path fill="#FFFFFF" d="M37.69,174.813l-0.031,0.013c-1.898,0.809-2.677,2.679-1.854,4.608l0.777,1.823l6.463-2.755l-0.777-1.822
		C41.446,174.75,39.589,174.004,37.69,174.813z"/>
	<polygon fill="#FFFFFF" points="27.542,138.144 31.349,139.624 31.294,136.528 	"/>
	<path fill="#FFFFFF" d="M210.833,210.969c-1.363-1.459-3.571-1.676-5.079-0.267c-1.509,1.408-1.441,3.579-0.078,5.038l0.023,0.024
		c1.363,1.459,3.57,1.676,5.078,0.268c1.51-1.409,1.441-3.579,0.078-5.039L210.833,210.969z"/>
	<path fill="#FFFFFF" d="M79.381,211.021c-0.729,0.033-1.457,0.129-2.186,0.135c-1.546,0.012-2.269-0.594-2.518-2.133
		c-0.161-0.994-0.213-2.006-0.354-3.004c-0.165-1.178-0.495-1.467-1.674-1.504c-0.958-0.029-1.917,0.012-2.873-0.046
		c-1.752-0.104-2.497-0.858-2.596-2.604c-0.041-0.704-0.009-1.412-0.025-2.118c-0.024-1.065-0.295-1.381-1.359-1.537
		c-0.772-0.114-1.557-0.151-2.325-0.287c-1.417-0.25-2.072-1.014-2.051-2.448c0.014-0.955,0.143-1.908,0.225-2.861
		c0.081-0.944-0.186-1.356-1.11-1.59c-0.855-0.219-1.727-0.367-2.582-0.586c-1.823-0.466-2.378-1.351-2.059-3.225
		c0.123-0.721,0.264-1.438,0.368-2.161c0.108-0.76-0.208-1.258-0.962-1.479c-0.653-0.193-1.299-0.407-1.941-0.633
		c-1.736-0.607-2.253-1.523-1.832-3.319c0.207-0.882,0.504-1.743,0.744-2.619c0.294-1.072,0.121-1.464-0.884-1.923
		c-0.848-0.387-1.726-0.709-2.567-1.109c-1.585-0.755-2.009-1.822-1.405-3.47c0.252-0.687,0.559-1.353,0.806-2.039
		c0.312-0.869,0.153-1.31-0.632-1.778c-0.671-0.4-1.375-0.744-2.041-1.152c-1.37-0.838-1.67-1.823-0.992-3.271
		c0.396-0.845,0.853-1.659,1.259-2.499c0.42-0.865,0.324-1.24-0.456-1.804c-0.796-0.576-1.635-1.097-2.41-1.699
		c-1.131-0.88-1.328-1.875-0.637-3.13c0.364-0.66,0.81-1.275,1.211-1.916c0.676-1.079,0.604-1.523-0.359-2.33
		c-0.483-0.404-0.98-0.794-1.442-1.222c-1.291-1.193-1.4-2.239-0.354-3.651c0.585-0.789,1.253-1.515,1.836-2.306
		c0.644-0.872,0.606-1.271-0.122-2.058c-0.684-0.742-1.395-1.457-2.078-2.199c-1.117-1.213-1.146-2.234-0.078-3.479
		c0.508-0.592,1.07-1.137,1.606-1.706c0.69-0.732,0.731-1.18,0.125-1.997c-0.436-0.585-0.935-1.125-1.364-1.715
		c-0.976-1.341-0.828-2.523,0.428-3.592c0.634-0.539,1.283-1.059,1.913-1.603c0.772-0.663,0.853-1.17,0.313-2.047
		c-0.462-0.75-0.981-1.468-1.422-2.23c-0.84-1.459-0.596-2.536,0.776-3.533c0.591-0.428,1.219-0.806,1.812-1.235
		c0.745-0.539,0.873-0.995,0.488-1.826c-0.307-0.662-0.68-1.294-1-1.951c-0.754-1.555-0.488-2.538,0.988-3.458
		c0.79-0.492,1.636-0.894,2.45-1.35c0.987-0.552,1.165-0.988,0.786-2.048c-0.332-0.925-0.736-1.824-1.063-2.75
		c-0.536-1.517-0.116-2.531,1.329-3.229c0.658-0.318,1.346-0.57,2.017-0.863c0.979-0.426,1.179-0.816,0.92-1.836
		c-0.185-0.733-0.429-1.452-0.595-2.188c-0.345-1.533,0.166-2.484,1.637-3.026c0.85-0.313,1.73-0.546,2.588-0.839
		c0.906-0.311,1.153-0.719,1.002-1.667c-0.134-0.847-0.327-1.683-0.464-2.529c-0.287-1.766,0.307-2.663,2.051-3.104
		c0.635-0.161,1.284-0.268,1.921-0.418c1.208-0.285,1.44-0.601,1.372-1.85c-0.042-0.754-0.135-1.507-0.137-2.262
		c-0.002-1.417,0.61-2.169,1.999-2.406c1.017-0.173,2.053-0.228,3.076-0.369c1.255-0.173,1.535-0.499,1.567-1.775
		c0.025-0.957-0.015-1.918,0.051-2.872c0.117-1.671,0.861-2.394,2.536-2.503c0.703-0.046,1.411-0.014,2.117-0.028
		c1.144-0.021,1.461-0.304,1.614-1.448c0.104-0.774,0.146-1.558,0.292-2.323c0.257-1.353,0.99-1.975,2.362-1.963
		c0.954,0.009,1.908,0.131,2.861,0.214c1.027,0.089,1.438-0.183,1.684-1.189c0.198-0.808,0.34-1.629,0.543-2.435
		c0.475-1.88,1.351-2.438,3.257-2.115c0.769,0.13,1.523,0.348,2.311,0.379c0.64,0.026,1.063-0.235,1.263-0.849
		c0.219-0.671,0.432-1.344,0.664-2.011c0.628-1.814,1.555-2.328,3.43-1.868c0.856,0.209,1.693,0.5,2.546,0.724
		c1.086,0.285,1.455,0.111,1.917-0.903c0.407-0.894,0.74-1.824,1.181-2.701c0.708-1.406,1.699-1.807,3.194-1.317
		c0.717,0.235,1.402,0.567,2.109,0.831c1.015,0.378,1.446,0.213,1.99-0.739c0.313-0.547,0.602-1.108,0.918-1.653
		c0.98-1.686,1.95-1.971,3.709-1.095c0.677,0.337,1.342,0.698,2.019,1.035c1.097,0.545,1.423,0.455,2.136-0.569
		c0.489-0.704,0.954-1.426,1.47-2.109c0.935-1.238,1.951-1.455,3.298-0.692c0.723,0.409,1.395,0.908,2.111,1.329
		c0.786,0.462,1.256,0.376,1.865-0.308c0.402-0.452,0.771-0.933,1.163-1.393c1.383-1.62,2.477-1.735,4.157-0.428
		c0.735,0.572,1.447,1.176,2.184,1.747c0.635,0.493,1.245,0.439,1.828-0.126c0.815-0.789,1.625-1.584,2.476-2.332
		c1.05-0.922,2.065-0.937,3.133-0.048c0.655,0.547,1.254,1.166,1.879,1.751c0.713,0.667,1.151,0.715,1.937,0.141
		c0.649-0.476,1.244-1.031,1.903-1.491c1.226-0.852,2.382-0.694,3.363,0.426c0.549,0.625,1.066,1.277,1.604,1.911
		c0.759,0.897,1.196,0.973,2.212,0.352c0.752-0.459,1.473-0.977,2.238-1.409c1.363-0.768,2.424-0.534,3.367,0.723
		c0.438,0.583,0.814,1.213,1.235,1.81c0.622,0.881,1.083,0.999,2.063,0.519c0.588-0.288,1.154-0.619,1.744-0.907
		c1.636-0.802,2.602-0.528,3.554,1.043c0.47,0.775,0.862,1.596,1.308,2.388c0.549,0.979,0.986,1.15,2.055,0.766
		c0.901-0.324,1.778-0.715,2.681-1.039c1.586-0.569,2.608-0.138,3.325,1.394c0.32,0.685,0.578,1.399,0.897,2.083
		c0.39,0.829,0.82,1.024,1.709,0.795c0.757-0.195,1.498-0.452,2.261-0.623c1.524-0.342,2.471,0.18,3.014,1.658
		c0.287,0.78,0.51,1.583,0.764,2.375c0.362,1.127,0.755,1.372,1.905,1.169c0.817-0.144,1.633-0.323,2.454-0.451
		c1.643-0.255,2.543,0.33,2.975,1.94c0.202,0.754,0.32,1.53,0.514,2.286c0.236,0.917,0.554,1.158,1.508,1.134
		c0.88-0.023,1.761-0.137,2.64-0.135c1.344,0.004,2.062,0.6,2.297,1.93c0.171,0.966,0.231,1.95,0.349,2.926
		c0.178,1.482,0.485,1.759,1.972,1.788c0.957,0.019,1.92-0.021,2.868,0.066c1.535,0.142,2.203,0.839,2.332,2.37
		c0.061,0.727,0.027,1.461,0.039,2.191c0.021,1.231,0.303,1.543,1.529,1.699c0.774,0.098,1.562,0.146,2.322,0.297
		c1.256,0.25,1.889,1.003,1.882,2.279c0,0.93-0.106,1.86-0.198,2.787c-0.117,1.213,0.127,1.583,1.327,1.861
		c0.785,0.182,1.58,0.324,2.36,0.525c1.793,0.462,2.33,1.32,2.056,3.166c-0.12,0.797-0.366,1.571-0.397,2.384
		c-0.024,0.642,0.242,1.061,0.854,1.261c0.672,0.219,1.344,0.433,2.012,0.664c1.812,0.627,2.326,1.555,1.864,3.432
		c-0.21,0.856-0.499,1.692-0.724,2.545c-0.284,1.087-0.112,1.451,0.906,1.915c0.893,0.407,1.822,0.741,2.699,1.182
		c1.403,0.707,1.803,1.699,1.314,3.195c-0.219,0.669-0.525,1.31-0.779,1.968c-0.455,1.175-0.299,1.585,0.821,2.205
		c0.508,0.279,1.021,0.551,1.521,0.844c1.685,0.98,1.967,1.95,1.09,3.71c-0.336,0.676-0.696,1.341-1.033,2.019
		c-0.545,1.096-0.452,1.424,0.572,2.134c0.703,0.489,1.428,0.953,2.109,1.47c1.237,0.937,1.453,1.948,0.688,3.3
		c-0.396,0.7-0.877,1.352-1.291,2.044c-0.512,0.852-0.422,1.325,0.332,1.98c0.437,0.381,0.895,0.737,1.334,1.114
		c1.619,1.384,1.734,2.479,0.426,4.157c-0.572,0.734-1.199,1.431-1.742,2.188c-0.529,0.738-0.479,1.147,0.133,1.817
		c0.766,0.836,1.577,1.63,2.325,2.483c0.918,1.046,0.933,2.065,0.044,3.13c-0.547,0.656-1.167,1.254-1.752,1.879
		c-0.665,0.711-0.712,1.152-0.139,1.938c0.479,0.65,1.033,1.244,1.492,1.904c0.851,1.225,0.689,2.381-0.43,3.363
		c-0.626,0.548-1.279,1.065-1.91,1.604c-0.896,0.756-0.971,1.198-0.35,2.213c0.445,0.731,0.947,1.43,1.373,2.174
		c0.818,1.428,0.582,2.497-0.75,3.479c-0.566,0.418-1.173,0.783-1.752,1.191c-0.88,0.621-0.995,1.08-0.514,2.062
		c0.276,0.565,0.594,1.112,0.873,1.676c0.849,1.712,0.576,2.668-1.078,3.662c-0.734,0.44-1.51,0.813-2.256,1.229
		c-1.062,0.584-1.229,1.018-0.808,2.166c0.322,0.875,0.7,1.729,1.017,2.606c0.566,1.583,0.133,2.612-1.396,3.327
		c-0.686,0.318-1.396,0.577-2.086,0.889c-0.801,0.363-1.004,0.775-0.795,1.637c0.189,0.785,0.451,1.552,0.627,2.336
		c0.343,1.524-0.182,2.472-1.654,3.017c-0.757,0.278-1.535,0.498-2.305,0.739c-1.221,0.384-1.453,0.761-1.229,2.001
		c0.142,0.794,0.313,1.584,0.437,2.38c0.255,1.643-0.33,2.547-1.938,2.977c-0.779,0.209-1.57,0.353-2.359,0.53
		c-0.747,0.171-1.114,0.635-1.066,1.413c0.053,0.879,0.139,1.76,0.143,2.641c0.006,1.428-0.588,2.146-2.004,2.391
		c-1.017,0.174-2.051,0.236-3.074,0.381c-1.266,0.177-1.528,0.484-1.563,1.771c-0.025,0.981,0.018,1.969-0.063,2.946
		c-0.133,1.612-0.918,2.343-2.532,2.427c-0.679,0.035-1.36,0.01-2.041,0.021c-1.228,0.016-1.558,0.303-1.69,1.53
		c-0.091,0.826-0.125,1.66-0.33,2.471c-0.279,1.093-0.981,1.68-2.102,1.732c-0.501,0.022-1.006-0.025-1.51-0.06
		c-0.502-0.034-1.004-0.092-1.504-0.142c-0.404-0.041-0.525,0.106-0.32,0.476c0.109,0.196,0.229,0.392,0.346,0.585
		c3.53,5.818,7.063,11.639,10.592,17.456c0.59,0.97,0.625,0.976,1.535,0.313c6.693-4.867,12.729-10.457,18.227-16.631
		c6.388-7.17,11.761-15.051,16.187-23.563c8.675-16.688,12.854-34.481,12.995-53.257c-0.003-3.456-0.184-6.901-0.484-10.34
		c-0.143-1.689-0.344-3.367-0.565-5.041c-1.571-11.861-4.856-23.23-9.99-34.037c-6.827-14.365-16.188-26.856-28.08-37.428
		c-7.213-6.414-15.13-11.816-23.69-16.265c-15.795-8.207-32.639-12.378-50.396-12.915c-6.282-0.19-12.546,0.206-18.77,1.086
		c-13.582,1.92-26.461,6.02-38.562,12.523C68.96,40.782,57.801,49.706,48.32,60.707c-7.136,8.28-12.983,17.407-17.545,27.341
		c-6.634,14.445-10.037,29.649-10.482,45.516c-0.182,6.486,0.249,12.947,1.191,19.369c2.163,14.736,6.912,28.57,14.42,41.452
		c5.972,10.245,13.316,19.386,22.044,27.409c3.137,2.883,6.417,5.6,9.88,8.09c0.747,0.536,0.847,0.518,1.336-0.281
		c0.75-1.225,1.493-2.453,2.238-3.682c2.838-4.677,5.676-9.354,8.508-14.031c0.136-0.226,0.431-0.464,0.251-0.738
		C79.995,210.896,79.648,211.007,79.381,211.021z M212.367,217.781c-2.627,2.454-6.342,2.259-8.604-0.162l-0.022-0.024
		c-2.263-2.421-2.205-6.188,0.423-8.643c2.627-2.455,6.343-2.258,8.604,0.162l0.023,0.023
		C215.053,211.56,214.995,215.326,212.367,217.781z M220.814,208.979l-1.789-1.416l3.875-4.895l-1.854-1.467l-3.408,4.309
		l-1.789-1.416l3.408-4.309l-1.918-1.52l-3.926,4.961l-1.789-1.414l5.508-6.959l9.137,7.232L220.814,208.979z M224.174,209.429
		l-0.244-2.91l1.197-1.514l1.145,3.303L224.174,209.429z M232.994,191.427c-1.834,3.17-5.277,4.102-8.116,2.459l-0.028-0.018
		c-2.84-1.641-3.776-5.107-1.942-8.277l2.274-3.934l10.088,5.836L232.994,191.427z M238.146,181.31l-10.707-4.601l1.014-2.354
		l10.707,4.601L238.146,181.31z M243.966,165.16l-8.735,0.577l6.996,5.263l-0.787,2.647l-9.904-7.864l0.646-2.17l12.592-1.166
		L243.966,165.16z M238.133,152.67c0.217-1.348,1.495-2.271,2.844-2.054c1.348,0.217,2.271,1.496,2.053,2.844
		c-0.217,1.348-1.495,2.271-2.844,2.055C238.838,155.297,237.915,154.019,238.133,152.67z M247.699,137.218l-6.59-0.221
		c-1.896-0.063-2.909,0.852-2.963,2.416c-0.053,1.564,0.865,2.544,2.711,2.605l6.674,0.225l-0.086,2.563l-6.573-0.221
		c-3.526-0.118-5.19-2.156-5.087-5.284s1.916-4.983,5.344-4.868l6.656,0.223L247.699,137.218z M247.531,128.332l-2.268,0.25
		l-0.686-6.206l-2.35,0.259l0.603,5.461l-2.267,0.25l-0.604-5.461l-2.434,0.269l0.695,6.288l-2.269,0.25l-0.972-8.818l11.584-1.279
		L247.531,128.332z M244.797,110.594l0.62,2.556l-7.409,1.798c-2.75,0.667-4.471-0.629-5.051-3.024
		c-0.428-1.763,0.066-3.116,0.8-4.116l2.128,1.146c-0.555,0.82-0.822,1.553-0.63,2.345c0.228,0.938,0.937,1.384,2.245,1.066
		L244.797,110.594z M236.258,101.961c-1.279,0.471-2.712-0.19-3.184-1.471c-0.473-1.281,0.189-2.713,1.471-3.185
		c1.282-0.472,2.713,0.19,3.186,1.472C238.202,100.059,237.54,101.489,236.258,101.961z M233.841,82.142l-5.84,3.06
		c-1.681,0.88-2.11,2.176-1.384,3.563c0.726,1.386,2.007,1.787,3.644,0.929l5.913-3.098l1.189,2.271l-5.825,3.052
		c-3.125,1.636-5.577,0.685-7.029-2.087s-0.793-5.28,2.245-6.871l5.898-3.09L233.841,82.142z M222.95,65.956l2.694,3.661
		c2.17,2.949,1.646,6.477-0.996,8.42l-0.025,0.02c-2.643,1.944-6.193,1.417-8.364-1.532l-2.694-3.661L222.95,65.956z
		 M214.243,61.136c0.944,0.984,0.913,2.562-0.071,3.506s-2.563,0.914-3.507-0.07c-0.946-0.985-0.914-2.563,0.069-3.507
		C211.719,60.12,213.297,60.15,214.243,61.136z M210.163,52.472l-1.44,1.768l-4.84-3.944l-1.492,1.832l4.258,3.471l-1.44,1.768
		l-4.259-3.471l-1.547,1.897l4.904,3.996l-1.44,1.768l-6.878-5.606l7.361-9.033L210.163,52.472z M195.63,41.724l2.151,1.394
		l-6.34,9.778l-2.15-1.394L195.63,41.724z M181.584,34.066l4.771,2.373c2.459,1.223,3.289,3.254,2.222,5.4l-0.015,0.029
		c-0.838,1.685-2.273,2.29-3.847,2.122l0.695,4.995l-2.681-1.334l-0.576-4.451l-1.803-0.896l-1.66,3.338l-2.297-1.142
		L181.584,34.066z M166.954,28.746l9.159,3.056l-0.748,2.243l-3.364-1.122l-2.94,8.812l-2.432-0.811l2.939-8.812l-3.362-1.123
		L166.954,28.746z M155.779,33.392c-2.19-1.035-3.553-1.961-3.112-4.233l0.007-0.033c0.402-2.075,2.336-3.125,4.672-2.671
		c1.668,0.324,2.987,1.123,3.969,2.28l-1.676,1.642c-0.877-0.899-1.793-1.518-2.757-1.705c-0.964-0.188-1.556,0.156-1.664,0.711
		l-0.006,0.033c-0.146,0.751,0.296,1.092,2.177,1.982c2.202,1.055,3.348,2.142,2.961,4.136l-0.007,0.033
		c-0.44,2.272-2.421,3.211-4.888,2.732c-1.732-0.336-3.363-1.28-4.499-2.773l1.833-1.493c0.863,1.05,1.839,1.798,3.146,2.052
		c1.028,0.2,1.729-0.088,1.858-0.758l0.006-0.033C157.924,34.656,157.596,34.253,155.779,33.392z M136.867,24.486l2.563,0.132
		l-0.342,6.584c-0.098,1.895,0.799,2.925,2.361,3.006s2.56-0.818,2.654-2.663l0.346-6.667l2.56,0.132l-0.34,6.567
		c-0.183,3.524-2.25,5.151-5.375,4.99c-3.125-0.162-4.948-2.007-4.771-5.431L136.867,24.486z M124.479,25.132
		c3.645-0.361,6.411,1.891,6.734,5.154l0.003,0.034c0.324,3.263-1.944,6.048-5.588,6.409l-4.522,0.448l-1.149-11.597L124.479,25.132
		z M105.26,28.867l7.09,5.571l-1.805-6.944l2.449-0.637l2.931,11.279l-2.111,0.548l-7.325-5.75l1.863,7.17l-2.449,0.636
		l-2.931-11.279L105.26,28.867z M96.641,31.739l4.257,10.849l-2.387,0.937l-4.257-10.849L96.641,31.739z M88.725,35.139l0.982,2.022
		c0.96,1.977,0.357,3.25-1.41,4.146l-0.653-0.849c0.982-0.606,1.237-1.377,0.748-2.195l-0.929,0.451l-1.164-2.396L88.725,35.139z
		 M77.155,41.417l4.847,7.963l4.963-3.021l1.212,1.991l-7.153,4.354l-6.059-9.954L77.155,41.417z M69.453,50.905
		c1.075-0.842,2.641-0.652,3.482,0.422c0.841,1.074,0.651,2.64-0.423,3.482c-1.074,0.842-2.64,0.652-3.481-0.422
		C68.19,53.313,68.379,51.747,69.453,50.905z M57.138,57.187c1.203-1.199,2.604-1.844,4.111-2.006l0.42,2.307
		c-1.236,0.222-2.261,0.632-2.957,1.326c-0.696,0.694-0.744,1.376-0.344,1.777l0.023,0.024c0.541,0.542,1.07,0.367,2.861-0.69
		c2.109-1.233,3.651-1.572,5.085-0.134l0.023,0.024c1.636,1.636,1.303,3.801-0.478,5.576c-1.25,1.246-2.946,2.068-4.818,2.17
		l-0.208-2.354c1.354-0.127,2.52-0.514,3.463-1.454c0.743-0.74,0.897-1.482,0.415-1.965l-0.023-0.023
		c-0.458-0.46-0.977-0.414-2.708,0.608c-2.085,1.233-3.617,1.842-5.25,0.204l-0.023-0.023
		C55.237,61.056,55.452,58.867,57.138,57.187z M45.217,71.453l9.016-0.057l-5.736-4.31l1.52-2.023l9.317,6.999l-1.309,1.744
		l-9.313,0.063l5.923,4.45l-1.52,2.023l-9.317-6.999L45.217,71.453z M37.153,84.142c1.673-3.183,5.245-4.22,8.178-2.679l0.029,0.015
		c2.932,1.542,4.119,5.118,2.447,8.301c-1.673,3.183-5.246,4.22-8.178,2.679l-0.03-0.016C36.666,90.901,35.481,87.325,37.153,84.142
		z M30.559,99.556c0.558-1.604,1.536-2.797,2.821-3.602l1.386,1.892c-1.015,0.74-1.757,1.557-2.079,2.484
		c-0.323,0.928-0.068,1.563,0.467,1.75l0.031,0.011c0.724,0.251,1.123-0.138,2.272-1.872c1.358-2.03,2.597-3.009,4.515-2.342
		l0.032,0.011c2.186,0.76,2.833,2.854,2.007,5.228c-0.579,1.666-1.746,3.146-3.385,4.057l-1.216-2.027
		c1.163-0.706,2.042-1.563,2.479-2.821c0.345-0.99,0.16-1.725-0.486-1.949l-0.031-0.011c-0.613-0.213-1.059,0.055-2.17,1.729
		c-1.337,2.021-2.448,3.237-4.633,2.479l-0.031-0.011C30.541,103.868,29.778,101.804,30.559,99.556z M27.675,109.599l11.354,2.626
		l-0.578,2.497l-11.354-2.625L27.675,109.599z M25.298,123.587l9.253,1.136l0.708-5.767l2.313,0.284l-1.02,8.311l-11.566-1.42
		L25.298,123.587z M24.441,136.983l11.646-5.204l0.048,2.681l-2.594,1.112l0.087,4.927l2.632,1.019l0.046,2.612l-11.823-4.784
		L24.441,136.983z M25.833,154.147c-0.369-2.166,0.133-3.584,1.001-4.832l2.128,1.293c-0.653,1.022-0.992,2.009-0.796,3.156
		c0.33,1.938,2.175,3.06,4.144,2.724l0.033-0.005c1.969-0.336,3.379-1.978,3.044-3.947c-0.224-1.313-0.886-2.027-1.86-2.79
		l1.351-1.886c1.465,0.969,2.476,2.146,2.853,4.363c0.575,3.379-1.606,6.336-4.905,6.896l-0.033,0.006
		C29.527,159.683,26.433,157.675,25.833,154.147z M28.638,166.178l11.188-3.264l0.717,2.461l-11.187,3.265L28.638,166.178z
		 M35.458,184.522l-1.782-4.181c-1.436-3.368-0.114-6.682,2.902-7.968l0.03-0.014c3.018-1.285,6.353,0.043,7.788,3.412l1.782,4.182
		L35.458,184.522z M42.919,197.526l3.195-8.43l-6.086,3.799l-1.341-2.146l9.885-6.17l1.155,1.85l-3.295,8.709l6.284-3.922
		l1.341,2.146l-9.885,6.17L42.919,197.526z M57.428,205l-2.457,7.99l-1.947-2.278l1.75-5.152l-5.395,0.889l-1.893-2.215l8.239-1.15
		l3.531-3.018l1.665,1.949L57.428,205z M69.443,215.19c-0.202-1.346-0.652-2.488-1.644-3.379c-0.78-0.701-1.528-0.813-1.984-0.306
		l-0.022,0.024c-0.434,0.482-0.359,0.998,0.756,2.671c1.346,2.015,2.039,3.51,0.492,5.229l-0.022,0.025
		c-1.413,1.572-3.611,1.479-5.382-0.113c-1.263-1.135-1.985-2.499-2.23-3.994l2.282-0.547c0.289,1.223,0.756,2.223,1.486,2.881
		c0.73,0.654,1.416,0.666,1.793,0.244l0.022-0.023c0.512-0.57,0.307-1.09-0.847-2.819c-1.347-2.038-1.771-3.56-0.414-5.069
		l0.022-0.025c1.548-1.721,3.728-1.508,5.598,0.172c1.313,1.18,2.226,2.828,2.432,4.691L69.443,215.19z"/>
	<path fill="#FFFFFF" d="M226.162,191.532l0.027,0.017c1.787,1.034,3.75,0.534,4.802-1.28l0.991-1.716l-6.08-3.518l-0.992,1.715
		C223.859,188.565,224.376,190.499,226.162,191.532z"/>
	<polygon fill="#FFFFFF" points="107.331,88.537 107.331,69.877 103.279,69.877 103.279,81.366 94.535,69.877 90.75,69.877 
		90.75,88.538 94.802,88.538 94.802,76.675 103.839,88.537 	"/>
	<path fill="#FFFFFF" d="M115.527,87.942c1.208,0.507,2.533,0.76,3.972,0.76s2.766-0.255,3.984-0.761
		c1.218-0.506,2.267-1.2,3.146-2.079c0.88-0.88,1.568-1.901,2.066-3.066c0.498-1.163,0.747-2.412,0.747-3.745v-0.053
		c0-1.333-0.245-2.582-0.733-3.746c-0.49-1.164-1.174-2.177-2.053-3.039c-0.88-0.862-1.924-1.546-3.132-2.053
		c-1.209-0.506-2.533-0.759-3.972-0.759s-2.768,0.253-3.985,0.759c-1.218,0.507-2.266,1.2-3.146,2.08
		c-0.879,0.879-1.568,1.901-2.066,3.065c-0.497,1.165-0.746,2.413-0.746,3.746v0.053c0,1.333,0.244,2.582,0.733,3.746
		c0.489,1.164,1.173,2.177,2.053,3.039C113.274,86.752,114.318,87.436,115.527,87.942z M113.901,79c0-0.8,0.138-1.55,0.413-2.253
		c0.275-0.702,0.658-1.32,1.146-1.853c0.488-0.533,1.075-0.951,1.759-1.253c0.684-0.302,1.444-0.453,2.279-0.453
		c0.817,0,1.573,0.155,2.266,0.466c0.693,0.312,1.293,0.734,1.799,1.267c0.506,0.533,0.897,1.156,1.173,1.866
		c0.275,0.711,0.413,1.466,0.413,2.266v0.053c0,0.799-0.138,1.55-0.413,2.252c-0.275,0.703-0.658,1.32-1.146,1.853
		c-0.488,0.533-1.079,0.951-1.772,1.253c-0.693,0.302-1.449,0.453-2.266,0.453c-0.836,0-1.595-0.156-2.279-0.466
		c-0.684-0.31-1.28-0.733-1.786-1.266c-0.506-0.533-0.898-1.155-1.173-1.866c-0.275-0.711-0.413-1.466-0.413-2.266V79z"/>
	<polygon fill="#FFFFFF" points="140.104,88.382 140.104,73.507 145.783,73.507 145.783,69.722 130.321,69.722 130.321,73.507 
		136,73.507 136,88.382 	"/>
	<path fill="#FFFFFF" d="M162.951,79.625c0.736-0.95,1.105-2.181,1.105-3.692V75.88c0-1.777-0.534-3.199-1.6-4.265
		c-1.263-1.262-3.076-1.893-5.438-1.893h-8.53v18.66h4.105v-5.971h3.172h0.054l3.998,5.971h4.799l-4.559-6.665
		C161.248,81.273,162.213,80.576,162.951,79.625z M159.897,76.147c0,0.799-0.271,1.439-0.813,1.919s-1.319,0.72-2.332,0.72v-0.001
		h-4.158v-5.358h4.078c1.014,0,1.804,0.223,2.373,0.667c0.568,0.445,0.853,1.111,0.853,2V76.147z"/>
	<polygon fill="#FFFFFF" points="181.504,84.731 171.373,84.731 171.373,80.812 180.17,80.812 180.17,77.16 171.373,77.16 
		171.373,73.374 181.371,73.374 181.371,69.722 167.321,69.722 167.321,88.383 181.504,88.383 	"/>
	<polygon fill="#FFFFFF" points="96.529,97.958 81.068,97.958 81.068,101.743 86.746,101.743 86.746,116.618 90.852,116.618 
		90.852,101.743 96.529,101.743 	"/>
	<path fill="#FFFFFF" d="M103.339,110.647h3.173h0.054l3.999,5.971h4.798l-4.559-6.665c1.19-0.444,2.154-1.141,2.893-2.092
		c0.737-0.95,1.106-2.181,1.106-3.692v-0.053c0-1.777-0.533-3.199-1.6-4.265c-1.262-1.262-3.075-1.893-5.438-1.893h-8.53v18.66
		h4.104V110.647z M103.339,101.662h4.079c1.014,0,1.804,0.223,2.372,0.667c0.569,0.445,0.854,1.111,0.854,2v0.053
		c0,0.799-0.271,1.439-0.813,1.919c-0.542,0.48-1.319,0.72-2.333,0.72v-0.001h-4.159V101.662z"/>
	<path fill="#FFFFFF" d="M130.251,112.433l1.706,4.185h4.292l-7.998-18.793h-3.784l-7.998,18.793h4.186l1.706-4.185H130.251z
		 M126.307,102.757l2.479,6.051h-4.958L126.307,102.757z"/>
	<polygon fill="#FFFFFF" points="144.258,116.751 151.803,97.958 147.377,97.958 142.5,111.1 137.621,97.958 133.088,97.958 
		140.633,116.751 	"/>
	<path fill="#FFFFFF" d="M154.533,112.433h7.891l1.707,4.185h4.291l-7.996-18.793h-3.787l-7.996,18.793h4.186L154.533,112.433z
		 M158.479,102.757l2.48,6.051H156L158.479,102.757z"/>
	<rect x="171.047" y="97.958" fill="#FFFFFF" width="4.105" height="18.66"/>
	<polygon fill="#FFFFFF" points="191.186,112.913 181.881,112.913 181.881,97.958 177.775,97.958 177.775,116.619 191.186,116.619 	
		"/>
	<path fill="#FFFFFF" d="M85.905,141.897c-0.738,0.392-1.641,0.586-2.706,0.586c-0.801,0-1.532-0.155-2.199-0.467
		c-0.666-0.31-1.235-0.732-1.706-1.266s-0.839-1.154-1.106-1.866c-0.267-0.711-0.399-1.466-0.399-2.266v-0.054
		c0-0.799,0.133-1.549,0.399-2.252c0.268-0.702,0.641-1.32,1.12-1.853c0.48-0.533,1.053-0.951,1.72-1.253
		c0.666-0.302,1.391-0.453,2.173-0.453c0.941,0,1.79,0.187,2.546,0.56c0.755,0.373,1.497,0.889,2.226,1.546l2.613-3.012
		c-0.427-0.427-0.89-0.818-1.386-1.173c-0.498-0.356-1.04-0.658-1.626-0.907c-0.587-0.248-1.239-0.443-1.959-0.586
		c-0.721-0.142-1.517-0.213-2.387-0.213c-1.439,0-2.755,0.253-3.944,0.759c-1.191,0.507-2.214,1.2-3.066,2.08
		c-0.853,0.879-1.52,1.901-1.999,3.065c-0.48,1.165-0.72,2.413-0.72,3.746v0.053c0,1.333,0.239,2.586,0.72,3.759
		c0.479,1.174,1.146,2.19,1.999,3.053c0.853,0.861,1.866,1.541,3.039,2.039s2.443,0.746,3.812,0.746
		c0.906,0,1.724-0.076,2.451-0.226c0.729-0.151,1.4-0.374,2.014-0.667c0.611-0.293,1.177-0.645,1.691-1.053
		c0.516-0.408,1.013-0.87,1.493-1.387l-2.613-2.639C87.376,140.974,86.643,141.507,85.905,141.897z"/>
	<path fill="#FFFFFF" d="M108.684,145.949l-4.559-6.665c1.19-0.444,2.154-1.141,2.893-2.092c0.737-0.95,1.106-2.182,1.106-3.692
		v-0.053c0-1.777-0.533-3.199-1.6-4.265c-1.262-1.262-3.074-1.893-5.438-1.893h-8.53h-0.001v18.66h4.105v-5.972h3.172h0.054
		l3.999,5.972H108.684z M100.819,136.353h-4.158v-5.358h4.079c1.013,0,1.803,0.223,2.371,0.667c0.569,0.445,0.854,1.111,0.854,2
		v0.053c0,0.799-0.271,1.439-0.813,1.919C102.61,136.112,101.833,136.353,100.819,136.353z"/>
	<polygon fill="#FFFFFF" points="124.57,142.298 114.44,142.298 114.44,138.379 123.237,138.379 123.237,134.727 114.44,134.727 
		114.44,130.941 124.438,130.941 124.438,127.289 110.39,127.289 110.389,127.289 110.389,145.95 124.57,145.95 	"/>
	<polygon fill="#FFFFFF" points="121.692,122.624 118.201,121.104 115.188,125.823 118.281,125.823 	"/>
	<polygon fill="#FFFFFF" points="140.992,142.298 130.861,142.298 130.861,138.379 139.658,138.379 139.658,134.727 
		130.861,134.727 130.861,130.941 140.857,130.941 140.857,127.289 126.81,127.289 126.81,145.95 140.992,145.95 	"/>
	<polygon fill="#FFFFFF" points="165.195,142.244 155.893,142.244 155.893,127.289 151.787,127.289 151.787,145.95 165.195,145.95 	
		"/>
	<polygon fill="#FFFFFF" points="171.899,138.379 180.697,138.379 180.697,134.727 171.899,134.727 171.899,130.941 
		181.896,130.941 181.896,127.289 167.848,127.289 167.848,145.95 182.029,145.95 182.029,142.298 171.899,142.298 	"/>
	<path fill="#FFFFFF" d="M191.932,146.216c1.014,0,1.936-0.129,2.77-0.385c0.832-0.258,1.549-0.631,2.149-1.12
		c0.599-0.489,1.067-1.093,1.403-1.813c0.334-0.719,0.502-1.541,0.502-2.465v-0.054c0-0.817-0.129-1.521-0.387-2.106
		c-0.259-0.586-0.642-1.097-1.149-1.532c-0.509-0.437-1.132-0.809-1.871-1.12s-1.581-0.591-2.524-0.84
		c-0.804-0.213-1.466-0.4-1.992-0.56c-0.524-0.159-0.939-0.328-1.242-0.506c-0.303-0.178-0.512-0.377-0.629-0.6
		c-0.115-0.223-0.174-0.485-0.174-0.787v-0.053c0-0.462,0.201-0.849,0.602-1.16c0.4-0.31,1-0.466,1.799-0.466s1.6,0.164,2.398,0.493
		c0.801,0.329,1.617,0.777,2.453,1.346l2.133-3.092c-0.961-0.764-2.014-1.351-3.159-1.76c-1.146-0.408-2.403-0.613-3.772-0.613
		c-0.959,0-1.838,0.133-2.634,0.4c-0.797,0.267-1.481,0.649-2.056,1.146c-0.574,0.498-1.02,1.089-1.338,1.773
		c-0.319,0.684-0.478,1.453-0.478,2.306v0.053c0,0.924,0.146,1.697,0.441,2.319c0.294,0.623,0.708,1.143,1.241,1.56
		c0.535,0.418,1.186,0.77,1.951,1.053c0.767,0.284,1.621,0.542,2.566,0.773c0.784,0.195,1.421,0.383,1.911,0.56
		c0.489,0.179,0.873,0.356,1.149,0.533c0.275,0.177,0.463,0.369,0.561,0.573c0.098,0.205,0.148,0.439,0.148,0.707v0.053
		c0,0.551-0.237,0.982-0.707,1.293c-0.471,0.311-1.133,0.466-1.986,0.466c-1.066,0-2.049-0.204-2.945-0.612
		c-0.898-0.408-1.773-0.959-2.626-1.652l-2.426,2.904c1.12,1.014,2.362,1.765,3.731,2.254
		C189.115,145.972,190.51,146.216,191.932,146.216z"/>
	<path fill="#FFFFFF" d="M110.11,166.456c0,1.084-0.223,1.87-0.667,2.359c-0.444,0.488-1.057,0.732-1.839,0.732
		c-0.657,0-1.257-0.164-1.799-0.492c-0.543-0.33-1.08-0.787-1.613-1.373l-2.586,2.879c0.64,0.765,1.452,1.422,2.438,1.973
		c0.987,0.551,2.208,0.826,3.666,0.826c1.013,0,1.933-0.147,2.76-0.439c0.827-0.293,1.523-0.724,2.093-1.293
		c0.568-0.568,1.004-1.262,1.306-2.079s0.453-1.786,0.453-2.905v-12.209h-4.212V166.456z"/>
	<polygon fill="#FFFFFF" points="121.117,165.522 129.914,165.522 129.914,161.871 121.117,161.871 121.117,158.085 
		131.114,158.085 131.114,154.433 117.066,154.433 117.065,154.433 117.065,173.094 131.247,173.094 131.247,169.442 
		121.117,169.442 	"/>
	<path fill="#FFFFFF" d="M146.349,165.122c0,1.493-0.356,2.611-1.066,3.359c-0.711,0.746-1.697,1.119-2.959,1.119
		c-1.264,0-2.249-0.387-2.959-1.16c-0.711-0.772-1.066-1.922-1.066-3.451v-10.557h-4.104v10.664c0,2.754,0.72,4.824,2.159,6.211
		c1.438,1.387,3.412,2.079,5.918,2.079c1.244,0,2.371-0.173,3.384-0.52s1.875-0.871,2.586-1.573c0.71-0.702,1.257-1.577,1.64-2.626
		c0.383-1.048,0.572-2.283,0.572-3.705v-10.53h-4.104V165.122z"/>
	<polygon fill="#FFFFFF" points="170.38,154.433 165.716,154.433 161.771,160.483 157.851,154.433 153.054,154.433 159.291,163.603 
		152.786,173.093 157.452,173.093 161.663,166.694 165.849,173.093 170.647,173.093 164.144,163.55 	"/>
</g>
</svg>
