<?xml version="1.0" encoding="utf-8"?>
<!-- Generator: Adobe Illustrator 16.0.0, SVG Export Plug-In . SVG Version: 6.00 Build 0)  -->
<!DOCTYPE svg PUBLIC "-//W3C//DTD SVG 1.1//EN" "http://www.w3.org/Graphics/SVG/1.1/DTD/svg11.dtd">
<svg version="1.1" id="Layer_1" xmlns="http://www.w3.org/2000/svg" xmlns:xlink="http://www.w3.org/1999/xlink" x="0px" y="0px"
	 width="1576px" height="1280px" viewBox="44 256 1576 1280" enable-background="new 44 256 1576 1280" xml:space="preserve" fill="#fff">
<path d="M1620,408c-44,64-99,121-162,167c1,14,1,28,1,42c0,427-325,919-919,919c-183,0-353-53-496-145c26,3,51,4,78,4
	c151,0,290-51,401-138c-142-3-261-96-302-224c20,3,40,5,61,5c29,0,58-4,85-11c-148-30-259-160-259-317v-4c43,24,93,39,146,41
	c-87-58-144-157-144-269c0-60,16-115,44-163c159,196,398,324,666,338c-5-24-8-49-8-74c0-178,144-323,323-323c93,0,177,39,236,102
	c73-14,143-41,205-78c-24,75-75,138-142,178C1499,451,1562,433,1620,408z"/>
</svg>
